<svg data-name="Layer 1" xmlns="http://www.w3.org/2000/svg" viewBox="0 0 768 380"><line x1="146" y1="41.5" x2="768" y2="41.5" fill="none" stroke="#dedede"/><line x1="146" y1="113.5" x2="768" y2="113.5" fill="none" stroke="#dedede"/><line x1="146" y1="185.5" x2="768" y2="185.5" fill="none" stroke="#dedede"/><line x1="146" y1="265.5" x2="768" y2="265.5" fill="none" stroke="#dedede"/><line x1="146" y1="292.5" x2="768" y2="292.5" fill="none" stroke="#dedede"/><line x1="146" y1="352.5" x2="768" y2="352.5" fill="none" stroke="#dedede"/><line x1="146" y1="376.5" x2="768" y2="376.5" fill="none" stroke="#dedede"/><path d="M5.92,37H5.25V32.08H1.76V37H1.09V27h.67v4.43H5.25V27h.67Zm7.91,0H10.21V27h3.62v.64H10.88v3.79h2.79v.64H10.88v4.28h2.95Zm7.64,0-.88-3.62H18.17L17.3,37h-.7L19,27h.69l2.46,10Zm-1-4.3L19.55,29c-.09-.41-.16-.81-.21-1.18A9.66,9.66,0,0,1,19.15,29L18.3,32.7Zm9.87-.79c0,3.39-1,5.09-3.17,5.09H25.36V27h1.82a2.56,2.56,0,0,1,2.33,1.25A6.72,6.72,0,0,1,30.31,31.91Zm-.7,0A6.76,6.76,0,0,0,29,28.73a2,2,0,0,0-1.84-1.11H26v8.76h1.06A2,2,0,0,0,29,35.25,7.1,7.1,0,0,0,29.61,32ZM34.27,37V27h.67V37Zm10.22,0h-.86l-3.78-9H39.8c.05.62.08,1.21.08,1.79V37h-.66V27h.87l3.76,8.86h0c0-.75-.06-1.38-.06-1.88V27h.66Zm7.57-5h2.19v4.73a6.4,6.4,0,0,1-2.37.45,2.88,2.88,0,0,1-2.54-1.37,6.85,6.85,0,0,1-.9-3.79,6.58,6.58,0,0,1,.93-3.78A3,3,0,0,1,52,26.86a4,4,0,0,1,2.14.64l-.33.59a3.36,3.36,0,0,0-1.81-.6,2.36,2.36,0,0,0-2.13,1.16A6.33,6.33,0,0,0,49.15,32a6.33,6.33,0,0,0,.73,3.33,2.29,2.29,0,0,0,2.06,1.17,4.62,4.62,0,0,0,1.63-.25V32.6H52.06Zm10,2.42a2.88,2.88,0,0,1-.69,2,2.24,2.24,0,0,1-1.73.76,4.48,4.48,0,0,1-1.92-.35v-.73a3,3,0,0,0,.88.32,4.6,4.6,0,0,0,1,.11,1.54,1.54,0,0,0,1.25-.58,2.18,2.18,0,0,0,.5-1.47,2.27,2.27,0,0,0-.35-1.32,3.69,3.69,0,0,0-1.34-1,5,5,0,0,1-1.15-.75,2.32,2.32,0,0,1-.57-.85,3.39,3.39,0,0,1-.18-1.17,2.81,2.81,0,0,1,.3-1.31,2.19,2.19,0,0,1,.84-.89,2.3,2.3,0,0,1,1.18-.32,4.19,4.19,0,0,1,1,.13,4,4,0,0,1,.76.28l-.26.65a3.36,3.36,0,0,0-1.55-.39,1.54,1.54,0,0,0-1.2.5,1.87,1.87,0,0,0-.46,1.33,2.14,2.14,0,0,0,.34,1.3,3.76,3.76,0,0,0,1.31,1,3.79,3.79,0,0,1,1.47,1.15A2.64,2.64,0,0,1,62.07,34.38Z" fill="#8e8e8e"/><path d="M165.15,41H160.1V29.11h-6.66V41h-5.05V13.87h5.05V24.65h6.66V13.87h5.05Zm14,.37a7.49,7.49,0,0,1-6.12-2.74c-1.48-1.85-2.23-4.45-2.23-7.82s.68-6.08,2-8a6.5,6.5,0,0,1,5.64-2.88,6.4,6.4,0,0,1,5.32,2.47,10.79,10.79,0,0,1,2,6.88v2.64h-9.93A6.81,6.81,0,0,0,177,36.05a3.58,3.58,0,0,0,3,1.33,9.64,9.64,0,0,0,4.94-1.5v4.06A10.86,10.86,0,0,1,179.18,41.37Zm-.72-17.63a2,2,0,0,0-1.75,1.14,7.51,7.51,0,0,0-.79,3.47h5a7.62,7.62,0,0,0-.69-3.44A2,2,0,0,0,178.46,23.74ZM201.07,41l-1-2.82H200a6.93,6.93,0,0,1-2.26,2.5,5.72,5.72,0,0,1-3,.69,4.3,4.3,0,0,1-3.6-1.71,7.64,7.64,0,0,1-1.3-4.75,6.13,6.13,0,0,1,1.78-4.84A8.51,8.51,0,0,1,197,28.31l2.75-.11V26.71c0-1.93-.84-2.89-2.51-2.89A8.53,8.53,0,0,0,193,25.27l-1.71-3.42a12.29,12.29,0,0,1,6.7-2,6.35,6.35,0,0,1,5,1.9,7.57,7.57,0,0,1,1.72,5.32V41Zm-4.29-3.49a2.46,2.46,0,0,0,2.15-1.2,5.73,5.73,0,0,0,.82-3.25V31.31l-1.52.08a3.48,3.48,0,0,0-2.49,1A3.79,3.79,0,0,0,195,35C195,36.66,195.57,37.51,196.78,37.51ZM216,41.37a5,5,0,0,1-4.51-2.82,15.62,15.62,0,0,1-1.65-7.85,16.22,16.22,0,0,1,1.61-7.9,4.94,4.94,0,0,1,4.46-2.86,4.17,4.17,0,0,1,2.43.71A6.11,6.11,0,0,1,220.26,23h.3c-.15-1.88-.23-3.19-.23-3.95v-6.9h4.94V41H221.6l-.84-2.69h-.17A5,5,0,0,1,216,41.37Zm1.6-4.17a2.1,2.1,0,0,0,2-1.25,11.82,11.82,0,0,0,.69-4.56v-.65a13.9,13.9,0,0,0-.65-5.07,2.16,2.16,0,0,0-2.1-1.46c-.92,0-1.58.56-2,1.69a14.81,14.81,0,0,0-.62,4.88,14,14,0,0,0,.64,4.82A2.15,2.15,0,0,0,217.61,37.2ZM236.3,41h-4.94V20.33h4.94Zm-5.14-26.07a2.6,2.6,0,0,1,.7-1.93,2.73,2.73,0,0,1,2-.72,2.62,2.62,0,0,1,1.93.72,2.57,2.57,0,0,1,.72,1.93,2.61,2.61,0,0,1-.74,2,2.69,2.69,0,0,1-1.91.68,2.78,2.78,0,0,1-2-.68A2.61,2.61,0,0,1,231.16,14.93ZM252.73,41V28.68a8.32,8.32,0,0,0-.54-3.4,1.82,1.82,0,0,0-1.75-1.15,2.45,2.45,0,0,0-2.33,1.6,13.51,13.51,0,0,0-.75,5.34V41h-4.93V20.33h3.91l.6,2.65h.31a5.26,5.26,0,0,1,1.91-2.22,5.15,5.15,0,0,1,2.92-.82,4.84,4.84,0,0,1,4.21,1.93,9.5,9.5,0,0,1,1.41,5.64V41Zm25.74-20.63v2.89l-2.47.56a6.63,6.63,0,0,1,.73,3.26,7.1,7.1,0,0,1-1.79,5.14,6.54,6.54,0,0,1-5,1.86,4.57,4.57,0,0,1-1.37-.15,5.67,5.67,0,0,0-.67.71,1.48,1.48,0,0,0-.32,1c0,.87.75,1.3,2.25,1.3h3a5.44,5.44,0,0,1,4,1.43,5.72,5.72,0,0,1,1.43,4.27,6.75,6.75,0,0,1-2.41,5.56q-2.42,2-6.94,2a8.23,8.23,0,0,1-5.29-1.5,5.12,5.12,0,0,1-1.85-4.25,4.77,4.77,0,0,1,1.05-3.05,6.11,6.11,0,0,1,2.94-1.89,3.6,3.6,0,0,1-1.56-1.15,2.89,2.89,0,0,1-.6-1.82,3.3,3.3,0,0,1,.19-1.13,3.19,3.19,0,0,1,.52-1A9.85,9.85,0,0,1,265.78,33a5.23,5.23,0,0,1-2-2.39,8.41,8.41,0,0,1-.75-3.58,7.25,7.25,0,0,1,1.79-5.25,6.71,6.71,0,0,1,5.1-1.86,11.71,11.71,0,0,1,2.69.43ZM266.32,44a2.31,2.31,0,0,0,.76,1.87,3.26,3.26,0,0,0,2.21.67,5.45,5.45,0,0,0,3.35-.86,2.73,2.73,0,0,0,1.13-2.33,2,2,0,0,0-.61-1.65,3.64,3.64,0,0,0-2.24-.49h-2.4a2,2,0,0,0-1.61.74A3.22,3.22,0,0,0,266.32,44Zm1.52-16.93c0,2.44.68,3.66,2.06,3.66s2-1.23,2-3.69-.67-3.79-2-3.79S267.84,24.54,267.84,27.08ZM305.57,41h-5V25.08q0-2.59.26-6c-.09.12-.41.5-1,1.13s-1.62,1.76-3.21,3.39l-2.82-3.08,7.21-6.68h4.49Z"/><path d="M157.09,113h-2.93v-6.89h-3.85V113h-2.92V97.29h2.92v6.25h3.85V97.29h2.93Zm8.12.21a4.33,4.33,0,0,1-3.54-1.58,7.06,7.06,0,0,1-1.29-4.53,8,8,0,0,1,1.17-4.63,3.76,3.76,0,0,1,3.26-1.66,3.7,3.7,0,0,1,3.09,1.43,6.24,6.24,0,0,1,1.12,4v1.53h-5.74a4,4,0,0,0,.65,2.38,2.08,2.08,0,0,0,1.72.77,5.65,5.65,0,0,0,2.86-.86v2.35A6.31,6.31,0,0,1,165.21,113.21Zm-.42-10.2a1.17,1.17,0,0,0-1,.66,4.32,4.32,0,0,0-.46,2h2.9a4.26,4.26,0,0,0-.4-2A1.14,1.14,0,0,0,164.79,103Zm13.09,10-.57-1.63h-.06a4.2,4.2,0,0,1-1.31,1.45,3.38,3.38,0,0,1-1.71.39,2.49,2.49,0,0,1-2.09-1,4.47,4.47,0,0,1-.75-2.75,3.6,3.6,0,0,1,1-2.81,5,5,0,0,1,3.11-1l1.59-.06v-.86c0-1.12-.49-1.68-1.45-1.68a4.94,4.94,0,0,0-2.47.84l-1-2a7.13,7.13,0,0,1,3.88-1.12,3.7,3.7,0,0,1,2.89,1.09,4.42,4.42,0,0,1,1,3.08v8Zm-2.48-2a1.43,1.43,0,0,0,1.25-.7,3.38,3.38,0,0,0,.47-1.88v-1l-.88,0a2,2,0,0,0-1.44.55,2.21,2.21,0,0,0-.45,1.51C174.35,110.49,174.7,111,175.4,111Zm11.13,2.23a2.92,2.92,0,0,1-2.61-1.63A9.1,9.1,0,0,1,183,107a9.43,9.43,0,0,1,.93-4.58,2.86,2.86,0,0,1,2.58-1.65,2.39,2.39,0,0,1,1.41.41,3.45,3.45,0,0,1,1.1,1.35h.17c-.08-1.09-.12-1.85-.12-2.29v-4h2.85V113h-2.12l-.49-1.56h-.09A2.88,2.88,0,0,1,186.53,113.21Zm.93-2.41a1.22,1.22,0,0,0,1.16-.72,6.92,6.92,0,0,0,.39-2.64v-.38a8,8,0,0,0-.37-2.93,1.25,1.25,0,0,0-1.22-.85c-.53,0-.91.32-1.16,1a8.77,8.77,0,0,0-.35,2.82,8.17,8.17,0,0,0,.36,2.79A1.25,1.25,0,0,0,187.46,110.8Zm10.82,2.2h-2.86V101h2.86Zm-3-15.09a1.51,1.51,0,0,1,.41-1.12,1.57,1.57,0,0,1,1.16-.42,1.51,1.51,0,0,1,1.12.42,1.48,1.48,0,0,1,.42,1.12,1.55,1.55,0,0,1-.43,1.14,1.6,1.6,0,0,1-1.11.39,1.64,1.64,0,0,1-1.14-.39A1.55,1.55,0,0,1,195.3,97.91ZM207.79,113v-7.13a5,5,0,0,0-.31-2,1.06,1.06,0,0,0-1-.66,1.42,1.42,0,0,0-1.36.92,8,8,0,0,0-.43,3.09V113h-2.85V101h2.26l.35,1.54h.18a3,3,0,0,1,1.11-1.29,3,3,0,0,1,1.68-.47,2.8,2.8,0,0,1,2.44,1.12,5.43,5.43,0,0,1,.82,3.26V113Zm14.9-11.94v1.67l-1.43.32a3.83,3.83,0,0,1,.42,1.89,4.12,4.12,0,0,1-1,3,3.78,3.78,0,0,1-2.88,1.07,3,3,0,0,1-.79-.08,3,3,0,0,0-.39.41.85.85,0,0,0-.18.55c0,.51.43.76,1.3.76h1.73a3.13,3.13,0,0,1,2.34.82,3.35,3.35,0,0,1,.83,2.47,3.94,3.94,0,0,1-1.4,3.23,6.21,6.21,0,0,1-4,1.14,4.77,4.77,0,0,1-3.06-.87,3,3,0,0,1-1.07-2.46,2.74,2.74,0,0,1,.61-1.77,3.47,3.47,0,0,1,1.7-1.09,2.19,2.19,0,0,1-.91-.67,1.74,1.74,0,0,1-.34-1.05,2,2,0,0,1,.11-.66,2,2,0,0,1,.3-.55,5.25,5.25,0,0,1,.82-.79,3.05,3.05,0,0,1-1.18-1.38,5.06,5.06,0,0,1-.43-2.08,4.21,4.21,0,0,1,1-3,3.91,3.91,0,0,1,2.95-1.07,5.6,5.6,0,0,1,.84.08,4.28,4.28,0,0,1,.72.17Zm-7,13.68a1.32,1.32,0,0,0,.44,1.08,1.88,1.88,0,0,0,1.28.39,3.17,3.17,0,0,0,1.94-.49,1.6,1.6,0,0,0,.66-1.36,1.12,1.12,0,0,0-.36-1,2.13,2.13,0,0,0-1.3-.28h-1.39a1.15,1.15,0,0,0-.93.43A1.86,1.86,0,0,0,215.66,114.74Zm.88-9.8c0,1.41.39,2.12,1.19,2.12s1.16-.71,1.16-2.14-.39-2.19-1.16-2.19S216.54,103.47,216.54,104.94ZM239.77,113h-8.42v-2.18l2.79-3.95c.77-1.09,1.29-1.9,1.58-2.42a7,7,0,0,0,.63-1.52,5.33,5.33,0,0,0,.21-1.5,2,2,0,0,0-.41-1.35,1.31,1.31,0,0,0-1-.45,2.06,2.06,0,0,0-1.07.3,6.51,6.51,0,0,0-1.2,1.08l-1.63-1.72a7.34,7.34,0,0,1,2.09-1.75,4.82,4.82,0,0,1,2.1-.47,3.87,3.87,0,0,1,3,1.12,4.27,4.27,0,0,1,1.08,3.1,7.28,7.28,0,0,1-.2,1.71,7.05,7.05,0,0,1-.59,1.62,13.1,13.1,0,0,1-1,1.69q-.6.87-3.06,4v.09h5.15Z"/><path d="M152.77,185H152v-5.62h-4V185h-.77V173.58H148v5.07h4v-5.07h.77Zm7.44,0h-4.14V173.58h4.14v.73h-3.38v4.34H160v.73h-3.19v4.89h3.38Zm7.13,0-1-4.14h-2.77l-1,4.14h-.8l2.75-11.42h.79L168.12,185Zm-1.19-4.91-1-4.26c-.11-.48-.19-.93-.25-1.36a10.66,10.66,0,0,1-.21,1.36l-1,4.26Zm9.7-.91c0,3.88-1.22,5.82-3.64,5.82h-2V173.58h2.08a2.94,2.94,0,0,1,2.67,1.43A7.77,7.77,0,0,1,175.85,179.18Zm-.81,0a7.69,7.69,0,0,0-.71-3.68,2.27,2.27,0,0,0-2.1-1.27H171v10h1.22a2.32,2.32,0,0,0,2.18-1.3A8.23,8.23,0,0,0,175,179.23Zm3.72,5.77V173.58h.77V185Zm10.08,0h-1l-4.32-10.24h-.07c.07.71.1,1.39.1,2V185h-.75V173.58h1l4.29,10.12h0c0-.85-.07-1.57-.07-2.14v-8h.75Zm7.06-5.76h2.5v5.41a7.37,7.37,0,0,1-2.71.51,3.3,3.3,0,0,1-2.9-1.57,7.77,7.77,0,0,1-1-4.33,7.54,7.54,0,0,1,1.06-4.31,3.45,3.45,0,0,1,3-1.54,4.48,4.48,0,0,1,2.45.74l-.37.67a3.87,3.87,0,0,0-2.08-.69,2.71,2.71,0,0,0-2.43,1.32,9.23,9.23,0,0,0,0,7.63,2.64,2.64,0,0,0,2.36,1.34,5.21,5.21,0,0,0,1.87-.29V180H195.9Zm13.45-3.12a3.39,3.39,0,0,1-.46,1.82A2.64,2.64,0,0,1,207.5,179v.06a2.36,2.36,0,0,1,1.49,1,3.09,3.09,0,0,1,.54,1.87,3.5,3.5,0,0,1-.76,2.37,2.53,2.53,0,0,1-2,.88,4.83,4.83,0,0,1-2.16-.42v-.84a4.25,4.25,0,0,0,2.16.57,1.76,1.76,0,0,0,1.48-.69,3,3,0,0,0,.53-1.9,2.51,2.51,0,0,0-.61-1.79,2.43,2.43,0,0,0-1.83-.64h-.58v-.72h.63A2.07,2.07,0,0,0,208,178a2.65,2.65,0,0,0,.63-1.84,2.36,2.36,0,0,0-.45-1.53,1.48,1.48,0,0,0-1.23-.56,2.5,2.5,0,0,0-1,.18,3.64,3.64,0,0,0-.95.67l-.48-.5a3.68,3.68,0,0,1,1.14-.79,3,3,0,0,1,1.24-.25,2.27,2.27,0,0,1,1.79.75A2.78,2.78,0,0,1,209.35,176.12Z"/><path d="M19.09,256H21a2.51,2.51,0,0,1,1.8.6,2.31,2.31,0,0,1,.64,1.78c0,1.35-.5,2.12-1.49,2.32v.05a2,2,0,0,1,1.28.77,2.82,2.82,0,0,1,.41,1.63,3.27,3.27,0,0,1-.59,2.09,2,2,0,0,1-1.67.75h-2.3Zm.67,4.45H21a1.54,1.54,0,0,0,1.33-.52,2.52,2.52,0,0,0,.41-1.57,1.77,1.77,0,0,0-.45-1.3,1.72,1.72,0,0,0-1.3-.45H19.76Zm0,.61v4.32H21.3c1.1,0,1.66-.75,1.66-2.25a2.23,2.23,0,0,0-.49-1.53,1.73,1.73,0,0,0-1.36-.54ZM32.83,261a7.86,7.86,0,0,1-.75,3.81,2.38,2.38,0,0,1-4.28,0,8.1,8.1,0,0,1-.73-3.82,8,8,0,0,1,.72-3.85,2.42,2.42,0,0,1,4.3.07A7.9,7.9,0,0,1,32.83,261Zm-5.07,0a8,8,0,0,0,.56,3.37,1.74,1.74,0,0,0,3.25,0,8,8,0,0,0,.56-3.38,7.87,7.87,0,0,0-.55-3.35A1.72,1.72,0,0,0,30,256.51a1.77,1.77,0,0,0-1.65,1.14A8.08,8.08,0,0,0,27.76,261Zm14-.08q0,5.08-3.17,5.09H36.79V256h1.82a2.56,2.56,0,0,1,2.33,1.25A6.72,6.72,0,0,1,41.74,260.91Zm-.7,0a6.76,6.76,0,0,0-.62-3.22,2,2,0,0,0-1.84-1.11H37.46v8.77h1.06a2,2,0,0,0,1.91-1.14A7.1,7.1,0,0,0,41,261ZM45.7,266V256h.67v10Zm8.58,0H50.65V256h3.63v.64h-3v3.79h2.79v.64H51.32v4.28h3Zm7.7-2.62a2.88,2.88,0,0,1-.69,2,2.24,2.24,0,0,1-1.73.76,4.56,4.56,0,0,1-1.93-.35v-.73a3.19,3.19,0,0,0,.89.32,5.25,5.25,0,0,0,1,.11,1.54,1.54,0,0,0,1.25-.58,2.18,2.18,0,0,0,.5-1.47,2.27,2.27,0,0,0-.35-1.32,3.78,3.78,0,0,0-1.34-1,5,5,0,0,1-1.15-.75,2.28,2.28,0,0,1-.57-.85,3.37,3.37,0,0,1-.18-1.16,2.79,2.79,0,0,1,.3-1.32,2.19,2.19,0,0,1,.84-.89,2.3,2.3,0,0,1,1.18-.32,4.19,4.19,0,0,1,1.05.13,4,4,0,0,1,.76.28l-.26.65a3.25,3.25,0,0,0-1.55-.4,1.55,1.55,0,0,0-1.2.51,1.87,1.87,0,0,0-.46,1.33,2.21,2.21,0,0,0,.33,1.3,3.92,3.92,0,0,0,1.32,1,3.7,3.7,0,0,1,1.47,1.15A2.64,2.64,0,0,1,62,263.38Z" fill="#8e8e8e"/><path d="M147.41,265V252.15h.86v12h3.62V265Zm12.39-4.79a7.26,7.26,0,0,1-.76,3.69,2.4,2.4,0,0,1-2.17,1.28,2.36,2.36,0,0,1-2.15-1.28,7.49,7.49,0,0,1-.74-3.69c0-3.29,1-4.93,2.92-4.93a2.37,2.37,0,0,1,2.14,1.29A7.2,7.2,0,0,1,159.8,260.21Zm-5,0a7.6,7.6,0,0,0,.5,3.12,1.61,1.61,0,0,0,1.53,1.06c1.37,0,2.05-1.4,2.05-4.18s-.68-4.14-2.05-4.14a1.62,1.62,0,0,0-1.55,1A7.68,7.68,0,0,0,154.85,260.21Zm10.6-4.93a2.73,2.73,0,0,1,.83.12l-.2.84a1.64,1.64,0,0,0-.65-.13,1.17,1.17,0,0,0-.9.5,3.29,3.29,0,0,0-.65,1.38,7.46,7.46,0,0,0-.24,2V265h-.84v-9.54h.69l.09,1.67h.06C164.08,255.9,164.69,255.28,165.45,255.28Zm5.88,9.9a2.61,2.61,0,0,1-2.33-1.29,6.75,6.75,0,0,1-.81-3.59,7.78,7.78,0,0,1,.72-3.73,2.3,2.3,0,0,1,2.1-1.29,2.11,2.11,0,0,1,1.87,1.13,5.8,5.8,0,0,1,.68,3v.78h-4.51a6.76,6.76,0,0,0,.59,3.12,1.85,1.85,0,0,0,1.73,1,3.77,3.77,0,0,0,1.89-.59v.8A3.6,3.6,0,0,1,171.33,265.18ZM171,256c-1.15,0-1.77,1.14-1.89,3.43h3.67a5.48,5.48,0,0,0-.48-2.5A1.45,1.45,0,0,0,171,256Zm13.75,9v-6.49c0-1.61-.47-2.4-1.41-2.4a1.46,1.46,0,0,0-1.4.84,5.69,5.69,0,0,0-.42,2.47V265h-.83v-6.49a3.73,3.73,0,0,0-.34-1.81,1.13,1.13,0,0,0-1.06-.59,1.42,1.42,0,0,0-1.38.86,6.57,6.57,0,0,0-.43,2.79V265h-.84v-9.54h.7l.08,1.33h.07a2,2,0,0,1,1.95-1.51,1.76,1.76,0,0,1,1.24.42,2.35,2.35,0,0,1,.66,1.23,2.81,2.81,0,0,1,.85-1.26,2,2,0,0,1,1.3-.39,1.71,1.71,0,0,1,1.58.83,5.42,5.42,0,0,1,.5,2.66V265Zm9.38,0h-.84v-9.54h.84Zm-1-12.18a1,1,0,0,1,.16-.62.52.52,0,0,1,.42-.22.44.44,0,0,1,.38.22,1.19,1.19,0,0,1,.14.62,1.22,1.22,0,0,1-.14.61.44.44,0,0,1-.38.22.52.52,0,0,1-.42-.22A1,1,0,0,1,193.12,252.82Zm7.48,12.36a2.33,2.33,0,0,1-1.31-.4,2.57,2.57,0,0,1-.9-1.1h-.08l.06,1.05v4.59h-.83V255.46h.68l.09,1.31h.08a2.69,2.69,0,0,1,.9-1.1,2,2,0,0,1,1.2-.39c1.86,0,2.8,1.64,2.8,4.93a7.91,7.91,0,0,1-.69,3.67A2.17,2.17,0,0,1,200.6,265.18Zm-.16-9.11a1.68,1.68,0,0,0-1.56.92,6.26,6.26,0,0,0-.51,2.9v.27a7.52,7.52,0,0,0,.52,3.23,1.67,1.67,0,0,0,1.58,1,1.54,1.54,0,0,0,1.46-1,8,8,0,0,0,.48-3.19,8.18,8.18,0,0,0-.44-3.1A1.57,1.57,0,0,0,200.44,256.07Zm9.6,6.54a2.7,2.7,0,0,1-.63,1.89,2.4,2.4,0,0,1-1.83.68,3.62,3.62,0,0,1-1.15-.17,3,3,0,0,1-.76-.37v-1a2.37,2.37,0,0,0,.86.53,3.24,3.24,0,0,0,1.1.2,1.47,1.47,0,0,0,1.16-.49,1.89,1.89,0,0,0,.42-1.29,1.73,1.73,0,0,0-.31-1.06,3.87,3.87,0,0,0-1.15-1,8.25,8.25,0,0,1-1.33-1,2.89,2.89,0,0,1-.56-.83,3,3,0,0,1-.19-1.09,2.22,2.22,0,0,1,.7-1.69,2.42,2.42,0,0,1,1.76-.68,3.3,3.3,0,0,1,1.93.54l-.43.73a2.71,2.71,0,0,0-1.53-.48,1.59,1.59,0,0,0-1.18.44,1.54,1.54,0,0,0-.44,1.14,1.85,1.85,0,0,0,.3,1.07,4.63,4.63,0,0,0,1.26,1,7.51,7.51,0,0,1,1.31,1,2.35,2.35,0,0,1,.51.82A2.8,2.8,0,0,1,210,262.61Zm3.63-7.15v6.23a4.62,4.62,0,0,0,.34,2.06,1.1,1.1,0,0,0,1,.65,1.69,1.69,0,0,0,1.58-.87,5.88,5.88,0,0,0,.51-2.83v-5.24H218V265h-.7l-.11-1.34h-.07a2.61,2.61,0,0,1-.85,1.13,2,2,0,0,1-1.19.39,1.87,1.87,0,0,1-1.68-.82,5,5,0,0,1-.53-2.67v-6.23ZM229.52,265v-6.49c0-1.61-.47-2.4-1.4-2.4a1.46,1.46,0,0,0-1.4.84,5.69,5.69,0,0,0-.42,2.47V265h-.83v-6.49a3.73,3.73,0,0,0-.34-1.81,1.14,1.14,0,0,0-1.07-.59,1.44,1.44,0,0,0-1.38.86,6.73,6.73,0,0,0-.43,2.79V265h-.83v-9.54h.7l.07,1.33h.08a2,2,0,0,1,1.94-1.51,1.77,1.77,0,0,1,1.25.42,2.35,2.35,0,0,1,.66,1.23,2.89,2.89,0,0,1,.84-1.26,2.08,2.08,0,0,1,1.31-.39,1.72,1.72,0,0,1,1.58.83,5.42,5.42,0,0,1,.5,2.66V265Zm10.88.18q-2.78,0-2.78-4.94a7.9,7.9,0,0,1,.7-3.69,2.2,2.2,0,0,1,2.05-1.27,2.17,2.17,0,0,1,1.21.37,2.6,2.6,0,0,1,.92,1h.07l0-1.07v-4.28h.83V265h-.68l-.07-1.34h-.08a2.93,2.93,0,0,1-.89,1.13A2.09,2.09,0,0,1,240.4,265.18Zm0-.73a1.69,1.69,0,0,0,1.54-.93,5.41,5.41,0,0,0,.55-2.73v-.55a7.14,7.14,0,0,0-.53-3.16,1.7,1.7,0,0,0-1.59-1,1.53,1.53,0,0,0-1.48,1.08,8.38,8.38,0,0,0-.45,3.11,8.11,8.11,0,0,0,.47,3.12A1.56,1.56,0,0,0,240.45,264.45Zm11.75-4.24a7.14,7.14,0,0,1-.77,3.69,2.45,2.45,0,0,1-4.31,0,7.49,7.49,0,0,1-.74-3.69q0-4.93,2.92-4.93a2.36,2.36,0,0,1,2.13,1.29A7.09,7.09,0,0,1,252.2,260.21Zm-4.95,0a7.8,7.8,0,0,0,.49,3.12,1.64,1.64,0,0,0,1.54,1.06c1.37,0,2.05-1.4,2.05-4.18s-.68-4.14-2.05-4.14a1.62,1.62,0,0,0-1.55,1A7.68,7.68,0,0,0,247.25,260.21ZM256,265h-.84V251.32H256Zm8.82-4.79a7.26,7.26,0,0,1-.76,3.69,2.46,2.46,0,0,1-4.32,0,7.5,7.5,0,0,1-.73-3.69q0-4.93,2.91-4.93a2.37,2.37,0,0,1,2.14,1.29A7.2,7.2,0,0,1,264.86,260.21Zm-4.94,0a7.62,7.62,0,0,0,.49,3.12,1.62,1.62,0,0,0,1.54,1.06c1.36,0,2-1.4,2-4.18s-.68-4.14-2-4.14a1.62,1.62,0,0,0-1.56,1A7.71,7.71,0,0,0,259.92,260.21Zm10.59-4.93a2.73,2.73,0,0,1,.83.12l-.2.84a1.64,1.64,0,0,0-.65-.13,1.17,1.17,0,0,0-.9.5,3.29,3.29,0,0,0-.65,1.38,7.46,7.46,0,0,0-.24,2V265h-.84v-9.54h.69l.09,1.67h.06C269.14,255.9,269.75,255.28,270.51,255.28Zm11.21,7.33a2.7,2.7,0,0,1-.63,1.89,2.38,2.38,0,0,1-1.83.68,3.6,3.6,0,0,1-1.14-.17,3.07,3.07,0,0,1-.77-.37v-1a2.33,2.33,0,0,0,.87.53,3.14,3.14,0,0,0,1.09.2,1.46,1.46,0,0,0,1.16-.49,1.85,1.85,0,0,0,.43-1.29,1.8,1.8,0,0,0-.31-1.06,4,4,0,0,0-1.15-1,8.45,8.45,0,0,1-1.34-1,2.86,2.86,0,0,1-.55-.83,2.75,2.75,0,0,1-.2-1.09,2.25,2.25,0,0,1,.7-1.69,2.43,2.43,0,0,1,1.77-.68,3.29,3.29,0,0,1,1.92.54l-.43.73a2.71,2.71,0,0,0-1.53-.48,1.61,1.61,0,0,0-1.18.44,1.54,1.54,0,0,0-.44,1.14,1.85,1.85,0,0,0,.3,1.07,4.56,4.56,0,0,0,1.27,1,7.75,7.75,0,0,1,1.3,1,2.54,2.54,0,0,1,.52.82A3,3,0,0,1,281.72,262.61Zm3.67,2.39h-.83v-9.54h.83Zm-1-12.18a1.09,1.09,0,0,1,.16-.62A.52.52,0,0,1,285,252a.44.44,0,0,1,.38.22,1.19,1.19,0,0,1,.14.62,1.22,1.22,0,0,1-.14.61.44.44,0,0,1-.38.22.52.52,0,0,1-.42-.22A1.13,1.13,0,0,1,284.43,252.82Zm6.17,11.58a2,2,0,0,0,.68-.1v.7a2.37,2.37,0,0,1-1,.18c-1,0-1.48-.74-1.48-2.21V256.2H288v-.49l.85-.25.27-2.26h.58v2.26h1.51v.74h-1.51v6.53a2.82,2.82,0,0,0,.21,1.32A.78.78,0,0,0,290.6,264.4Zm11.09.6-.11-1.34h0a2.22,2.22,0,0,1-2.08,1.52,1.81,1.81,0,0,1-1.5-.74,3.29,3.29,0,0,1-.56-2,2.83,2.83,0,0,1,.82-2.15,3.38,3.38,0,0,1,2.29-.87l1-.05v-.79a4.15,4.15,0,0,0-.34-1.95,1.15,1.15,0,0,0-1.1-.61,3.15,3.15,0,0,0-1.67.53l-.36-.65a3.79,3.79,0,0,1,2.08-.62,1.93,1.93,0,0,1,1.7.75,4.52,4.52,0,0,1,.51,2.48V265Zm-2-.54a1.52,1.52,0,0,0,1.39-.88,5.17,5.17,0,0,0,.5-2.5v-1l-1,.05a2.46,2.46,0,0,0-1.71.64,2.31,2.31,0,0,0-.55,1.68,2.56,2.56,0,0,0,.36,1.52A1.22,1.22,0,0,0,299.66,264.46Zm14.23.54v-6.49c0-1.61-.47-2.4-1.41-2.4a1.45,1.45,0,0,0-1.39.84,5.54,5.54,0,0,0-.42,2.47V265h-.83v-6.49a3.85,3.85,0,0,0-.34-1.81,1.14,1.14,0,0,0-1.07-.59,1.44,1.44,0,0,0-1.38.86,6.73,6.73,0,0,0-.43,2.79V265h-.83v-9.54h.7l.07,1.33h.08a2,2,0,0,1,1.94-1.51,1.78,1.78,0,0,1,1.25.42,2.42,2.42,0,0,1,.66,1.23,2.89,2.89,0,0,1,.84-1.26,2.07,2.07,0,0,1,1.3-.39,1.74,1.74,0,0,1,1.59.83,5.42,5.42,0,0,1,.5,2.66V265Zm7,.18a2.6,2.6,0,0,1-2.33-1.29,6.75,6.75,0,0,1-.81-3.59,7.78,7.78,0,0,1,.72-3.73,2.28,2.28,0,0,1,2.09-1.29,2.1,2.1,0,0,1,1.87,1.13,5.8,5.8,0,0,1,.69,3v.78h-4.52a6.76,6.76,0,0,0,.59,3.12,1.86,1.86,0,0,0,1.73,1,3.74,3.74,0,0,0,1.89-.59v.8A3.59,3.59,0,0,1,320.86,265.18Zm-.38-9.14c-1.15,0-1.78,1.14-1.89,3.43h3.66a5.48,5.48,0,0,0-.48-2.5A1.44,1.44,0,0,0,320.48,256Zm7.38,8.36a2.09,2.09,0,0,0,.69-.1v.7a2.37,2.37,0,0,1-1,.18c-1,0-1.48-.74-1.48-2.21V256.2h-.86v-.49l.84-.25.27-2.26h.58v2.26h1.52v.74h-1.52v6.53a2.82,2.82,0,0,0,.21,1.32A.79.79,0,0,0,327.86,264.4Zm4.53-1a28.66,28.66,0,0,1-1.46,3.92h-.55a25.31,25.31,0,0,0,.88-4.12h1Zm9.93,1.78a2.38,2.38,0,0,1-2.16-1.24,7.47,7.47,0,0,1-.72-3.66,7.58,7.58,0,0,1,.73-3.72,2.37,2.37,0,0,1,2.17-1.28,3.15,3.15,0,0,1,1.48.32l-.33.74a2.6,2.6,0,0,0-1.08-.27q-2.1,0-2.1,4.19t2.1,4.16a3.67,3.67,0,0,0,1.35-.28v.7a2.45,2.45,0,0,1-.71.25A3.53,3.53,0,0,1,342.32,265.18Zm9.41-5a7.26,7.26,0,0,1-.76,3.69,2.4,2.4,0,0,1-2.17,1.28,2.36,2.36,0,0,1-2.15-1.28,7.49,7.49,0,0,1-.74-3.69c0-3.29,1-4.93,2.92-4.93a2.38,2.38,0,0,1,2.14,1.29A7.2,7.2,0,0,1,351.73,260.21Zm-5,0a7.8,7.8,0,0,0,.49,3.12,1.64,1.64,0,0,0,1.54,1.06c1.37,0,2.05-1.4,2.05-4.18s-.68-4.14-2.05-4.14a1.62,1.62,0,0,0-1.55,1A7.68,7.68,0,0,0,346.78,260.21ZM359,265v-6.57c0-1.59-.47-2.38-1.41-2.38a1.68,1.68,0,0,0-1.57.89,6.06,6.06,0,0,0-.49,2.82V265h-.84v-9.54h.7l.08,1.33h.07a2.44,2.44,0,0,1,.87-1.11,2,2,0,0,1,1.2-.4,1.93,1.93,0,0,1,1.66.75,4,4,0,0,1,.55,2.38V265Zm8-2.39a2.7,2.7,0,0,1-.63,1.89,2.38,2.38,0,0,1-1.83.68,3.6,3.6,0,0,1-1.14-.17,3.07,3.07,0,0,1-.77-.37v-1a2.33,2.33,0,0,0,.87.53,3.14,3.14,0,0,0,1.09.2,1.46,1.46,0,0,0,1.16-.49,1.89,1.89,0,0,0,.43-1.29,1.8,1.8,0,0,0-.31-1.06,4.15,4.15,0,0,0-1.15-1,8.45,8.45,0,0,1-1.34-1,2.86,2.86,0,0,1-.55-.83,2.75,2.75,0,0,1-.2-1.09,2.25,2.25,0,0,1,.7-1.69,2.42,2.42,0,0,1,1.76-.68,3.3,3.3,0,0,1,1.93.54l-.43.73a2.71,2.71,0,0,0-1.53-.48,1.62,1.62,0,0,0-1.18.44,1.54,1.54,0,0,0-.44,1.14,1.85,1.85,0,0,0,.3,1.07,4.56,4.56,0,0,0,1.27,1,7.75,7.75,0,0,1,1.3,1,2.54,2.54,0,0,1,.52.82A3,3,0,0,1,367,262.61Zm5.54,2.57a2.61,2.61,0,0,1-2.33-1.29,6.84,6.84,0,0,1-.81-3.59,7.77,7.77,0,0,1,.73-3.73,2.28,2.28,0,0,1,2.09-1.29,2.11,2.11,0,0,1,1.87,1.13,5.8,5.8,0,0,1,.69,3v.78h-4.52a6.76,6.76,0,0,0,.59,3.12,1.85,1.85,0,0,0,1.73,1,3.74,3.74,0,0,0,1.89-.59v.8A3.6,3.6,0,0,1,372.56,265.18Zm-.38-9.14c-1.14,0-1.77,1.14-1.88,3.43H374a5.48,5.48,0,0,0-.48-2.5A1.45,1.45,0,0,0,372.18,256Zm8.09,9.14a2.38,2.38,0,0,1-2.16-1.24,7.47,7.47,0,0,1-.72-3.66,7.7,7.7,0,0,1,.73-3.72,2.37,2.37,0,0,1,2.17-1.28,3.12,3.12,0,0,1,1.48.32l-.33.74a2.6,2.6,0,0,0-1.08-.27q-2.1,0-2.1,4.19t2.1,4.16a3.76,3.76,0,0,0,1.36-.28v.7a2.53,2.53,0,0,1-.72.25A3.53,3.53,0,0,1,380.27,265.18Zm5.79-.78a2.09,2.09,0,0,0,.69-.1v.7a2.39,2.39,0,0,1-1,.18c-1,0-1.47-.74-1.47-2.21V256.2h-.86v-.49l.84-.25.27-2.26h.58v2.26h1.51v.74h-1.51v6.53a2.82,2.82,0,0,0,.21,1.32A.78.78,0,0,0,386.06,264.4Zm5.81.78a2.59,2.59,0,0,1-2.32-1.29,6.75,6.75,0,0,1-.81-3.59,7.78,7.78,0,0,1,.72-3.73,2.28,2.28,0,0,1,2.09-1.29,2.11,2.11,0,0,1,1.87,1.13,5.8,5.8,0,0,1,.69,3v.78h-4.52a6.76,6.76,0,0,0,.59,3.12,1.86,1.86,0,0,0,1.73,1,3.74,3.74,0,0,0,1.89-.59v.8A3.6,3.6,0,0,1,391.87,265.18ZM391.5,256c-1.15,0-1.78,1.14-1.89,3.43h3.66a5.48,5.48,0,0,0-.48-2.5A1.44,1.44,0,0,0,391.5,256Zm7.38,8.36a2.09,2.09,0,0,0,.69-.1v.7a2.37,2.37,0,0,1-1,.18c-1,0-1.48-.74-1.48-2.21V256.2h-.86v-.49l.84-.25.27-2.26h.58v2.26h1.52v.74h-1.52v6.53a2.82,2.82,0,0,0,.21,1.32A.79.79,0,0,0,398.88,264.4Zm3.91-8.94v6.23a4.79,4.79,0,0,0,.33,2.06,1.11,1.11,0,0,0,1.05.65,1.69,1.69,0,0,0,1.58-.87,5.88,5.88,0,0,0,.51-2.83v-5.24h.83V265h-.71l-.1-1.34h-.07a2.69,2.69,0,0,1-.85,1.13,2,2,0,0,1-1.19.39,1.89,1.89,0,0,1-1.69-.82,5.14,5.14,0,0,1-.53-2.67v-6.23Zm10.39-.18a2.84,2.84,0,0,1,.84.12l-.21.84a1.61,1.61,0,0,0-.65-.13,1.17,1.17,0,0,0-.9.5,3.41,3.41,0,0,0-.65,1.38,7.46,7.46,0,0,0-.24,2V265h-.83v-9.54h.68l.09,1.67h.06C411.82,255.9,412.42,255.28,413.18,255.28ZM424.34,265l-.11-1.34h0a2.22,2.22,0,0,1-2.07,1.52,1.83,1.83,0,0,1-1.51-.74,3.29,3.29,0,0,1-.56-2,2.83,2.83,0,0,1,.82-2.15,3.4,3.4,0,0,1,2.29-.87l1-.05v-.79a4.3,4.3,0,0,0-.33-1.95,1.17,1.17,0,0,0-1.11-.61,3.18,3.18,0,0,0-1.67.53l-.36-.65a3.79,3.79,0,0,1,2.08-.62,1.92,1.92,0,0,1,1.7.75,4.51,4.51,0,0,1,.52,2.48V265Zm-2-.54a1.52,1.52,0,0,0,1.39-.88,5.17,5.17,0,0,0,.5-2.5v-1l-1,.05a2.48,2.48,0,0,0-1.72.64,2.31,2.31,0,0,0-.55,1.68,2.48,2.48,0,0,0,.37,1.52A1.19,1.19,0,0,0,422.31,264.46Zm8.46.72q-2.77,0-2.78-4.94a7.77,7.77,0,0,1,.7-3.69,2.25,2.25,0,0,1,3.26-.9,2.68,2.68,0,0,1,.92,1h.07l0-1.07v-4.28h.84V265h-.69l-.07-1.34h-.08a2.82,2.82,0,0,1-.88,1.13A2.11,2.11,0,0,1,430.77,265.18Zm.05-.73a1.69,1.69,0,0,0,1.54-.93,5.53,5.53,0,0,0,.54-2.73v-.55a7.16,7.16,0,0,0-.52-3.16,1.7,1.7,0,0,0-1.59-1,1.53,1.53,0,0,0-1.48,1.08,8.38,8.38,0,0,0-.45,3.11,8.11,8.11,0,0,0,.47,3.12A1.56,1.56,0,0,0,430.82,264.45ZM438,265h-.83v-9.54H438Zm-1-12.18a1.09,1.09,0,0,1,.16-.62.52.52,0,0,1,.42-.22.44.44,0,0,1,.38.22,1.1,1.1,0,0,1,.14.62,1.13,1.13,0,0,1-.14.61.44.44,0,0,1-.38.22.52.52,0,0,1-.42-.22A1.13,1.13,0,0,1,437.07,252.82Zm7.49,12.36a2.38,2.38,0,0,1-1.32-.4,2.64,2.64,0,0,1-.9-1.1h-.08l.07,1.05v4.59h-.84V255.46h.69l.08,1.31h.08a2.86,2.86,0,0,1,.9-1.1,2,2,0,0,1,1.2-.39q2.81,0,2.8,4.93a7.91,7.91,0,0,1-.69,3.67A2.16,2.16,0,0,1,444.56,265.18Zm-.17-9.11a1.68,1.68,0,0,0-1.56.92,6.28,6.28,0,0,0-.5,2.9v.27a7.7,7.7,0,0,0,.51,3.23,1.69,1.69,0,0,0,1.59,1,1.55,1.55,0,0,0,1.46-1,8,8,0,0,0,.48-3.19,8.14,8.14,0,0,0-.45-3.1A1.57,1.57,0,0,0,444.39,256.07Zm6.69,8.93h-.83v-9.54h.83Zm-1-12.18a1.09,1.09,0,0,1,.16-.62.54.54,0,0,1,.42-.22.44.44,0,0,1,.38.22,1.1,1.1,0,0,1,.14.62,1.13,1.13,0,0,1-.14.61.44.44,0,0,1-.38.22.54.54,0,0,1-.42-.22A1.13,1.13,0,0,1,450.12,252.82Zm8.16,9.79a2.7,2.7,0,0,1-.63,1.89,2.38,2.38,0,0,1-1.83.68,3.6,3.6,0,0,1-1.14-.17,2.83,2.83,0,0,1-.76-.37v-1a2.21,2.21,0,0,0,.86.53,3.19,3.19,0,0,0,1.1.2,1.47,1.47,0,0,0,1.16-.49,1.89,1.89,0,0,0,.42-1.29,1.73,1.73,0,0,0-.31-1.06,4,4,0,0,0-1.15-1,8.45,8.45,0,0,1-1.34-1,2.86,2.86,0,0,1-.55-.83,2.76,2.76,0,0,1-.19-1.09,2.25,2.25,0,0,1,.69-1.69,2.43,2.43,0,0,1,1.77-.68,3.27,3.27,0,0,1,1.92.54l-.43.73a2.71,2.71,0,0,0-1.53-.48,1.62,1.62,0,0,0-1.18.44,1.54,1.54,0,0,0-.43,1.14,1.84,1.84,0,0,0,.29,1.07,4.56,4.56,0,0,0,1.27,1,7.34,7.34,0,0,1,1.3,1,2.38,2.38,0,0,1,.52.82A2.8,2.8,0,0,1,458.28,262.61Zm5.29,2.57a2.35,2.35,0,0,1-2.16-1.24,7.47,7.47,0,0,1-.72-3.66,7.58,7.58,0,0,1,.73-3.72,2.36,2.36,0,0,1,2.17-1.28,3.08,3.08,0,0,1,1.47.32l-.32.74a2.6,2.6,0,0,0-1.08-.27q-2.1,0-2.1,4.19t2.1,4.16a3.75,3.75,0,0,0,1.35-.28v.7a2.45,2.45,0,0,1-.71.25A3.61,3.61,0,0,1,463.57,265.18Zm4.87-.18h-.83v-9.54h.83Zm-1-12.18a1.09,1.09,0,0,1,.16-.62.53.53,0,0,1,.43-.22.44.44,0,0,1,.37.22,1.1,1.1,0,0,1,.14.62,1.13,1.13,0,0,1-.14.61.44.44,0,0,1-.37.22.53.53,0,0,1-.43-.22A1.13,1.13,0,0,1,467.48,252.82ZM476.21,265v-6.57c0-1.59-.47-2.38-1.41-2.38a1.68,1.68,0,0,0-1.57.89,6,6,0,0,0-.5,2.82V265h-.83v-9.54h.7l.07,1.33h.08a2.49,2.49,0,0,1,.86-1.11,2,2,0,0,1,1.21-.4,1.93,1.93,0,0,1,1.66.75,4,4,0,0,1,.55,2.38V265Zm9.23-9.54v.59l-1.3.15a2.87,2.87,0,0,1,.43,1,5.09,5.09,0,0,1,.17,1.3,3.75,3.75,0,0,1-.64,2.25,1.94,1.94,0,0,1-1.65.86h-.21l-.19,0a3.28,3.28,0,0,0-.66.6,1.07,1.07,0,0,0-.24.69.76.76,0,0,0,.32.64,1.5,1.5,0,0,0,.85.22h.6a2.76,2.76,0,0,1,2,.66,2.46,2.46,0,0,1,.71,1.9,2.8,2.8,0,0,1-1,2.22,3.69,3.69,0,0,1-2.49.81,2.84,2.84,0,0,1-2-.65,2.49,2.49,0,0,1-.69-1.89,2.52,2.52,0,0,1,.46-1.53,3,3,0,0,1,1.43-1,1.82,1.82,0,0,1-.71-.53,1.28,1.28,0,0,1-.27-.82,1.17,1.17,0,0,1,.28-.76,4.72,4.72,0,0,1,.82-.73,2.35,2.35,0,0,1-1.1-1.08,3.9,3.9,0,0,1-.37-1.76,4,4,0,0,1,.64-2.4,2,2,0,0,1,1.76-.88,2.48,2.48,0,0,1,1,.18Zm-5.13,11.25a2,2,0,0,0,.46,1.42,1.86,1.86,0,0,0,1.43.51,2.7,2.7,0,0,0,1.86-.62,2.14,2.14,0,0,0,.69-1.68,1.8,1.8,0,0,0-.47-1.34,1.86,1.86,0,0,0-1.36-.47h-.62a1.89,1.89,0,0,0-1.43.6A2.22,2.22,0,0,0,480.31,266.71Zm.52-8.13a3,3,0,0,0,.43,1.77,1.32,1.32,0,0,0,1.14.6q1.53,0,1.53-2.46a3.62,3.62,0,0,0-.4-1.86,1.24,1.24,0,0,0-1.13-.67,1.28,1.28,0,0,0-1.17.69A3.83,3.83,0,0,0,480.83,258.58Zm14,6.6a2.6,2.6,0,0,1-2.33-1.29,6.75,6.75,0,0,1-.81-3.59,7.78,7.78,0,0,1,.72-3.73,2.29,2.29,0,0,1,2.09-1.29,2.12,2.12,0,0,1,1.88,1.13,5.9,5.9,0,0,1,.68,3v.78h-4.52a6.76,6.76,0,0,0,.59,3.12,1.86,1.86,0,0,0,1.73,1,3.74,3.74,0,0,0,1.89-.59v.8A3.59,3.59,0,0,1,494.87,265.18Zm-.38-9.14c-1.15,0-1.78,1.14-1.89,3.43h3.67a5.47,5.47,0,0,0-.49-2.5A1.43,1.43,0,0,0,494.49,256Zm6.47,9h-.83V251.32H501Zm4.3,0h-.84v-9.54h.84Zm-1-12.18a1.09,1.09,0,0,1,.15-.62.55.55,0,0,1,.43-.22.45.45,0,0,1,.38.22,1.19,1.19,0,0,1,.13.62,1.23,1.23,0,0,1-.13.61.45.45,0,0,1-.38.22.55.55,0,0,1-.43-.22A1.13,1.13,0,0,1,504.3,252.82Zm6.16,11.58a2.09,2.09,0,0,0,.69-.1v.7a2.39,2.39,0,0,1-1,.18c-1,0-1.47-.74-1.47-2.21V256.2h-.86v-.49l.84-.25.27-2.26h.58v2.26H511v.74h-1.51v6.53a2.82,2.82,0,0,0,.21,1.32A.78.78,0,0,0,510.46,264.4Zm3-.19c0-.63.23-.94.69-.94a.63.63,0,0,1,.48.21,1,1,0,0,1,.2.73,1,1,0,0,1-.2.72.63.63,0,0,1-.48.21Q513.46,265.14,513.46,264.21Zm9.14.79V252.15h.86V265Zm8.13,0-.1-1.34h0a2.2,2.2,0,0,1-2.07,1.52,1.81,1.81,0,0,1-1.5-.74,3.23,3.23,0,0,1-.57-2,2.87,2.87,0,0,1,.82-2.15,3.43,3.43,0,0,1,2.3-.87l1-.05v-.79a4.3,4.3,0,0,0-.33-1.95,1.15,1.15,0,0,0-1.11-.61,3.2,3.2,0,0,0-1.67.53l-.36-.65a3.83,3.83,0,0,1,2.09-.62,1.91,1.91,0,0,1,1.69.75,4.42,4.42,0,0,1,.52,2.48V265Zm-2-.54a1.52,1.52,0,0,0,1.39-.88,5.05,5.05,0,0,0,.5-2.5v-1l-1,.05a2.44,2.44,0,0,0-1.71.64,2.32,2.32,0,0,0-.56,1.68,2.55,2.55,0,0,0,.37,1.52A1.2,1.2,0,0,0,528.7,264.46Zm8.59.72a2.38,2.38,0,0,1-2.17-1.24,7.47,7.47,0,0,1-.72-3.66,7.7,7.7,0,0,1,.73-3.72,2.37,2.37,0,0,1,2.17-1.28,3.09,3.09,0,0,1,1.48.32l-.33.74a2.6,2.6,0,0,0-1.08-.27q-2.1,0-2.1,4.19t2.1,4.16a3.76,3.76,0,0,0,1.36-.28v.7a2.57,2.57,0,0,1-.71.25A3.69,3.69,0,0,1,537.29,265.18Zm4.83-9.72v6.23a4.62,4.62,0,0,0,.34,2.06,1.1,1.1,0,0,0,1,.65,1.71,1.71,0,0,0,1.59-.87,6,6,0,0,0,.5-2.83v-5.24h.83V265h-.7l-.11-1.34h-.07a2.61,2.61,0,0,1-.85,1.13,2,2,0,0,1-1.19.39,1.86,1.86,0,0,1-1.68-.82,5,5,0,0,1-.53-2.67v-6.23Zm8.59,9.54h-.84V251.32h.84Zm4.29,0h-.84v-9.54H555Zm-1-12.18a1,1,0,0,1,.16-.62.52.52,0,0,1,.42-.22.45.45,0,0,1,.38.22,1.19,1.19,0,0,1,.14.62,1.22,1.22,0,0,1-.14.61.45.45,0,0,1-.38.22.52.52,0,0,1-.42-.22A1,1,0,0,1,554,252.82Zm8.16,9.79a2.7,2.7,0,0,1-.63,1.89,2.41,2.41,0,0,1-1.83.68,3.51,3.51,0,0,1-1.14-.17,2.91,2.91,0,0,1-.77-.37v-1a2.37,2.37,0,0,0,.86.53,3.24,3.24,0,0,0,1.1.2,1.47,1.47,0,0,0,1.16-.49,1.89,1.89,0,0,0,.42-1.29,1.79,1.79,0,0,0-.3-1.06,4.08,4.08,0,0,0-1.16-1,8.25,8.25,0,0,1-1.33-1,2.89,2.89,0,0,1-.56-.83,3,3,0,0,1-.19-1.09,2.22,2.22,0,0,1,.7-1.69,2.42,2.42,0,0,1,1.76-.68,3.3,3.3,0,0,1,1.93.54l-.43.73a2.73,2.73,0,0,0-1.53-.48,1.59,1.59,0,0,0-1.18.44,1.54,1.54,0,0,0-.44,1.14,1.85,1.85,0,0,0,.3,1.07,4.63,4.63,0,0,0,1.26,1,7.51,7.51,0,0,1,1.31,1,2.35,2.35,0,0,1,.51.82A2.8,2.8,0,0,1,562.2,262.61Zm8,2.39h-.83V251.32h.83Zm8.83-4.79a7.25,7.25,0,0,1-.77,3.69,2.45,2.45,0,0,1-4.31,0,7.49,7.49,0,0,1-.74-3.69q0-4.93,2.92-4.93a2.37,2.37,0,0,1,2.13,1.29A7.19,7.19,0,0,1,579,260.21Zm-5,0a7.62,7.62,0,0,0,.49,3.12,1.63,1.63,0,0,0,1.54,1.06c1.36,0,2-1.4,2-4.18s-.69-4.14-2-4.14a1.63,1.63,0,0,0-1.56,1A7.89,7.89,0,0,0,574,260.21Zm10.9-4.91c1.86,0,2.8,1.63,2.8,4.91a7.79,7.79,0,0,1-.7,3.7,2.22,2.22,0,0,1-3.25.89,2.75,2.75,0,0,1-.93-1.12h-.07l-.12,1.32H582V251.32h.83v4.25l0,1.15h.07A2.3,2.3,0,0,1,584.94,255.3Zm0,.77a1.64,1.64,0,0,0-1.59,1,7.39,7.39,0,0,0-.5,3.17v.22q0,4,2.12,4a1.52,1.52,0,0,0,1.44-1,7.69,7.69,0,0,0,.49-3.18,7.89,7.89,0,0,0-.47-3.1A1.56,1.56,0,0,0,584.91,256.07Zm11.21,4.14a7.25,7.25,0,0,1-.77,3.69,2.39,2.39,0,0,1-2.17,1.28A2.35,2.35,0,0,1,591,263.9a7.38,7.38,0,0,1-.74-3.69q0-4.93,2.92-4.93a2.37,2.37,0,0,1,2.13,1.29A7.19,7.19,0,0,1,596.12,260.21Zm-5,0a7.62,7.62,0,0,0,.49,3.12,1.63,1.63,0,0,0,1.54,1.06c1.36,0,2-1.4,2-4.18s-.69-4.14-2-4.14a1.63,1.63,0,0,0-1.56,1A7.89,7.89,0,0,0,591.17,260.21Zm10.59-4.93a2.84,2.84,0,0,1,.84.12l-.2.84a1.69,1.69,0,0,0-.66-.13,1.17,1.17,0,0,0-.9.5,3.41,3.41,0,0,0-.65,1.38,7.46,7.46,0,0,0-.24,2V265h-.83v-9.54h.68l.09,1.67H600C600.4,255.9,601,255.28,601.76,255.28Zm4.93,9.12a2,2,0,0,0,.68-.1v.7a2.37,2.37,0,0,1-1,.18c-1,0-1.48-.74-1.48-2.21V256.2H604v-.49l.85-.25.27-2.26h.58v2.26h1.51v.74h-1.51v6.53a2.82,2.82,0,0,0,.21,1.32A.78.78,0,0,0,606.69,264.4Zm3.94.6h-.84v-9.54h.84Zm-1-12.18a1,1,0,0,1,.16-.62.52.52,0,0,1,.42-.22.45.45,0,0,1,.38.22,1.19,1.19,0,0,1,.14.62,1.22,1.22,0,0,1-.14.61.45.45,0,0,1-.38.22.52.52,0,0,1-.42-.22A1,1,0,0,1,609.67,252.82Zm8.16,9.79a2.7,2.7,0,0,1-.63,1.89,2.38,2.38,0,0,1-1.83.68,3.55,3.55,0,0,1-1.14-.17,2.91,2.91,0,0,1-.77-.37v-1a2.37,2.37,0,0,0,.86.53,3.24,3.24,0,0,0,1.1.2,1.47,1.47,0,0,0,1.16-.49,1.89,1.89,0,0,0,.42-1.29,1.79,1.79,0,0,0-.3-1.06,4.08,4.08,0,0,0-1.16-1,8.75,8.75,0,0,1-1.33-1,2.67,2.67,0,0,1-.55-.83,2.75,2.75,0,0,1-.2-1.09,2.22,2.22,0,0,1,.7-1.69,2.42,2.42,0,0,1,1.76-.68,3.3,3.3,0,0,1,1.93.54l-.43.73a2.71,2.71,0,0,0-1.53-.48,1.61,1.61,0,0,0-1.18.44,1.54,1.54,0,0,0-.44,1.14,1.85,1.85,0,0,0,.3,1.07,4.56,4.56,0,0,0,1.27,1,7.75,7.75,0,0,1,1.3,1,2.35,2.35,0,0,1,.51.82A2.8,2.8,0,0,1,617.83,262.61Zm8,2.39H625V251.32h.83Zm8.83-4.79a7.25,7.25,0,0,1-.77,3.69,2.45,2.45,0,0,1-4.31,0,7.49,7.49,0,0,1-.74-3.69q0-4.93,2.92-4.93a2.37,2.37,0,0,1,2.13,1.29A7.19,7.19,0,0,1,634.62,260.21Zm-5,0a7.8,7.8,0,0,0,.49,3.12,1.63,1.63,0,0,0,1.54,1.06c1.37,0,2-1.4,2-4.18s-.68-4.14-2-4.14a1.62,1.62,0,0,0-1.55,1A7.68,7.68,0,0,0,629.67,260.21Zm10.6-4.93a2.82,2.82,0,0,1,.83.12l-.2.84a1.64,1.64,0,0,0-.65-.13,1.17,1.17,0,0,0-.91.5,3.55,3.55,0,0,0-.65,1.38,7.48,7.48,0,0,0-.23,2V265h-.84v-9.54h.68l.09,1.67h.07C638.9,255.9,639.5,255.28,640.27,255.28Zm5.88,9.9a2.6,2.6,0,0,1-2.33-1.29,6.75,6.75,0,0,1-.81-3.59,7.78,7.78,0,0,1,.72-3.73,2.29,2.29,0,0,1,2.09-1.29,2.12,2.12,0,0,1,1.88,1.13,5.9,5.9,0,0,1,.68,3v.78h-4.52a6.89,6.89,0,0,0,.59,3.12,1.86,1.86,0,0,0,1.73,1,3.74,3.74,0,0,0,1.89-.59v.8A3.59,3.59,0,0,1,646.15,265.18Zm-.38-9.14c-1.15,0-1.78,1.14-1.89,3.43h3.67a5.34,5.34,0,0,0-.49-2.5A1.42,1.42,0,0,0,645.77,256Zm13.74,9v-6.49c0-1.61-.47-2.4-1.41-2.4a1.45,1.45,0,0,0-1.39.84,5.69,5.69,0,0,0-.42,2.47V265h-.83v-6.49a3.73,3.73,0,0,0-.34-1.81,1.14,1.14,0,0,0-1.07-.59,1.44,1.44,0,0,0-1.38.86,6.73,6.73,0,0,0-.43,2.79V265h-.83v-9.54h.7l.07,1.33h.08a2,2,0,0,1,1.94-1.51,1.77,1.77,0,0,1,1.25.42,2.42,2.42,0,0,1,.66,1.23,2.89,2.89,0,0,1,.84-1.26,2.08,2.08,0,0,1,1.31-.39,1.73,1.73,0,0,1,1.58.83,5.42,5.42,0,0,1,.5,2.66V265Zm9.35-9.54v6.23a4.62,4.62,0,0,0,.34,2.06,1.09,1.09,0,0,0,1,.65,1.69,1.69,0,0,0,1.58-.87,5.88,5.88,0,0,0,.51-2.83v-5.24h.83V265h-.7l-.11-1.34h-.07a2.61,2.61,0,0,1-.85,1.13,2,2,0,0,1-1.19.39,1.89,1.89,0,0,1-1.69-.82,5.16,5.16,0,0,1-.52-2.67v-6.23Zm10.39-.18a2.84,2.84,0,0,1,.84.12l-.2.84a1.68,1.68,0,0,0-.65-.13,1.17,1.17,0,0,0-.91.5,3.41,3.41,0,0,0-.65,1.38,7.46,7.46,0,0,0-.24,2V265h-.83v-9.54h.68l.09,1.67h.06C677.89,255.9,678.49,255.28,679.25,255.28Zm7.49,9.72v-6.57c0-1.59-.47-2.38-1.41-2.38a1.67,1.67,0,0,0-1.57.89,6.06,6.06,0,0,0-.49,2.82V265h-.84v-9.54h.7l.07,1.33h.08a2.49,2.49,0,0,1,.86-1.11,2,2,0,0,1,1.21-.4A1.93,1.93,0,0,1,687,256a4,4,0,0,1,.55,2.38V265Zm7.93,0-.11-1.34h0a2.22,2.22,0,0,1-2.08,1.52,1.81,1.81,0,0,1-1.5-.74,3.29,3.29,0,0,1-.56-2,2.83,2.83,0,0,1,.82-2.15,3.38,3.38,0,0,1,2.29-.87l1-.05v-.79a4.15,4.15,0,0,0-.34-1.95,1.15,1.15,0,0,0-1.1-.61,3.15,3.15,0,0,0-1.67.53l-.37-.65a3.85,3.85,0,0,1,2.09-.62,1.93,1.93,0,0,1,1.7.75,4.52,4.52,0,0,1,.51,2.48V265Zm-2-.54a1.53,1.53,0,0,0,1.39-.88,5.17,5.17,0,0,0,.5-2.5v-1l-1,.05a2.48,2.48,0,0,0-1.71.64,2.31,2.31,0,0,0-.55,1.68,2.48,2.48,0,0,0,.37,1.52A1.19,1.19,0,0,0,692.64,264.46Zm12.87.72a2.38,2.38,0,0,1-2.16-1.24,7.47,7.47,0,0,1-.72-3.66,7.58,7.58,0,0,1,.73-3.72,2.36,2.36,0,0,1,2.17-1.28,3.15,3.15,0,0,1,1.48.32l-.33.74a2.6,2.6,0,0,0-1.08-.27q-2.1,0-2.1,4.19t2.1,4.16a3.67,3.67,0,0,0,1.35-.28v.7a2.45,2.45,0,0,1-.71.25A3.53,3.53,0,0,1,705.51,265.18Zm4.84-9.72v6.23a4.79,4.79,0,0,0,.33,2.06,1.11,1.11,0,0,0,1.05.65,1.69,1.69,0,0,0,1.58-.87,5.88,5.88,0,0,0,.51-2.83v-5.24h.83V265h-.71l-.1-1.34h-.07a2.69,2.69,0,0,1-.85,1.13,2,2,0,0,1-1.19.39,1.89,1.89,0,0,1-1.69-.82,5.14,5.14,0,0,1-.53-2.67v-6.23ZM726.2,265v-6.49c0-1.61-.47-2.4-1.41-2.4a1.45,1.45,0,0,0-1.39.84,5.53,5.53,0,0,0-.43,2.47V265h-.82v-6.49a3.71,3.71,0,0,0-.35-1.81,1.12,1.12,0,0,0-1.06-.59,1.44,1.44,0,0,0-1.38.86,6.57,6.57,0,0,0-.43,2.79V265h-.83v-9.54h.7l.07,1.33H719a2,2,0,0,1,1.94-1.51,1.78,1.78,0,0,1,1.25.42,2.49,2.49,0,0,1,.66,1.23,2.89,2.89,0,0,1,.84-1.26,2.07,2.07,0,0,1,1.3-.39,1.74,1.74,0,0,1,1.59.83,5.42,5.42,0,0,1,.5,2.66V265ZM151.58,292v-6.57c0-1.59-.47-2.38-1.4-2.38a1.7,1.7,0,0,0-1.58.89,6.06,6.06,0,0,0-.49,2.82V292h-.84v-9.54H148l.07,1.33h.08a2.5,2.5,0,0,1,.86-1.12,2,2,0,0,1,1.2-.39,1.93,1.93,0,0,1,1.66.75,4,4,0,0,1,.56,2.38V292Zm5-9.54v6.23a4.62,4.62,0,0,0,.34,2.06,1.09,1.09,0,0,0,1,.65,1.69,1.69,0,0,0,1.58-.87,5.88,5.88,0,0,0,.51-2.83v-5.24h.83V292h-.71l-.1-1.34H160a2.61,2.61,0,0,1-.85,1.13,2,2,0,0,1-1.19.39,1.89,1.89,0,0,1-1.69-.82,5.16,5.16,0,0,1-.52-2.67v-6.23Zm12,9.54v-6.57c0-1.59-.46-2.38-1.4-2.38a1.67,1.67,0,0,0-1.57.89,6,6,0,0,0-.5,2.82V292h-.83v-9.54h.7l.07,1.33h.08a2.58,2.58,0,0,1,.86-1.12,2.1,2.1,0,0,1,1.21-.39A1.94,1.94,0,0,1,169,283a4,4,0,0,1,.55,2.38V292Zm6.7.18a2.38,2.38,0,0,1-2.17-1.24,7.47,7.47,0,0,1-.72-3.66,7.7,7.7,0,0,1,.73-3.72,2.38,2.38,0,0,1,2.17-1.28,3.09,3.09,0,0,1,1.48.32l-.32.74a2.68,2.68,0,0,0-1.09-.27q-2.1,0-2.1,4.19t2.1,4.16a3.76,3.76,0,0,0,1.36-.28v.7a2.57,2.57,0,0,1-.71.25A3.69,3.69,0,0,1,175.37,292.18Zm3.93-1c0-.63.23-.94.68-.94a.67.67,0,0,1,.49.21,1.06,1.06,0,0,1,.2.73,1.09,1.09,0,0,1-.2.72.67.67,0,0,1-.49.21C179.53,292.14,179.3,291.83,179.3,291.21Zm13.87-12.06h.88L191,292h-1l-3-12.85h.9l2.09,9c.16.69.27,1.2.32,1.52s.11.73.16,1.23l.15-1c.06-.32.1-.6.15-.82S191.64,285.56,193.17,279.15Zm3.87,3.31v6.23a4.79,4.79,0,0,0,.33,2.06,1.11,1.11,0,0,0,1,.65,1.7,1.7,0,0,0,1.58-.87,5.88,5.88,0,0,0,.51-2.83v-5.24h.82V292h-.7l-.1-1.34h-.07a2.62,2.62,0,0,1-.86,1.13,2,2,0,0,1-1.18.39,1.89,1.89,0,0,1-1.69-.82,5.14,5.14,0,0,1-.53-2.67v-6.23Zm8.58,9.54h-.84V278.32h.84Zm6.52.18a2.38,2.38,0,0,1-1.32-.4,2.55,2.55,0,0,1-.89-1.1h-.08l.06,1.05v4.59h-.83V282.46h.68l.09,1.31h.08a2.75,2.75,0,0,1,.89-1.1,2.08,2.08,0,0,1,1.21-.39q2.79,0,2.79,4.93a7.92,7.92,0,0,1-.68,3.67A2.17,2.17,0,0,1,212.14,292.18Zm-.16-9.11a1.68,1.68,0,0,0-1.56.92,6.26,6.26,0,0,0-.51,2.9v.27a7.52,7.52,0,0,0,.52,3.23,1.67,1.67,0,0,0,1.58,1,1.54,1.54,0,0,0,1.46-1,8,8,0,0,0,.48-3.19,8.38,8.38,0,0,0-.44-3.1A1.57,1.57,0,0,0,212,283.07Zm6.65-.61v6.23a4.62,4.62,0,0,0,.34,2.06,1.1,1.1,0,0,0,1,.65,1.71,1.71,0,0,0,1.59-.87,6,6,0,0,0,.5-2.83v-5.24h.83V292h-.7l-.11-1.34h-.07a2.61,2.61,0,0,1-.85,1.13,2,2,0,0,1-1.19.39,1.89,1.89,0,0,1-1.69-.82,5.16,5.16,0,0,1-.52-2.67v-6.23Zm9.5,8.94a2,2,0,0,0,.68-.1v.7a2.31,2.31,0,0,1-1,.18c-1,0-1.48-.74-1.48-2.21V283.2h-.86v-.49l.85-.25.27-2.26h.58v2.26h1.51v.74h-1.51v6.53a2.82,2.82,0,0,0,.21,1.32A.78.78,0,0,0,228.13,291.4Zm6.8.6-.11-1.34h0a2.22,2.22,0,0,1-2.08,1.52,1.81,1.81,0,0,1-1.5-.74,3.23,3.23,0,0,1-.56-2,2.86,2.86,0,0,1,.81-2.15,3.43,3.43,0,0,1,2.3-.87l1-.05v-.79a4.28,4.28,0,0,0-.34-1.95,1.15,1.15,0,0,0-1.11-.61,3.2,3.2,0,0,0-1.67.53l-.36-.66a3.93,3.93,0,0,1,2.09-.61,1.9,1.9,0,0,1,1.69.75,4.42,4.42,0,0,1,.52,2.48V292Zm-2-.54a1.51,1.51,0,0,0,1.38-.88,5,5,0,0,0,.51-2.5v-1l-1,.05a2.44,2.44,0,0,0-1.71.64,2.32,2.32,0,0,0-.56,1.68,2.55,2.55,0,0,0,.37,1.52A1.21,1.21,0,0,0,232.9,291.46Zm7.87-.06a2.09,2.09,0,0,0,.69-.1v.7a2.37,2.37,0,0,1-1,.18c-1,0-1.48-.74-1.48-2.21V283.2h-.86v-.49l.84-.25.27-2.26h.58v2.26h1.52v.74h-1.52v6.53a2.79,2.79,0,0,0,.22,1.32A.76.76,0,0,0,240.77,291.4Zm5.82.78a2.6,2.6,0,0,1-2.33-1.29,6.75,6.75,0,0,1-.81-3.59,7.78,7.78,0,0,1,.72-3.73,2.29,2.29,0,0,1,2.09-1.29,2.1,2.1,0,0,1,1.87,1.13,5.8,5.8,0,0,1,.69,3v.78H244.3a6.76,6.76,0,0,0,.59,3.12,1.86,1.86,0,0,0,1.73,1,3.74,3.74,0,0,0,1.89-.59v.8A3.59,3.59,0,0,1,246.59,292.18Zm-.38-9.14c-1.15,0-1.78,1.14-1.89,3.43H248a5.47,5.47,0,0,0-.49-2.5A1.44,1.44,0,0,0,246.21,283Zm13.62,9-.1-1.34h0a2.22,2.22,0,0,1-2.07,1.52,1.82,1.82,0,0,1-1.51-.74,3.29,3.29,0,0,1-.56-2,2.83,2.83,0,0,1,.82-2.15,3.4,3.4,0,0,1,2.29-.87l1-.05v-.79a4.3,4.3,0,0,0-.33-1.95,1.17,1.17,0,0,0-1.11-.61,3.18,3.18,0,0,0-1.67.53l-.36-.66a3.89,3.89,0,0,1,2.08-.61,1.92,1.92,0,0,1,1.7.75,4.51,4.51,0,0,1,.52,2.48V292Zm-2-.54a1.52,1.52,0,0,0,1.39-.88,5.17,5.17,0,0,0,.5-2.5v-1l-1,.05a2.48,2.48,0,0,0-1.72.64,2.31,2.31,0,0,0-.55,1.68,2.48,2.48,0,0,0,.37,1.52A1.2,1.2,0,0,0,257.8,291.46Zm10.44.54v-6.57c0-1.59-.47-2.38-1.41-2.38a1.67,1.67,0,0,0-1.57.89,6.06,6.06,0,0,0-.49,2.82V292h-.84v-9.54h.7l.07,1.33h.08a2.58,2.58,0,0,1,.86-1.12,2.1,2.1,0,0,1,1.21-.39,1.93,1.93,0,0,1,1.66.75,4,4,0,0,1,.55,2.38V292Zm6-.6a2.07,2.07,0,0,0,.68-.1v.7a2.37,2.37,0,0,1-1,.18c-1,0-1.48-.74-1.48-2.21V283.2h-.86v-.49l.84-.25.28-2.26h.58v2.26h1.51v.74h-1.51v6.53a2.82,2.82,0,0,0,.21,1.32A.77.77,0,0,0,274.23,291.4Zm5.81.78a2.6,2.6,0,0,1-2.33-1.29,6.75,6.75,0,0,1-.81-3.59,7.78,7.78,0,0,1,.72-3.73,2.29,2.29,0,0,1,2.09-1.29,2.1,2.1,0,0,1,1.87,1.13,5.8,5.8,0,0,1,.69,3v.78h-4.52a6.89,6.89,0,0,0,.59,3.12,1.86,1.86,0,0,0,1.73,1,3.74,3.74,0,0,0,1.89-.59v.8A3.59,3.59,0,0,1,280,292.18Zm-.38-9.14c-1.15,0-1.78,1.14-1.89,3.43h3.67A5.47,5.47,0,0,0,281,284,1.43,1.43,0,0,0,279.66,283Zm11,9-2.25-9.54h.85l1.42,6.14c.17.71.32,1.48.48,2.32h.07c0-.31.1-.65.17-1s.66-2.85,1.73-7.44H294L291.65,292Zm6.42,0h-.83v-9.54h.83Zm-1-12.18a1.09,1.09,0,0,1,.16-.62.55.55,0,0,1,.43-.22.44.44,0,0,1,.37.22,1.1,1.1,0,0,1,.14.62,1.07,1.07,0,0,1-.14.6.42.42,0,0,1-.37.22.53.53,0,0,1-.43-.22A1.07,1.07,0,0,1,296.11,279.82ZM301.6,292l-2.25-9.54h.84l1.42,6.14c.17.71.32,1.48.48,2.32h.07c0-.31.1-.65.17-1s.66-2.85,1.73-7.44h.85L302.59,292Zm9.27,0-.1-1.34h0a2.22,2.22,0,0,1-2.07,1.52,1.83,1.83,0,0,1-1.51-.74,3.29,3.29,0,0,1-.56-2,2.83,2.83,0,0,1,.82-2.15,3.4,3.4,0,0,1,2.29-.87l1-.05v-.79a4.3,4.3,0,0,0-.33-1.95,1.17,1.17,0,0,0-1.11-.61,3.18,3.18,0,0,0-1.67.53l-.36-.66a3.87,3.87,0,0,1,2.08-.61,1.92,1.92,0,0,1,1.7.75,4.51,4.51,0,0,1,.52,2.48V292Zm-2-.54a1.52,1.52,0,0,0,1.39-.88,5.17,5.17,0,0,0,.5-2.5v-1l-1,.05a2.48,2.48,0,0,0-1.72.64,2.31,2.31,0,0,0-.55,1.68,2.48,2.48,0,0,0,.37,1.52A1.19,1.19,0,0,0,308.84,291.46Zm14.23.54v-6.49c0-1.61-.47-2.4-1.4-2.4a1.46,1.46,0,0,0-1.4.84,5.69,5.69,0,0,0-.42,2.47V292H319v-6.49a3.73,3.73,0,0,0-.34-1.81,1.13,1.13,0,0,0-1.07-.59,1.44,1.44,0,0,0-1.38.86,6.73,6.73,0,0,0-.43,2.79V292H315v-9.54h.7l.07,1.33h.08a2,2,0,0,1,1.95-1.51,1.76,1.76,0,0,1,1.24.42,2.35,2.35,0,0,1,.66,1.23,2.81,2.81,0,0,1,.85-1.26,2,2,0,0,1,1.3-.39,1.72,1.72,0,0,1,1.58.83,5.42,5.42,0,0,1,.5,2.66V292Zm5.06-9.54v6.23a4.79,4.79,0,0,0,.33,2.06,1.11,1.11,0,0,0,1.05.65,1.69,1.69,0,0,0,1.58-.87,5.88,5.88,0,0,0,.51-2.83v-5.24h.83V292h-.7l-.11-1.34h-.07a2.69,2.69,0,0,1-.85,1.13,2,2,0,0,1-1.19.39,1.89,1.89,0,0,1-1.69-.82,5.16,5.16,0,0,1-.52-2.67v-6.23Zm11.49,7.15a2.7,2.7,0,0,1-.63,1.89,2.38,2.38,0,0,1-1.83.68A3.6,3.6,0,0,1,336,292a2.91,2.91,0,0,1-.77-.37v-1a2.37,2.37,0,0,0,.86.53,3.24,3.24,0,0,0,1.1.2,1.47,1.47,0,0,0,1.16-.49,1.89,1.89,0,0,0,.43-1.29,1.8,1.8,0,0,0-.31-1.06,4.15,4.15,0,0,0-1.15-1,8.45,8.45,0,0,1-1.34-1,2.86,2.86,0,0,1-.55-.83,2.75,2.75,0,0,1-.2-1.09A2.22,2.22,0,0,1,336,283a2.42,2.42,0,0,1,1.76-.68,3.3,3.3,0,0,1,1.93.54l-.43.73a2.71,2.71,0,0,0-1.53-.48,1.61,1.61,0,0,0-1.18.44,1.54,1.54,0,0,0-.44,1.14,1.85,1.85,0,0,0,.3,1.07,4.56,4.56,0,0,0,1.27,1,7.75,7.75,0,0,1,1.3,1,2.54,2.54,0,0,1,.52.82A3,3,0,0,1,339.62,289.61ZM354.85,292v-6.49c0-1.61-.47-2.4-1.4-2.4a1.45,1.45,0,0,0-1.4.84,5.67,5.67,0,0,0-.43,2.47V292h-.82v-6.49a3.85,3.85,0,0,0-.34-1.81,1.14,1.14,0,0,0-1.07-.59A1.44,1.44,0,0,0,348,284a6.73,6.73,0,0,0-.43,2.79V292h-.83v-9.54h.7l.07,1.33h.08a2,2,0,0,1,1.94-1.51,1.77,1.77,0,0,1,1.25.42,2.35,2.35,0,0,1,.66,1.23,2.89,2.89,0,0,1,.84-1.26,2.07,2.07,0,0,1,1.3-.39,1.73,1.73,0,0,1,1.59.83,5.42,5.42,0,0,1,.5,2.66V292Zm7.95,0-.11-1.34h0a2.22,2.22,0,0,1-2.08,1.52,1.81,1.81,0,0,1-1.5-.74,3.29,3.29,0,0,1-.56-2,2.83,2.83,0,0,1,.82-2.15,3.4,3.4,0,0,1,2.29-.87l1-.05v-.79a4.3,4.3,0,0,0-.33-1.95,1.17,1.17,0,0,0-1.11-.61,3.18,3.18,0,0,0-1.67.53l-.36-.66a3.87,3.87,0,0,1,2.08-.61,1.92,1.92,0,0,1,1.7.75,4.52,4.52,0,0,1,.51,2.48V292Zm-2-.54a1.52,1.52,0,0,0,1.39-.88,5.17,5.17,0,0,0,.5-2.5v-1l-1,.05a2.48,2.48,0,0,0-1.72.64,2.31,2.31,0,0,0-.55,1.68,2.48,2.48,0,0,0,.37,1.52A1.19,1.19,0,0,0,360.77,291.46Zm7.88-.06a2,2,0,0,0,.68-.1v.7a2.34,2.34,0,0,1-1,.18c-1,0-1.48-.74-1.48-2.21V283.2H366v-.49l.85-.25.27-2.26h.58v2.26h1.51v.74H367.7v6.53a2.82,2.82,0,0,0,.21,1.32A.78.78,0,0,0,368.65,291.4Zm4.85,0a2.09,2.09,0,0,0,.69-.1v.7a2.37,2.37,0,0,1-1,.18c-1,0-1.48-.74-1.48-2.21V283.2h-.86v-.49l.84-.25.27-2.26h.58v2.26h1.52v.74h-1.52v6.53a2.66,2.66,0,0,0,.22,1.32A.76.76,0,0,0,373.5,291.4Zm3.94.6h-.83v-9.54h.83Zm-.95-12.18a1.09,1.09,0,0,1,.15-.62.55.55,0,0,1,.43-.22.44.44,0,0,1,.37.22,1.1,1.1,0,0,1,.14.62,1.07,1.07,0,0,1-.14.6.42.42,0,0,1-.37.22.53.53,0,0,1-.43-.22A1.07,1.07,0,0,1,376.49,279.82Zm8.16,9.79a2.7,2.7,0,0,1-.64,1.89,2.38,2.38,0,0,1-1.83.68A3.6,3.6,0,0,1,381,292a2.83,2.83,0,0,1-.76-.37v-1a2.21,2.21,0,0,0,.86.53,3.19,3.19,0,0,0,1.1.2,1.47,1.47,0,0,0,1.16-.49,1.89,1.89,0,0,0,.42-1.29,1.73,1.73,0,0,0-.31-1.06,4,4,0,0,0-1.15-1,9,9,0,0,1-1.34-1,3.08,3.08,0,0,1-.55-.83,2.76,2.76,0,0,1-.19-1.09A2.25,2.25,0,0,1,381,283a2.43,2.43,0,0,1,1.77-.68,3.25,3.25,0,0,1,1.92.54l-.43.73a2.71,2.71,0,0,0-1.53-.48,1.58,1.58,0,0,0-1.17.44,1.51,1.51,0,0,0-.44,1.14,1.85,1.85,0,0,0,.3,1.07,4.47,4.47,0,0,0,1.26,1,7.34,7.34,0,0,1,1.3,1,2.24,2.24,0,0,1,.52.82A2.8,2.8,0,0,1,384.65,289.61Zm9.83,2.57a2.61,2.61,0,0,1-2.33-1.29,6.75,6.75,0,0,1-.81-3.59,7.78,7.78,0,0,1,.72-3.73,2.3,2.3,0,0,1,2.09-1.29,2.11,2.11,0,0,1,1.88,1.13,5.9,5.9,0,0,1,.68,3v.78h-4.52a6.89,6.89,0,0,0,.59,3.12,1.86,1.86,0,0,0,1.73,1,3.74,3.74,0,0,0,1.89-.59v.8A3.56,3.56,0,0,1,394.48,292.18ZM394.1,283c-1.15,0-1.78,1.14-1.89,3.43h3.67a5.47,5.47,0,0,0-.49-2.5A1.42,1.42,0,0,0,394.1,283Zm9.95,9v-6.57c0-1.59-.47-2.38-1.41-2.38a1.67,1.67,0,0,0-1.57.89,6,6,0,0,0-.5,2.82V292h-.83v-9.54h.7l.07,1.33h.08a2.58,2.58,0,0,1,.86-1.12,2.1,2.1,0,0,1,1.21-.39,1.94,1.94,0,0,1,1.66.75,4,4,0,0,1,.55,2.38V292Zm5.07,0h-.83v-9.54h.83Zm-1-12.18a1,1,0,0,1,.16-.62.52.52,0,0,1,.42-.22.44.44,0,0,1,.38.22,1.19,1.19,0,0,1,.14.62,1.16,1.16,0,0,1-.14.6.42.42,0,0,1-.38.22.5.5,0,0,1-.42-.22A1,1,0,0,1,408.16,279.82ZM420.68,292v-6.49c0-1.61-.47-2.4-1.41-2.4a1.45,1.45,0,0,0-1.39.84,5.67,5.67,0,0,0-.43,2.47V292h-.82v-6.49a3.73,3.73,0,0,0-.34-1.81,1.14,1.14,0,0,0-1.07-.59,1.44,1.44,0,0,0-1.38.86,6.73,6.73,0,0,0-.43,2.79V292h-.83v-9.54h.7l.07,1.33h.08a2,2,0,0,1,1.94-1.51,1.77,1.77,0,0,1,1.25.42,2.49,2.49,0,0,1,.66,1.23,2.89,2.89,0,0,1,.84-1.26,2.07,2.07,0,0,1,1.3-.39,1.74,1.74,0,0,1,1.59.83,5.42,5.42,0,0,1,.5,2.66V292Zm10.3-.6a2.09,2.09,0,0,0,.69-.1v.7a2.39,2.39,0,0,1-1,.18c-1,0-1.47-.74-1.47-2.21V283.2h-.87v-.49l.85-.25.27-2.26H430v2.26h1.51v.74H430v6.53a2.82,2.82,0,0,0,.21,1.32A.78.78,0,0,0,431,291.4Zm5.75-9.12a2.84,2.84,0,0,1,.84.12l-.21.84a1.61,1.61,0,0,0-.65-.13,1.17,1.17,0,0,0-.9.5,3.41,3.41,0,0,0-.65,1.38,7.46,7.46,0,0,0-.24,2V292h-.83v-9.54h.68l.09,1.67h.06C435.37,282.9,436,282.28,436.73,282.28Zm4,9.72h-.83v-9.54h.83Zm-.95-12.18a1.09,1.09,0,0,1,.15-.62.54.54,0,0,1,.42-.22.44.44,0,0,1,.38.22,1.1,1.1,0,0,1,.14.62,1.07,1.07,0,0,1-.14.6.42.42,0,0,1-.38.22.51.51,0,0,1-.42-.22A1.07,1.07,0,0,1,439.79,279.82Zm8.16,9.79a2.7,2.7,0,0,1-.64,1.89,2.38,2.38,0,0,1-1.83.68,3.6,3.6,0,0,1-1.14-.17,2.83,2.83,0,0,1-.76-.37v-1a2.21,2.21,0,0,0,.86.53,3.19,3.19,0,0,0,1.1.2,1.47,1.47,0,0,0,1.16-.49,1.89,1.89,0,0,0,.42-1.29,1.73,1.73,0,0,0-.31-1.06,4,4,0,0,0-1.15-1,8.45,8.45,0,0,1-1.34-1,2.86,2.86,0,0,1-.55-.83,2.76,2.76,0,0,1-.19-1.09,2.25,2.25,0,0,1,.69-1.69,2.43,2.43,0,0,1,1.77-.68,3.27,3.27,0,0,1,1.92.54l-.43.73a2.71,2.71,0,0,0-1.53-.48,1.58,1.58,0,0,0-1.17.44,1.51,1.51,0,0,0-.44,1.14,1.84,1.84,0,0,0,.29,1.07,4.56,4.56,0,0,0,1.27,1,7.34,7.34,0,0,1,1.3,1,2.38,2.38,0,0,1,.52.82A2.8,2.8,0,0,1,448,289.61Zm4.58,1.79a2,2,0,0,0,.68-.1v.7a2.37,2.37,0,0,1-1,.18c-1,0-1.48-.74-1.48-2.21V283.2h-.86v-.49l.85-.25.27-2.26h.58v2.26h1.51v.74h-1.51v6.53a2.82,2.82,0,0,0,.21,1.32A.78.78,0,0,0,452.53,291.4Zm3.94.6h-.84v-9.54h.84Zm-1-12.18a1,1,0,0,1,.16-.62.52.52,0,0,1,.42-.22.44.44,0,0,1,.38.22,1.19,1.19,0,0,1,.14.62,1.16,1.16,0,0,1-.14.6.42.42,0,0,1-.38.22.5.5,0,0,1-.42-.22A1,1,0,0,1,455.51,279.82Zm6.71,12.36a2.24,2.24,0,0,1-2-1.22,7.64,7.64,0,0,1-.7-3.72,7.34,7.34,0,0,1,.74-3.74,2.28,2.28,0,0,1,4.14.24h.07l.13-1.28h.67v13.86h-.84V292.2c0-.39,0-.92.08-1.59h-.08A2.37,2.37,0,0,1,462.22,292.18Zm.12-.76a1.68,1.68,0,0,0,1.52-.95,5.93,5.93,0,0,0,.53-2.79v-.44a7.14,7.14,0,0,0-.53-3.16,1.68,1.68,0,0,0-1.59-1,1.53,1.53,0,0,0-1.47,1.08,8.38,8.38,0,0,0-.45,3.11,8,8,0,0,0,.47,3.18A1.6,1.6,0,0,0,462.34,291.42Zm7.14-9v6.23a4.76,4.76,0,0,0,.34,2.06,1.1,1.1,0,0,0,1,.65,1.71,1.71,0,0,0,1.59-.87,5.9,5.9,0,0,0,.5-2.83v-5.24h.83V292h-.7l-.11-1.34h-.07a2.61,2.61,0,0,1-.85,1.13,2,2,0,0,1-1.19.39,1.87,1.87,0,0,1-1.68-.82,5,5,0,0,1-.53-2.67v-6.23Zm10.46,9.72a2.6,2.6,0,0,1-2.33-1.29,6.75,6.75,0,0,1-.81-3.59,7.78,7.78,0,0,1,.72-3.73,2.29,2.29,0,0,1,2.09-1.29,2.1,2.1,0,0,1,1.87,1.13,5.8,5.8,0,0,1,.69,3v.78h-4.52a6.76,6.76,0,0,0,.59,3.12,1.86,1.86,0,0,0,1.73,1,3.74,3.74,0,0,0,1.89-.59v.8A3.59,3.59,0,0,1,479.94,292.18Zm-.38-9.14c-1.15,0-1.78,1.14-1.89,3.43h3.66a5.48,5.48,0,0,0-.48-2.5A1.43,1.43,0,0,0,479.56,283Zm13,9.14a2.38,2.38,0,0,1-1.32-.4,2.64,2.64,0,0,1-.9-1.1h-.08l.06,1.05v4.59h-.83V282.46h.68l.09,1.31h.08a2.86,2.86,0,0,1,.9-1.1,2,2,0,0,1,1.2-.39c1.86,0,2.8,1.64,2.8,4.93a7.91,7.91,0,0,1-.69,3.67A2.17,2.17,0,0,1,492.56,292.18Zm-.17-9.11a1.68,1.68,0,0,0-1.56.92,6.26,6.26,0,0,0-.51,2.9v.27a7.68,7.68,0,0,0,.52,3.23,1.67,1.67,0,0,0,1.58,1,1.54,1.54,0,0,0,1.46-1,7.77,7.77,0,0,0,.49-3.19,8.14,8.14,0,0,0-.45-3.1A1.57,1.57,0,0,0,492.39,283.07Zm11.23,4.14a7.25,7.25,0,0,1-.77,3.69,2.39,2.39,0,0,1-2.17,1.28,2.35,2.35,0,0,1-2.14-1.28,7.38,7.38,0,0,1-.74-3.69q0-4.93,2.92-4.93a2.37,2.37,0,0,1,2.13,1.29A7.19,7.19,0,0,1,503.62,287.21Zm-4.95,0a7.62,7.62,0,0,0,.49,3.12,1.63,1.63,0,0,0,1.54,1.06c1.36,0,2.05-1.4,2.05-4.18s-.69-4.14-2.05-4.14a1.62,1.62,0,0,0-1.56,1A7.89,7.89,0,0,0,498.67,287.21Zm10.59-4.93a2.84,2.84,0,0,1,.84.12l-.21.84a1.61,1.61,0,0,0-.65-.13,1.17,1.17,0,0,0-.9.5,3.41,3.41,0,0,0-.65,1.38,7.46,7.46,0,0,0-.24,2V292h-.83v-9.54h.68l.09,1.67h.06C507.9,282.9,508.5,282.28,509.26,282.28Zm4.93,9.12a2,2,0,0,0,.68-.1v.7a2.34,2.34,0,0,1-1,.18c-1,0-1.48-.74-1.48-2.21V283.2h-.86v-.49l.85-.25.27-2.26h.58v2.26h1.51v.74h-1.51v6.53a2.82,2.82,0,0,0,.21,1.32A.78.78,0,0,0,514.19,291.4Zm4.85,0a2.09,2.09,0,0,0,.69-.1v.7a2.39,2.39,0,0,1-1,.18c-1,0-1.47-.74-1.47-2.21V283.2h-.86v-.49l.84-.25.27-2.26h.58v2.26h1.51v.74h-1.51v6.53a2.82,2.82,0,0,0,.21,1.32A.79.79,0,0,0,519,291.4Zm3.94.6h-.83v-9.54H523Zm-1-12.18a1.09,1.09,0,0,1,.15-.62.55.55,0,0,1,.43-.22.44.44,0,0,1,.37.22,1.1,1.1,0,0,1,.14.62,1.07,1.07,0,0,1-.14.6.42.42,0,0,1-.37.22.53.53,0,0,1-.43-.22A1.07,1.07,0,0,1,522,279.82Zm6.16,11.58a2.09,2.09,0,0,0,.69-.1v.7a2.39,2.39,0,0,1-1,.18c-1,0-1.47-.74-1.47-2.21V283.2h-.87v-.49l.85-.25.27-2.26h.58v2.26h1.51v.74h-1.51v6.53a2.82,2.82,0,0,0,.21,1.32A.78.78,0,0,0,528.19,291.4Zm8.48-4.19a7.25,7.25,0,0,1-.77,3.69,2.39,2.39,0,0,1-2.17,1.28,2.36,2.36,0,0,1-2.14-1.28,7.38,7.38,0,0,1-.74-3.69q0-4.93,2.92-4.93a2.37,2.37,0,0,1,2.13,1.29A7.19,7.19,0,0,1,536.67,287.21Zm-4.95,0a7.62,7.62,0,0,0,.49,3.12,1.63,1.63,0,0,0,1.54,1.06c1.36,0,2-1.4,2-4.18s-.69-4.14-2-4.14a1.63,1.63,0,0,0-1.56,1A7.89,7.89,0,0,0,531.72,287.21Zm10.59-4.93a2.84,2.84,0,0,1,.84.12l-.2.84a1.69,1.69,0,0,0-.66-.13,1.17,1.17,0,0,0-.9.5,3.41,3.41,0,0,0-.65,1.38,7.46,7.46,0,0,0-.24,2V292h-.83v-9.54h.68l.09,1.67h.06C541,282.9,541.55,282.28,542.31,282.28Zm10.18,9.9a2.61,2.61,0,0,1-2.33-1.29,6.75,6.75,0,0,1-.81-3.59,7.78,7.78,0,0,1,.72-3.73,2.3,2.3,0,0,1,2.09-1.29,2.11,2.11,0,0,1,1.88,1.13,5.9,5.9,0,0,1,.68,3v.78H550.2a6.89,6.89,0,0,0,.59,3.12,1.86,1.86,0,0,0,1.73,1,3.74,3.74,0,0,0,1.89-.59v.8A3.59,3.59,0,0,1,552.49,292.18Zm-.38-9.14c-1.15,0-1.78,1.14-1.89,3.43h3.67a5.47,5.47,0,0,0-.49-2.5A1.42,1.42,0,0,0,552.11,283Zm9.94,9v-6.57c0-1.59-.46-2.38-1.4-2.38a1.67,1.67,0,0,0-1.57.89,6,6,0,0,0-.5,2.82V292h-.83v-9.54h.7l.07,1.33h.08a2.58,2.58,0,0,1,.86-1.12,2.1,2.1,0,0,1,1.21-.39,1.94,1.94,0,0,1,1.66.75,4,4,0,0,1,.55,2.38V292Zm5.08,0h-.84v-9.54h.84Zm-1-12.18a1,1,0,0,1,.16-.62.52.52,0,0,1,.42-.22.44.44,0,0,1,.38.22,1.19,1.19,0,0,1,.14.62,1.16,1.16,0,0,1-.14.6.42.42,0,0,1-.38.22.5.5,0,0,1-.42-.22A1,1,0,0,1,566.17,279.82ZM578.69,292v-6.49c0-1.61-.47-2.4-1.41-2.4a1.45,1.45,0,0,0-1.39.84,5.69,5.69,0,0,0-.42,2.47V292h-.83v-6.49a3.73,3.73,0,0,0-.34-1.81,1.14,1.14,0,0,0-1.07-.59,1.44,1.44,0,0,0-1.38.86,6.73,6.73,0,0,0-.43,2.79V292h-.83v-9.54h.7l.07,1.33h.08a2,2,0,0,1,1.94-1.51,1.77,1.77,0,0,1,1.25.42,2.42,2.42,0,0,1,.66,1.23,2.89,2.89,0,0,1,.84-1.26,2.07,2.07,0,0,1,1.3-.39,1.73,1.73,0,0,1,1.59.83,5.42,5.42,0,0,1,.5,2.66V292Zm9.35-9.54v6.23a4.62,4.62,0,0,0,.34,2.06,1.09,1.09,0,0,0,1,.65,1.69,1.69,0,0,0,1.58-.87,5.88,5.88,0,0,0,.51-2.83v-5.24h.83V292h-.7l-.11-1.34h-.07a2.69,2.69,0,0,1-.85,1.13,2,2,0,0,1-1.19.39,1.89,1.89,0,0,1-1.69-.82,5.16,5.16,0,0,1-.52-2.67v-6.23Zm8.58,9.54h-.83V278.32h.83Zm5.21-.6a2,2,0,0,0,.68-.1v.7a2.31,2.31,0,0,1-1,.18c-1,0-1.48-.74-1.48-2.21V283.2h-.86v-.49l.85-.25.27-2.26h.58v2.26h1.51v.74h-1.51v6.53a2.82,2.82,0,0,0,.21,1.32A.78.78,0,0,0,601.83,291.4Zm5.75-9.12a2.73,2.73,0,0,1,.83.12l-.2.84a1.61,1.61,0,0,0-.65-.13,1.17,1.17,0,0,0-.9.5A3.29,3.29,0,0,0,606,285a7.46,7.46,0,0,0-.24,2V292h-.84v-9.54h.69l.09,1.67h.06C606.22,282.9,606.82,282.28,607.58,282.28Zm4,9.72h-.83v-9.54h.83Zm-1-12.18a1.09,1.09,0,0,1,.16-.62.52.52,0,0,1,.42-.22.44.44,0,0,1,.38.22,1.1,1.1,0,0,1,.14.62,1.07,1.07,0,0,1-.14.6.42.42,0,0,1-.38.22.5.5,0,0,1-.42-.22A1.07,1.07,0,0,1,610.63,279.82Zm6.87,12.36a2.38,2.38,0,0,1-2.16-1.24,7.47,7.47,0,0,1-.72-3.66,7.58,7.58,0,0,1,.73-3.72,2.36,2.36,0,0,1,2.17-1.28,3.15,3.15,0,0,1,1.48.32l-.33.74a2.6,2.6,0,0,0-1.08-.27q-2.1,0-2.1,4.19t2.1,4.16a3.67,3.67,0,0,0,1.35-.28v.7a2.45,2.45,0,0,1-.71.25A3.53,3.53,0,0,1,617.5,292.18Zm6.75,0a2.6,2.6,0,0,1-2.33-1.29,6.75,6.75,0,0,1-.81-3.59,7.78,7.78,0,0,1,.72-3.73,2.29,2.29,0,0,1,2.09-1.29,2.1,2.1,0,0,1,1.87,1.13,5.8,5.8,0,0,1,.69,3v.78H622a6.76,6.76,0,0,0,.59,3.12,1.86,1.86,0,0,0,1.73,1,3.74,3.74,0,0,0,1.89-.59v.8A3.59,3.59,0,0,1,624.25,292.18Zm-.38-9.14c-1.15,0-1.78,1.14-1.89,3.43h3.66a5.48,5.48,0,0,0-.48-2.5A1.44,1.44,0,0,0,623.87,283Zm9.38,6.57a2.7,2.7,0,0,1-.63,1.89,2.38,2.38,0,0,1-1.83.68,3.51,3.51,0,0,1-1.14-.17,2.91,2.91,0,0,1-.77-.37v-1a2.37,2.37,0,0,0,.86.53,3.24,3.24,0,0,0,1.1.2,1.47,1.47,0,0,0,1.16-.49,1.89,1.89,0,0,0,.42-1.29,1.79,1.79,0,0,0-.3-1.06,4.15,4.15,0,0,0-1.15-1,8,8,0,0,1-1.34-1,2.67,2.67,0,0,1-.55-.83,2.75,2.75,0,0,1-.2-1.09,2.22,2.22,0,0,1,.7-1.69,2.42,2.42,0,0,1,1.76-.68,3.3,3.3,0,0,1,1.93.54l-.43.73a2.71,2.71,0,0,0-1.53-.48,1.61,1.61,0,0,0-1.18.44,1.54,1.54,0,0,0-.44,1.14,1.85,1.85,0,0,0,.3,1.07,4.56,4.56,0,0,0,1.27,1,7.18,7.18,0,0,1,1.29,1,2.24,2.24,0,0,1,.52.82A2.8,2.8,0,0,1,633.25,289.61Zm2.73,1.6c0-.63.23-.94.68-.94a.67.67,0,0,1,.49.21,1.06,1.06,0,0,1,.2.73,1.09,1.09,0,0,1-.2.72.67.67,0,0,1-.49.21C636.21,292.14,636,291.83,636,291.21Z"/><path d="M147.25,352V340.58H148v10.69h3.21V352Zm11-4.26a6.49,6.49,0,0,1-.68,3.28,2.19,2.19,0,0,1-3.84,0,6.75,6.75,0,0,1-.65-3.28q0-4.38,2.59-4.38a2.1,2.1,0,0,1,1.9,1.15A6.39,6.39,0,0,1,158.27,347.74Zm-4.4,0a6.87,6.87,0,0,0,.44,2.78,1.43,1.43,0,0,0,1.37.93c1.21,0,1.81-1.23,1.81-3.71s-.6-3.68-1.81-3.68a1.45,1.45,0,0,0-1.39.92A7,7,0,0,0,153.87,347.74Zm9.42-4.38a2.55,2.55,0,0,1,.74.11l-.18.74a1.47,1.47,0,0,0-.58-.12,1.06,1.06,0,0,0-.8.45,3.07,3.07,0,0,0-.58,1.23,6.69,6.69,0,0,0-.21,1.74V352h-.74v-8.48h.6l.08,1.49h.06C162.07,343.91,162.61,343.36,163.29,343.36Zm5.23,8.8a2.31,2.31,0,0,1-2.07-1.14,6,6,0,0,1-.72-3.2,6.84,6.84,0,0,1,.64-3.31,2,2,0,0,1,1.86-1.15,1.86,1.86,0,0,1,1.66,1,5.09,5.09,0,0,1,.61,2.7v.69h-4a6,6,0,0,0,.52,2.77,1.64,1.64,0,0,0,1.54.92,3.3,3.3,0,0,0,1.68-.52v.72A3.16,3.16,0,0,1,168.52,352.16Zm-.34-8.13q-1.53,0-1.68,3.06h3.26a4.81,4.81,0,0,0-.43-2.23A1.28,1.28,0,0,0,168.18,344Zm12.22,8v-5.77c0-1.43-.42-2.14-1.25-2.14a1.3,1.3,0,0,0-1.25.75,5.07,5.07,0,0,0-.37,2.2v5h-.74v-5.77a3.29,3.29,0,0,0-.3-1.6,1,1,0,0,0-1-.54,1.27,1.27,0,0,0-1.22.77,5.81,5.81,0,0,0-.39,2.48V352h-.74v-8.48h.63l.06,1.18H174a1.78,1.78,0,0,1,1.73-1.34,1.58,1.58,0,0,1,1.11.37,2.18,2.18,0,0,1,.58,1.1,2.54,2.54,0,0,1,.75-1.13,1.84,1.84,0,0,1,1.16-.34,1.51,1.51,0,0,1,1.4.74,4.7,4.7,0,0,1,.45,2.36V352Zm8.34,0H188v-8.48h.75Zm-.85-10.83a.87.87,0,0,1,.14-.54.43.43,0,0,1,.37-.2.38.38,0,0,1,.34.2,1.27,1.27,0,0,1,0,1.08.4.4,0,0,1-.34.2.45.45,0,0,1-.37-.2A.87.87,0,0,1,187.89,341.17Zm6.65,11a2,2,0,0,1-1.17-.36,2.19,2.19,0,0,1-.8-1h-.07l.05.93v4.08h-.74V343.52h.61l.08,1.17h.07a2.5,2.5,0,0,1,.8-1,1.79,1.79,0,0,1,1.07-.34q2.48,0,2.48,4.38a7.08,7.08,0,0,1-.61,3.27A1.94,1.94,0,0,1,194.54,352.16Zm-.15-8.1a1.49,1.49,0,0,0-1.38.82,5.45,5.45,0,0,0-.46,2.57v.25a6.84,6.84,0,0,0,.46,2.87,1.5,1.5,0,0,0,1.41.91,1.38,1.38,0,0,0,1.3-.9,7.18,7.18,0,0,0,.43-2.84,7.45,7.45,0,0,0-.4-2.76A1.39,1.39,0,0,0,194.39,344.06Zm8.53,5.82a2.33,2.33,0,0,1-.56,1.67,2.08,2.08,0,0,1-1.62.61,3.13,3.13,0,0,1-1-.15,2.53,2.53,0,0,1-.68-.33v-.87a2,2,0,0,0,.77.47,2.68,2.68,0,0,0,1,.17,1.28,1.28,0,0,0,1-.43,1.67,1.67,0,0,0,.38-1.14,1.59,1.59,0,0,0-.27-.95,3.73,3.73,0,0,0-1-.88,6.9,6.9,0,0,1-1.18-.88,2.21,2.21,0,0,1-.67-1.7,2,2,0,0,1,.62-1.51,2.15,2.15,0,0,1,1.57-.6,2.92,2.92,0,0,1,1.71.48l-.38.65a2.46,2.46,0,0,0-1.36-.43,1.42,1.42,0,0,0-1,.39,1.38,1.38,0,0,0-.39,1,1.65,1.65,0,0,0,.26.94,4.27,4.27,0,0,0,1.13.92,6.77,6.77,0,0,1,1.16.89,2.25,2.25,0,0,1,.46.73A2.67,2.67,0,0,1,202.92,349.88Zm3.23-6.36v5.53a4.2,4.2,0,0,0,.3,1.84,1,1,0,0,0,.93.58,1.52,1.52,0,0,0,1.41-.77,5.31,5.31,0,0,0,.45-2.52v-4.66H210V352h-.62l-.09-1.19h-.07a2.23,2.23,0,0,1-.76,1,1.77,1.77,0,0,1-1.05.35,1.68,1.68,0,0,1-1.5-.73,4.58,4.58,0,0,1-.47-2.38v-5.53ZM220.24,352v-5.77c0-1.43-.41-2.14-1.25-2.14a1.3,1.3,0,0,0-1.24.75,5.07,5.07,0,0,0-.37,2.2v5h-.74v-5.77a3.29,3.29,0,0,0-.3-1.6,1,1,0,0,0-1-.54,1.3,1.3,0,0,0-1.23.77,6,6,0,0,0-.38,2.48V352H213v-8.48h.62l.07,1.18h.07a1.77,1.77,0,0,1,1.72-1.34,1.57,1.57,0,0,1,1.11.37,2.19,2.19,0,0,1,.59,1.1,2.54,2.54,0,0,1,.75-1.13,1.83,1.83,0,0,1,1.15-.34,1.53,1.53,0,0,1,1.41.74,4.7,4.7,0,0,1,.45,2.36V352Zm9.67.16c-1.64,0-2.47-1.46-2.47-4.39a7,7,0,0,1,.62-3.28,2,2,0,0,1,2.9-.8,2.38,2.38,0,0,1,.82.9h.06l0-.94v-3.81h.74V352h-.61l-.06-1.19h-.07a2.43,2.43,0,0,1-.79,1A1.86,1.86,0,0,1,229.91,352.16Zm.05-.65a1.52,1.52,0,0,0,1.37-.82,4.92,4.92,0,0,0,.48-2.43v-.49a6.35,6.35,0,0,0-.47-2.81,1.49,1.49,0,0,0-1.41-.9,1.35,1.35,0,0,0-1.31,1,7.41,7.41,0,0,0-.4,2.77,7.11,7.11,0,0,0,.41,2.77A1.39,1.39,0,0,0,230,351.51Zm10.44-3.77a6.49,6.49,0,0,1-.68,3.28,2.19,2.19,0,0,1-3.84,0,6.75,6.75,0,0,1-.65-3.28q0-4.38,2.59-4.38a2.1,2.1,0,0,1,1.9,1.15A6.39,6.39,0,0,1,240.4,347.74Zm-4.4,0a6.87,6.87,0,0,0,.44,2.78,1.44,1.44,0,0,0,1.37.93c1.21,0,1.82-1.23,1.82-3.71s-.61-3.68-1.82-3.68a1.45,1.45,0,0,0-1.39.92A7,7,0,0,0,236,347.74Zm7.81,4.26h-.74V339.84h.74Zm7.85-4.26A6.49,6.49,0,0,1,251,351a2.13,2.13,0,0,1-1.93,1.14,2.09,2.09,0,0,1-1.91-1.14,6.62,6.62,0,0,1-.66-3.28q0-4.38,2.6-4.38a2.11,2.11,0,0,1,1.9,1.15A6.39,6.39,0,0,1,251.66,347.74Zm-4.4,0a6.7,6.7,0,0,0,.44,2.78,1.43,1.43,0,0,0,1.36.93c1.22,0,1.82-1.23,1.82-3.71s-.6-3.68-1.82-3.68a1.45,1.45,0,0,0-1.38.92A7,7,0,0,0,247.26,347.74Zm9.41-4.38a2.56,2.56,0,0,1,.75.11l-.18.74a1.47,1.47,0,0,0-.58-.12,1.08,1.08,0,0,0-.81.45,3.2,3.2,0,0,0-.57,1.23,6.69,6.69,0,0,0-.21,1.74V352h-.75v-8.48h.61L255,345h.06C255.46,343.91,256,343.36,256.67,343.36Zm10,6.52a2.37,2.37,0,0,1-.56,1.67,2.11,2.11,0,0,1-1.63.61,3.11,3.11,0,0,1-1-.15,2.53,2.53,0,0,1-.68-.33v-.87a2,2,0,0,0,.76.47,2.77,2.77,0,0,0,1,.17,1.28,1.28,0,0,0,1-.43,1.67,1.67,0,0,0,.38-1.14,1.53,1.53,0,0,0-.28-.95,3.51,3.51,0,0,0-1-.88,7.55,7.55,0,0,1-1.19-.88,2.53,2.53,0,0,1-.49-.73,2.59,2.59,0,0,1-.17-1,2,2,0,0,1,.62-1.51,2.15,2.15,0,0,1,1.57-.6,2.92,2.92,0,0,1,1.71.48l-.39.65a2.43,2.43,0,0,0-1.35-.43,1.42,1.42,0,0,0-1.05.39,1.38,1.38,0,0,0-.39,1,1.65,1.65,0,0,0,.26.94,4.27,4.27,0,0,0,1.13.92,6.22,6.22,0,0,1,1.15.89,2.12,2.12,0,0,1,.47.73A2.67,2.67,0,0,1,266.64,349.88ZM269.9,352h-.74v-8.48h.74Zm-.85-10.83a.94.94,0,0,1,.14-.54.44.44,0,0,1,.38-.2.36.36,0,0,1,.33.2,1.19,1.19,0,0,1,0,1.08.38.38,0,0,1-.33.2.47.47,0,0,1-.38-.2A.94.94,0,0,1,269.05,341.17Zm5.48,10.3a1.91,1.91,0,0,0,.61-.09V352a2.2,2.2,0,0,1-.88.16c-.88,0-1.31-.66-1.31-2v-6h-.77v-.44l.75-.22.24-2h.52v2H275v.66h-1.34V350a2.46,2.46,0,0,0,.19,1.18A.7.7,0,0,0,274.53,351.47Zm9.86.53-.09-1.19h0a2,2,0,0,1-1.84,1.35,1.62,1.62,0,0,1-1.34-.66,2.88,2.88,0,0,1-.5-1.77,2.57,2.57,0,0,1,.73-1.92,3,3,0,0,1,2-.77l.91-.05v-.7a3.77,3.77,0,0,0-.29-1.73,1,1,0,0,0-1-.54,2.74,2.74,0,0,0-1.48.47l-.32-.58a3.41,3.41,0,0,1,1.85-.55,1.71,1.71,0,0,1,1.51.66,4,4,0,0,1,.46,2.21V352Zm-1.81-.48a1.35,1.35,0,0,0,1.24-.78,4.53,4.53,0,0,0,.44-2.22v-.89l-.88.05a2.23,2.23,0,0,0-1.52.57,2.06,2.06,0,0,0-.49,1.49,2.27,2.27,0,0,0,.32,1.35A1.06,1.06,0,0,0,282.58,351.52Zm12.66.48v-5.77c0-1.43-.42-2.14-1.25-2.14a1.3,1.3,0,0,0-1.25.75,5.07,5.07,0,0,0-.37,2.2v5h-.74v-5.77a3.29,3.29,0,0,0-.3-1.6,1,1,0,0,0-.95-.54,1.27,1.27,0,0,0-1.22.77,5.81,5.81,0,0,0-.39,2.48V352H288v-8.48h.63l.06,1.18h.07a1.78,1.78,0,0,1,1.73-1.34,1.57,1.57,0,0,1,1.11.37,2.18,2.18,0,0,1,.58,1.1,2.71,2.71,0,0,1,.75-1.13,1.84,1.84,0,0,1,1.16-.34,1.51,1.51,0,0,1,1.4.74,4.7,4.7,0,0,1,.45,2.36V352Zm6.19.16a2.31,2.31,0,0,1-2.07-1.14,6,6,0,0,1-.72-3.2,6.84,6.84,0,0,1,.64-3.31,2,2,0,0,1,1.86-1.15,1.87,1.87,0,0,1,1.66,1,5.09,5.09,0,0,1,.61,2.7v.69h-4a6.11,6.11,0,0,0,.53,2.77,1.64,1.64,0,0,0,1.54.92,3.3,3.3,0,0,0,1.68-.52v.72A3.16,3.16,0,0,1,301.43,352.16Zm-.34-8.13q-1.53,0-1.68,3.06h3.26a4.81,4.81,0,0,0-.43-2.23A1.28,1.28,0,0,0,301.09,344Zm6.57,7.44a1.91,1.91,0,0,0,.61-.09V352a2.25,2.25,0,0,1-.89.16c-.87,0-1.31-.66-1.31-2v-6h-.77v-.44l.75-.22.25-2h.51v2h1.35v.66h-1.35V350a2.6,2.6,0,0,0,.19,1.18A.71.71,0,0,0,307.66,351.47Zm4-.89a26.16,26.16,0,0,1-1.29,3.48h-.5a21.37,21.37,0,0,0,.78-3.66h.9Zm8.83,1.58a2.09,2.09,0,0,1-1.92-1.11,6.55,6.55,0,0,1-.64-3.25,6.69,6.69,0,0,1,.65-3.3,2.09,2.09,0,0,1,1.92-1.14,2.74,2.74,0,0,1,1.32.29l-.29.65a2.33,2.33,0,0,0-1-.24c-1.25,0-1.87,1.24-1.87,3.73s.62,3.69,1.87,3.69a3.27,3.27,0,0,0,1.2-.25v.63a2.32,2.32,0,0,1-.63.22A3.46,3.46,0,0,1,320.51,352.16Zm8.36-4.42a6.49,6.49,0,0,1-.68,3.28,2.12,2.12,0,0,1-1.93,1.14,2.08,2.08,0,0,1-1.9-1.14,6.62,6.62,0,0,1-.66-3.28c0-2.92.87-4.38,2.59-4.38a2.09,2.09,0,0,1,1.9,1.15A6.39,6.39,0,0,1,328.87,347.74Zm-4.4,0a6.87,6.87,0,0,0,.44,2.78,1.44,1.44,0,0,0,1.37.93c1.21,0,1.82-1.23,1.82-3.71s-.61-3.68-1.82-3.68a1.45,1.45,0,0,0-1.39.92A7,7,0,0,0,324.47,347.74Zm10.9,4.26v-5.84c0-1.41-.42-2.11-1.25-2.11a1.49,1.49,0,0,0-1.4.79,5.39,5.39,0,0,0-.44,2.5V352h-.74v-8.48h.62l.07,1.18h.07a2.24,2.24,0,0,1,.76-1,1.87,1.87,0,0,1,1.07-.35,1.73,1.73,0,0,1,1.48.66,3.58,3.58,0,0,1,.49,2.12V352Zm7.09-2.12a2.33,2.33,0,0,1-.56,1.67,2.08,2.08,0,0,1-1.62.61,3.13,3.13,0,0,1-1-.15,2.53,2.53,0,0,1-.68-.33v-.87a2,2,0,0,0,.77.47,2.72,2.72,0,0,0,1,.17,1.3,1.3,0,0,0,1-.43,1.66,1.66,0,0,0,.37-1.14,1.59,1.59,0,0,0-.27-.95,3.73,3.73,0,0,0-1-.88,8.07,8.07,0,0,1-1.19-.88,2.75,2.75,0,0,1-.49-.73,2.59,2.59,0,0,1-.17-1,2,2,0,0,1,.62-1.51,2.15,2.15,0,0,1,1.57-.6,2.92,2.92,0,0,1,1.71.48l-.38.65a2.46,2.46,0,0,0-1.36-.43,1.42,1.42,0,0,0-1.05.39,1.38,1.38,0,0,0-.39,1,1.58,1.58,0,0,0,.27.94,4,4,0,0,0,1.12.92,6.77,6.77,0,0,1,1.16.89,2.25,2.25,0,0,1,.46.73A2.67,2.67,0,0,1,342.46,349.88Zm4.93,2.28a2.31,2.31,0,0,1-2.07-1.14,6,6,0,0,1-.72-3.2,6.84,6.84,0,0,1,.64-3.31,2,2,0,0,1,1.86-1.15,1.86,1.86,0,0,1,1.66,1,5.09,5.09,0,0,1,.61,2.7v.69h-4a6,6,0,0,0,.52,2.77,1.64,1.64,0,0,0,1.54.92,3.3,3.3,0,0,0,1.68-.52v.72A3.16,3.16,0,0,1,347.39,352.16Zm-.34-8.13q-1.53,0-1.68,3.06h3.26a4.81,4.81,0,0,0-.43-2.23A1.28,1.28,0,0,0,347.05,344Zm7.19,8.13a2.09,2.09,0,0,1-1.92-1.11,6.55,6.55,0,0,1-.64-3.25,6.81,6.81,0,0,1,.65-3.3,2.1,2.1,0,0,1,1.93-1.14,2.7,2.7,0,0,1,1.31.29l-.29.65a2.33,2.33,0,0,0-1-.24c-1.24,0-1.87,1.24-1.87,3.73s.63,3.69,1.87,3.69a3.27,3.27,0,0,0,1.2-.25v.63a2.32,2.32,0,0,1-.63.22A3.37,3.37,0,0,1,354.24,352.16Zm5.15-.69a1.91,1.91,0,0,0,.61-.09V352a2.25,2.25,0,0,1-.89.16c-.87,0-1.31-.66-1.31-2v-6H357v-.44l.75-.22.24-2h.51v2h1.35v.66h-1.35V350a2.6,2.6,0,0,0,.19,1.18A.73.73,0,0,0,359.39,351.47Zm5.16.69a2.33,2.33,0,0,1-2.07-1.14,6.15,6.15,0,0,1-.71-3.2,6.84,6.84,0,0,1,.64-3.31,2,2,0,0,1,1.86-1.15,1.87,1.87,0,0,1,1.66,1,5.09,5.09,0,0,1,.61,2.7v.69h-4a6,6,0,0,0,.53,2.77,1.64,1.64,0,0,0,1.54.92,3.3,3.3,0,0,0,1.68-.52v.72A3.22,3.22,0,0,1,364.55,352.16Zm-.33-8.13q-1.53,0-1.68,3.06h3.26a4.94,4.94,0,0,0-.43-2.23A1.29,1.29,0,0,0,364.22,344Zm6.56,7.44a1.87,1.87,0,0,0,.61-.09V352a2.16,2.16,0,0,1-.88.16c-.87,0-1.31-.66-1.31-2v-6h-.77v-.44l.75-.22.24-2h.52v2h1.34v.66h-1.34V350a2.46,2.46,0,0,0,.19,1.18A.7.7,0,0,0,370.78,351.47Zm3.48-8v5.53a4.38,4.38,0,0,0,.29,1.84,1,1,0,0,0,.93.58,1.52,1.52,0,0,0,1.41-.77,5.31,5.31,0,0,0,.45-2.52v-4.66h.74V352h-.63l-.09-1.19h-.06a2.38,2.38,0,0,1-.76,1,1.82,1.82,0,0,1-1.06.35,1.68,1.68,0,0,1-1.5-.73,4.58,4.58,0,0,1-.47-2.38v-5.53Zm9.23-.16a2.56,2.56,0,0,1,.75.11l-.18.74a1.47,1.47,0,0,0-.58-.12,1.06,1.06,0,0,0-.81.45,3.2,3.2,0,0,0-.57,1.23,6.28,6.28,0,0,0-.22,1.74V352h-.74v-8.48h.61l.08,1.49h.05C382.28,343.91,382.82,343.36,383.49,343.36Zm9.92,8.64-.09-1.19h0a2,2,0,0,1-1.84,1.35,1.6,1.6,0,0,1-1.34-.66,2.88,2.88,0,0,1-.5-1.77,2.53,2.53,0,0,1,.73-1.92,3,3,0,0,1,2-.77l.91-.05v-.7a3.75,3.75,0,0,0-.3-1.73,1,1,0,0,0-1-.54,2.77,2.77,0,0,0-1.49.47l-.32-.58a3.43,3.43,0,0,1,1.85-.55,1.7,1.7,0,0,1,1.51.66,4,4,0,0,1,.46,2.21V352Zm-1.8-.48a1.35,1.35,0,0,0,1.23-.78,4.52,4.52,0,0,0,.45-2.22v-.89l-.88.05a2.26,2.26,0,0,0-1.53.57,2.06,2.06,0,0,0-.49,1.49,2.19,2.19,0,0,0,.33,1.35A1,1,0,0,0,391.61,351.52Zm7.52.64q-2.47,0-2.47-4.39a6.87,6.87,0,0,1,.62-3.28,2,2,0,0,1,1.82-1.13,1.9,1.9,0,0,1,1.07.33,2.3,2.3,0,0,1,.82.9h.07l0-.94v-3.81h.74V352h-.61l-.06-1.19H401a2.61,2.61,0,0,1-.79,1A1.86,1.86,0,0,1,399.13,352.16Zm0-.65a1.51,1.51,0,0,0,1.37-.82,4.91,4.91,0,0,0,.49-2.43v-.49a6.35,6.35,0,0,0-.47-2.81,1.51,1.51,0,0,0-1.42-.9,1.36,1.36,0,0,0-1.31,1,7.62,7.62,0,0,0-.4,2.77,7.08,7.08,0,0,0,.42,2.77A1.38,1.38,0,0,0,399.17,351.51Zm6.41.49h-.74v-8.48h.74Zm-.85-10.83a.94.94,0,0,1,.14-.54.44.44,0,0,1,.38-.2.36.36,0,0,1,.33.2,1.19,1.19,0,0,1,0,1.08.38.38,0,0,1-.33.2.47.47,0,0,1-.38-.2A.94.94,0,0,1,404.73,341.17Zm6.65,11a2.07,2.07,0,0,1-1.17-.36,2.17,2.17,0,0,1-.79-1h-.07l0,.93v4.08h-.74V343.52h.61l.08,1.17h.07a2.48,2.48,0,0,1,.79-1,1.84,1.84,0,0,1,1.07-.34q2.49,0,2.49,4.38a7.21,7.21,0,0,1-.61,3.27A1.94,1.94,0,0,1,411.38,352.16Zm-.14-8.1a1.5,1.5,0,0,0-1.39.82,5.6,5.6,0,0,0-.45,2.57v.25a6.68,6.68,0,0,0,.46,2.87,1.5,1.5,0,0,0,1.41.91,1.36,1.36,0,0,0,1.29-.9,7,7,0,0,0,.43-2.84,7.48,7.48,0,0,0-.39-2.76A1.39,1.39,0,0,0,411.24,344.06Zm5.94,7.94h-.74v-8.48h.74Zm-.85-10.83a.94.94,0,0,1,.14-.54.44.44,0,0,1,.38-.2.36.36,0,0,1,.33.2,1.19,1.19,0,0,1,0,1.08.38.38,0,0,1-.33.2.47.47,0,0,1-.38-.2A.94.94,0,0,1,416.33,341.17Zm7.26,8.71a2.33,2.33,0,0,1-.57,1.67,2.07,2.07,0,0,1-1.62.61,3.13,3.13,0,0,1-1-.15,2.53,2.53,0,0,1-.68-.33v-.87a2.09,2.09,0,0,0,.77.47,2.73,2.73,0,0,0,1,.17,1.29,1.29,0,0,0,1-.43,1.66,1.66,0,0,0,.37-1.14,1.59,1.59,0,0,0-.27-.95,3.73,3.73,0,0,0-1-.88,7.34,7.34,0,0,1-1.18-.88,2.34,2.34,0,0,1-.49-.73,2.4,2.4,0,0,1-.18-1,2,2,0,0,1,.62-1.51,2.17,2.17,0,0,1,1.57-.6,2.92,2.92,0,0,1,1.71.48l-.38.65a2.46,2.46,0,0,0-1.36-.43,1.42,1.42,0,0,0-1.05.39,1.38,1.38,0,0,0-.39,1,1.58,1.58,0,0,0,.27.94,4,4,0,0,0,1.12.92,6.38,6.38,0,0,1,1.16.89,2.09,2.09,0,0,1,.46.73A2.66,2.66,0,0,1,423.59,349.88Zm4.69,2.28a2.1,2.1,0,0,1-1.92-1.11,6.55,6.55,0,0,1-.64-3.25,6.81,6.81,0,0,1,.65-3.3,2.1,2.1,0,0,1,1.93-1.14,2.7,2.7,0,0,1,1.31.29l-.29.65a2.33,2.33,0,0,0-1-.24c-1.24,0-1.87,1.24-1.87,3.73s.63,3.69,1.87,3.69a3.36,3.36,0,0,0,1.21-.25v.63a2.52,2.52,0,0,1-.64.22A3.37,3.37,0,0,1,428.28,352.16Zm4.34-.16h-.75v-8.48h.75Zm-.86-10.83a.94.94,0,0,1,.14-.54.44.44,0,0,1,.38-.2.38.38,0,0,1,.34.2,1.28,1.28,0,0,1,0,1.08.4.4,0,0,1-.34.2.47.47,0,0,1-.38-.2A.94.94,0,0,1,431.76,341.17ZM439.52,352v-5.84c0-1.41-.42-2.11-1.25-2.11a1.49,1.49,0,0,0-1.4.79,5.39,5.39,0,0,0-.44,2.5V352h-.74v-8.48h.62l.07,1.18h.07a2.24,2.24,0,0,1,.76-1,1.87,1.87,0,0,1,1.07-.35,1.73,1.73,0,0,1,1.48.66,3.58,3.58,0,0,1,.49,2.12V352Zm8.2-8.48v.53l-1.15.13a2.54,2.54,0,0,1,.38.87,4.56,4.56,0,0,1,.15,1.16,3.34,3.34,0,0,1-.56,2,1.74,1.74,0,0,1-1.47.77h-.19l-.16,0a3.63,3.63,0,0,0-.6.53,1,1,0,0,0-.21.62.66.66,0,0,0,.28.56,1.32,1.32,0,0,0,.76.2h.53a2.48,2.48,0,0,1,1.76.58,2.21,2.21,0,0,1,.62,1.7,2.48,2.48,0,0,1-.84,2,3.27,3.27,0,0,1-2.21.72,2.47,2.47,0,0,1-1.77-.58,2.18,2.18,0,0,1-.61-1.67,2.29,2.29,0,0,1,.4-1.37,2.67,2.67,0,0,1,1.28-.89,1.83,1.83,0,0,1-.64-.48,1.17,1.17,0,0,1-.23-.72,1,1,0,0,1,.25-.68,3.74,3.74,0,0,1,.73-.65,2,2,0,0,1-1-1,4.1,4.1,0,0,1,.24-3.7,1.83,1.83,0,0,1,1.57-.78,2.15,2.15,0,0,1,.89.16Zm-4.56,10a1.78,1.78,0,0,0,.42,1.26,1.64,1.64,0,0,0,1.26.45,2.42,2.42,0,0,0,1.66-.54,1.92,1.92,0,0,0,.61-1.5,1.45,1.45,0,0,0-1.63-1.6h-.55a1.66,1.66,0,0,0-1.27.53A2,2,0,0,0,443.16,353.52Zm.46-7.23a2.69,2.69,0,0,0,.39,1.58,1.19,1.19,0,0,0,1,.53c.91,0,1.36-.73,1.36-2.19a3.32,3.32,0,0,0-.35-1.65,1.11,1.11,0,0,0-1-.59,1.14,1.14,0,0,0-1,.61A3.35,3.35,0,0,0,443.62,346.29Zm12.49,5.87A2.33,2.33,0,0,1,454,351a6,6,0,0,1-.71-3.2,6.84,6.84,0,0,1,.64-3.31,2,2,0,0,1,1.86-1.15,1.87,1.87,0,0,1,1.66,1,5.09,5.09,0,0,1,.61,2.7v.69h-4a6,6,0,0,0,.53,2.77,1.63,1.63,0,0,0,1.54.92,3.3,3.3,0,0,0,1.68-.52v.72A3.21,3.21,0,0,1,456.11,352.16Zm-.34-8.13q-1.53,0-1.68,3.06h3.26a4.94,4.94,0,0,0-.43-2.23A1.29,1.29,0,0,0,455.77,344Zm5.75,8h-.74V339.84h.74Zm3.82,0h-.74v-8.48h.74Zm-.85-10.83a.87.87,0,0,1,.14-.54.43.43,0,0,1,.37-.2.38.38,0,0,1,.34.2,1.28,1.28,0,0,1,0,1.08.4.4,0,0,1-.34.2.45.45,0,0,1-.37-.2A.87.87,0,0,1,464.49,341.17Zm5.48,10.3a1.91,1.91,0,0,0,.61-.09V352a2.25,2.25,0,0,1-.89.16c-.87,0-1.31-.66-1.31-2v-6h-.77v-.44l.75-.22.25-2h.51v2h1.35v.66h-1.35V350a2.46,2.46,0,0,0,.19,1.18A.71.71,0,0,0,470,351.47Zm2.66-.17c0-.56.21-.84.61-.84a.56.56,0,0,1,.43.19.92.92,0,0,1,.18.65.94.94,0,0,1-.18.64.59.59,0,0,1-.43.19C472.84,352.13,472.63,351.85,472.63,351.3Zm11.88.7-3-10.4h-.07c0,1.1.08,1.79.08,2.08V352h-.73V340.58h1.13l2.56,8.73a12.89,12.89,0,0,1,.45,2H485a14.79,14.79,0,0,1,.48-1.95l2.54-8.75h1.17V352h-.76v-8.26c0-.32,0-1,.08-2.12h-.07l-3,10.38Zm12.61-4.26a6.49,6.49,0,0,1-.68,3.28,2.19,2.19,0,0,1-3.84,0,6.75,6.75,0,0,1-.65-3.28q0-4.38,2.59-4.38a2.1,2.1,0,0,1,1.9,1.15A6.39,6.39,0,0,1,497.12,347.74Zm-4.4,0a6.87,6.87,0,0,0,.44,2.78,1.43,1.43,0,0,0,1.36.93c1.22,0,1.83-1.23,1.83-3.71s-.61-3.68-1.83-3.68a1.45,1.45,0,0,0-1.38.92A7,7,0,0,0,492.72,347.74Zm9.42-4.38a2.55,2.55,0,0,1,.74.11l-.18.74a1.47,1.47,0,0,0-.58-.12,1,1,0,0,0-.8.45,3.07,3.07,0,0,0-.58,1.23,6.69,6.69,0,0,0-.21,1.74V352h-.74v-8.48h.6l.08,1.49h.06C500.92,343.91,501.46,343.36,502.14,343.36Zm5.45,0q2.48,0,2.48,4.36a7,7,0,0,1-.62,3.29,1.94,1.94,0,0,1-1.78,1.13,2,2,0,0,1-1.11-.34,2.5,2.5,0,0,1-.83-1h-.06l-.1,1.17H505V339.84h.74v3.78l0,1h.06A2.06,2.06,0,0,1,507.59,343.38Zm0,.68a1.48,1.48,0,0,0-1.41.86,6.64,6.64,0,0,0-.44,2.82v.2q0,3.54,1.89,3.54a1.36,1.36,0,0,0,1.28-.91,7.12,7.12,0,0,0,.43-2.83,7,7,0,0,0-.42-2.76A1.38,1.38,0,0,0,507.55,344.06Zm5.94,7.94h-.75v-8.48h.75Zm-.85-10.83a.87.87,0,0,1,.14-.54.43.43,0,0,1,.37-.2.38.38,0,0,1,.34.2,1.28,1.28,0,0,1,0,1.08.4.4,0,0,1-.34.2.45.45,0,0,1-.37-.2A.87.87,0,0,1,512.64,341.17ZM521.32,352l-2-8.48h.75l1.27,5.46c.14.63.28,1.31.42,2.06h.06c0-.27.09-.57.16-.91s.58-2.53,1.54-6.61h.75L522.21,352Zm7.37.16a2.33,2.33,0,0,1-2.07-1.14,6,6,0,0,1-.72-3.2,7,7,0,0,1,.64-3.31,2,2,0,0,1,1.86-1.15,1.88,1.88,0,0,1,1.67,1,5.19,5.19,0,0,1,.61,2.7v.69h-4a6.12,6.12,0,0,0,.52,2.77,1.65,1.65,0,0,0,1.54.92,3.25,3.25,0,0,0,1.68-.52v.72A3.16,3.16,0,0,1,528.69,352.16Zm-.33-8.13q-1.53,0-1.68,3.06h3.25a5,5,0,0,0-.42-2.23A1.3,1.3,0,0,0,528.36,344Zm5.75,8h-.74V339.84h.74Zm8.44-.53a1.91,1.91,0,0,0,.61-.09V352a2.2,2.2,0,0,1-.88.16c-.87,0-1.31-.66-1.31-2v-6h-.77v-.44l.75-.22.24-2h.52v2h1.34v.66h-1.34V350a2.46,2.46,0,0,0,.19,1.18A.7.7,0,0,0,542.55,351.47Zm3.51.53h-.75v-8.48h.75Zm-.85-10.83a.94.94,0,0,1,.13-.54.44.44,0,0,1,.38-.2.38.38,0,0,1,.34.2,1.28,1.28,0,0,1,0,1.08.4.4,0,0,1-.34.2.47.47,0,0,1-.38-.2A.94.94,0,0,1,545.21,341.17ZM553,352v-5.84c0-1.41-.42-2.11-1.25-2.11a1.49,1.49,0,0,0-1.4.79,5.39,5.39,0,0,0-.44,2.5V352h-.74v-8.48h.63l.06,1.18h.07a2.31,2.31,0,0,1,.76-1,1.87,1.87,0,0,1,1.07-.35,1.73,1.73,0,0,1,1.48.66,3.58,3.58,0,0,1,.49,2.12V352Zm5.95.16a2.11,2.11,0,0,1-1.93-1.11,6.66,6.66,0,0,1-.64-3.25,6.81,6.81,0,0,1,.65-3.3,2.1,2.1,0,0,1,1.93-1.14,2.67,2.67,0,0,1,1.31.29l-.28.65a2.34,2.34,0,0,0-1-.24c-1.24,0-1.86,1.24-1.86,3.73s.62,3.69,1.86,3.69a3.32,3.32,0,0,0,1.21-.25v.63a2.39,2.39,0,0,1-.64.22A3.37,3.37,0,0,1,558.91,352.16Zm4.33-.16h-.75v-8.48h.75Zm-.85-10.83a.87.87,0,0,1,.14-.54.43.43,0,0,1,.37-.2.38.38,0,0,1,.34.2,1.28,1.28,0,0,1,0,1.08.4.4,0,0,1-.34.2.45.45,0,0,1-.37-.2A.87.87,0,0,1,562.39,341.17Zm6,11q-2.48,0-2.47-4.39a7,7,0,0,1,.62-3.28,2,2,0,0,1,2.9-.8,2.46,2.46,0,0,1,.82.9h.06l0-.94v-3.81H571V352h-.61l-.06-1.19h-.07a2.52,2.52,0,0,1-.79,1A1.86,1.86,0,0,1,568.38,352.16Zm0-.65a1.5,1.5,0,0,0,1.36-.82,4.8,4.8,0,0,0,.49-2.43v-.49a6.35,6.35,0,0,0-.47-2.81,1.5,1.5,0,0,0-1.41-.9,1.37,1.37,0,0,0-1.32,1,7.65,7.65,0,0,0-.39,2.77,7.11,7.11,0,0,0,.41,2.77A1.39,1.39,0,0,0,568.43,351.51Zm6.38-8v5.53a4.38,4.38,0,0,0,.29,1.84,1,1,0,0,0,.93.58,1.52,1.52,0,0,0,1.41-.77,5.31,5.31,0,0,0,.45-2.52v-4.66h.74V352H578l-.09-1.19h-.07a2.28,2.28,0,0,1-.75,1,1.8,1.8,0,0,1-1.06.35,1.68,1.68,0,0,1-1.5-.73,4.58,4.58,0,0,1-.47-2.38v-5.53ZM585.52,352v-5.84c0-1.41-.42-2.11-1.25-2.11a1.5,1.5,0,0,0-1.4.79,5.39,5.39,0,0,0-.44,2.5V352h-.74v-8.48h.63l.06,1.18h.07a2.26,2.26,0,0,1,.77-1,1.85,1.85,0,0,1,1.07-.35,1.72,1.72,0,0,1,1.47.66,3.58,3.58,0,0,1,.5,2.12V352Zm5.32-.53a1.87,1.87,0,0,0,.61-.09V352a2.2,2.2,0,0,1-.88.16c-.87,0-1.31-.66-1.31-2v-6h-.77v-.44l.75-.22.24-2H590v2h1.34v.66H590V350a2.46,2.46,0,0,0,.19,1.18A.7.7,0,0,0,590.84,351.47Zm7.32.53h-.74v-8.48h.74Zm-.85-10.83a.94.94,0,0,1,.14-.54.44.44,0,0,1,.38-.2.36.36,0,0,1,.33.2,1.19,1.19,0,0,1,0,1.08.38.38,0,0,1-.33.2.47.47,0,0,1-.38-.2A.94.94,0,0,1,597.31,341.17Zm6,11q-2.47,0-2.47-4.39a6.87,6.87,0,0,1,.62-3.28,2,2,0,0,1,1.82-1.13,1.9,1.9,0,0,1,1.07.33,2.3,2.3,0,0,1,.82.9h.07l0-.94v-3.81H606V352h-.61l-.06-1.19h-.07a2.61,2.61,0,0,1-.79,1A1.9,1.9,0,0,1,603.31,352.16Zm0-.65a1.51,1.51,0,0,0,1.37-.82,4.91,4.91,0,0,0,.49-2.43v-.49a6.35,6.35,0,0,0-.47-2.81,1.51,1.51,0,0,0-1.42-.9,1.36,1.36,0,0,0-1.31,1,7.41,7.41,0,0,0-.4,2.77,7.08,7.08,0,0,0,.42,2.77A1.37,1.37,0,0,0,603.35,351.51Zm11.89.65a2.33,2.33,0,0,1-2.07-1.14,6,6,0,0,1-.72-3.2,7,7,0,0,1,.64-3.31,2,2,0,0,1,1.86-1.15,1.88,1.88,0,0,1,1.67,1,5.19,5.19,0,0,1,.61,2.7v.69h-4a6.12,6.12,0,0,0,.52,2.77,1.65,1.65,0,0,0,1.54.92,3.3,3.3,0,0,0,1.68-.52v.72A3.16,3.16,0,0,1,615.24,352.16Zm-.33-8.13q-1.53,0-1.68,3.06h3.25a4.81,4.81,0,0,0-.43-2.23A1.28,1.28,0,0,0,614.91,344Zm5.75,8h-.74V339.84h.74Zm3.81,0h-.74v-8.48h.74Zm-.85-10.83a.94.94,0,0,1,.14-.54.44.44,0,0,1,.38-.2.36.36,0,0,1,.33.2,1.19,1.19,0,0,1,0,1.08.38.38,0,0,1-.33.2.47.47,0,0,1-.38-.2A.94.94,0,0,1,623.62,341.17Zm5.48,10.3a1.91,1.91,0,0,0,.61-.09V352a2.2,2.2,0,0,1-.88.16c-.87,0-1.31-.66-1.31-2v-6h-.77v-.44l.75-.22.24-2h.52v2h1.34v.66h-1.34V350a2.46,2.46,0,0,0,.19,1.18A.7.7,0,0,0,629.1,351.47ZM639,352l-.09-1.19h0a2,2,0,0,1-1.85,1.35,1.59,1.59,0,0,1-1.33-.66,2.82,2.82,0,0,1-.5-1.77,2.56,2.56,0,0,1,.72-1.92,3,3,0,0,1,2-.77l.92-.05v-.7a3.75,3.75,0,0,0-.3-1.73,1,1,0,0,0-1-.54,2.76,2.76,0,0,0-1.48.47l-.32-.58a3.43,3.43,0,0,1,1.85-.55,1.71,1.71,0,0,1,1.51.66,4,4,0,0,1,.46,2.21V352Zm-1.8-.48a1.35,1.35,0,0,0,1.23-.78,4.52,4.52,0,0,0,.45-2.22v-.89l-.89.05a2.23,2.23,0,0,0-1.52.57,2.06,2.06,0,0,0-.49,1.49,2.19,2.19,0,0,0,.33,1.35A1,1,0,0,0,637.16,351.52Zm12.65.48v-5.77c0-1.43-.42-2.14-1.25-2.14a1.28,1.28,0,0,0-1.24.75,5.05,5.05,0,0,0-.38,2.2v5h-.73v-5.77a3.27,3.27,0,0,0-.31-1.6,1,1,0,0,0-.94-.54,1.28,1.28,0,0,0-1.23.77,5.84,5.84,0,0,0-.38,2.48V352h-.75v-8.48h.63l.06,1.18h.07a1.79,1.79,0,0,1,1.73-1.34,1.57,1.57,0,0,1,1.11.37,2.18,2.18,0,0,1,.58,1.1,2.71,2.71,0,0,1,.75-1.13,1.86,1.86,0,0,1,1.16-.34,1.54,1.54,0,0,1,1.41.74,4.83,4.83,0,0,1,.44,2.36V352Zm6.19.16a2.31,2.31,0,0,1-2.07-1.14,6,6,0,0,1-.72-3.2,6.84,6.84,0,0,1,.64-3.31,2,2,0,0,1,1.86-1.15,1.86,1.86,0,0,1,1.66,1,5.09,5.09,0,0,1,.61,2.7v.69h-4a6,6,0,0,0,.52,2.77,1.64,1.64,0,0,0,1.54.92,3.3,3.3,0,0,0,1.68-.52v.72A3.16,3.16,0,0,1,656,352.16Zm-.34-8.13q-1.53,0-1.68,3.06h3.26a4.81,4.81,0,0,0-.43-2.23A1.28,1.28,0,0,0,655.66,344Zm6.57,7.44a1.91,1.91,0,0,0,.61-.09V352a2.23,2.23,0,0,1-.88.16c-.88,0-1.32-.66-1.32-2v-6h-.76v-.44l.75-.22.24-2h.51v2h1.35v.66h-1.35V350a2.6,2.6,0,0,0,.19,1.18A.73.73,0,0,0,662.23,351.47Zm7.32.53h-.75v-8.48h.75Zm-.85-10.83a.87.87,0,0,1,.14-.54.42.42,0,0,1,.37-.2.38.38,0,0,1,.34.2,1.28,1.28,0,0,1,0,1.08.4.4,0,0,1-.34.2.44.44,0,0,1-.37-.2A.87.87,0,0,1,668.7,341.17ZM676.45,352v-5.84c0-1.41-.42-2.11-1.25-2.11a1.49,1.49,0,0,0-1.4.79,5.39,5.39,0,0,0-.44,2.5V352h-.74v-8.48h.62l.07,1.18h.07a2.24,2.24,0,0,1,.76-1,1.87,1.87,0,0,1,1.07-.35,1.73,1.73,0,0,1,1.48.66,3.58,3.58,0,0,1,.49,2.12V352Zm3.67-.7c0-.56.21-.84.61-.84a.56.56,0,0,1,.43.19.92.92,0,0,1,.18.65.94.94,0,0,1-.18.64.59.59,0,0,1-.43.19C680.33,352.13,680.12,351.85,680.12,351.3Zm12.45.7-1-4.14h-2.77l-1,4.14H687l2.75-11.42h.79L693.35,352Zm-1.19-4.91-1-4.26c-.1-.48-.18-.93-.24-1.36a12.83,12.83,0,0,1-.22,1.36l-1,4.26Zm6.09,5.07a2.09,2.09,0,0,1-1.92-1.11,6.55,6.55,0,0,1-.64-3.25,6.82,6.82,0,0,1,.64-3.3,2.11,2.11,0,0,1,1.93-1.14,2.74,2.74,0,0,1,1.32.29l-.29.65a2.33,2.33,0,0,0-1-.24c-1.25,0-1.87,1.24-1.87,3.73s.62,3.69,1.87,3.69a3.27,3.27,0,0,0,1.2-.25v.63a2.32,2.32,0,0,1-.63.22A3.46,3.46,0,0,1,697.47,352.16Zm10.69-.16-.1-1.19h0a2,2,0,0,1-1.84,1.35,1.6,1.6,0,0,1-1.34-.66,2.88,2.88,0,0,1-.5-1.77,2.53,2.53,0,0,1,.73-1.92,3,3,0,0,1,2-.77L708,347v-.7a3.75,3.75,0,0,0-.3-1.73,1,1,0,0,0-1-.54,2.77,2.77,0,0,0-1.49.47l-.32-.58a3.43,3.43,0,0,1,1.85-.55,1.7,1.7,0,0,1,1.51.66,4,4,0,0,1,.46,2.21V352Zm-1.81-.48a1.35,1.35,0,0,0,1.23-.78,4.52,4.52,0,0,0,.45-2.22v-.89l-.88.05a2.28,2.28,0,0,0-1.53.57,2.06,2.06,0,0,0-.49,1.49,2.19,2.19,0,0,0,.33,1.35A1,1,0,0,0,706.35,351.52Zm7.52.64q-2.48,0-2.47-4.39a7,7,0,0,1,.62-3.28,2,2,0,0,1,2.9-.8,2.46,2.46,0,0,1,.82.9h.06l0-.94v-3.81h.74V352h-.61l-.06-1.19h-.07a2.61,2.61,0,0,1-.79,1A1.88,1.88,0,0,1,713.87,352.16Zm0-.65a1.5,1.5,0,0,0,1.36-.82,4.8,4.8,0,0,0,.49-2.43v-.49a6.35,6.35,0,0,0-.47-2.81,1.51,1.51,0,0,0-1.42-.9,1.37,1.37,0,0,0-1.31,1,7.62,7.62,0,0,0-.4,2.77,7.08,7.08,0,0,0,.42,2.77A1.39,1.39,0,0,0,713.92,351.51Zm6.41.49h-.75v-8.48h.75Zm-.86-10.83a.94.94,0,0,1,.14-.54.44.44,0,0,1,.38-.2.38.38,0,0,1,.34.2,1.28,1.28,0,0,1,0,1.08.4.4,0,0,1-.34.2.47.47,0,0,1-.38-.2A.94.94,0,0,1,719.47,341.17Zm6.65,11a2.07,2.07,0,0,1-1.17-.36,2.17,2.17,0,0,1-.79-1h-.07l0,.93v4.08h-.74V343.52H724l.08,1.17h.07a2.48,2.48,0,0,1,.79-1,1.84,1.84,0,0,1,1.07-.34q2.49,0,2.49,4.38a7.21,7.21,0,0,1-.61,3.27A1.94,1.94,0,0,1,726.12,352.16Zm-.14-8.1a1.51,1.51,0,0,0-1.39.82,5.6,5.6,0,0,0-.45,2.57v.25a6.68,6.68,0,0,0,.46,2.87,1.5,1.5,0,0,0,1.41.91,1.36,1.36,0,0,0,1.29-.9,7,7,0,0,0,.43-2.84,7.48,7.48,0,0,0-.39-2.76A1.39,1.39,0,0,0,726,344.06Zm5.94,7.94h-.74v-8.48h.74Zm-.85-10.83a.94.94,0,0,1,.14-.54.44.44,0,0,1,.38-.2.36.36,0,0,1,.33.2,1.19,1.19,0,0,1,0,1.08.38.38,0,0,1-.33.2.47.47,0,0,1-.38-.2A.94.94,0,0,1,731.07,341.17Zm7.26,8.71a2.33,2.33,0,0,1-.57,1.67,2.07,2.07,0,0,1-1.62.61,3.13,3.13,0,0,1-1-.15,2.53,2.53,0,0,1-.68-.33v-.87a2.09,2.09,0,0,0,.77.47,2.73,2.73,0,0,0,1,.17,1.29,1.29,0,0,0,1-.43,1.66,1.66,0,0,0,.37-1.14,1.59,1.59,0,0,0-.27-.95,3.73,3.73,0,0,0-1-.88,7.34,7.34,0,0,1-1.18-.88,2.34,2.34,0,0,1-.49-.73,2.4,2.4,0,0,1-.18-1,2,2,0,0,1,.62-1.51,2.17,2.17,0,0,1,1.57-.6,2.92,2.92,0,0,1,1.71.48l-.38.65a2.46,2.46,0,0,0-1.36-.43,1.42,1.42,0,0,0-1.05.39,1.38,1.38,0,0,0-.39,1,1.58,1.58,0,0,0,.27.94,4,4,0,0,0,1.12.92,6.38,6.38,0,0,1,1.16.89,2.09,2.09,0,0,1,.46.73A2.66,2.66,0,0,1,738.33,349.88Zm4.7,2.28a2.1,2.1,0,0,1-1.93-1.11,6.66,6.66,0,0,1-.64-3.25,6.81,6.81,0,0,1,.65-3.3,2.1,2.1,0,0,1,1.93-1.14,2.7,2.7,0,0,1,1.31.29l-.29.65a2.26,2.26,0,0,0-1-.24c-1.24,0-1.86,1.24-1.86,3.73s.62,3.69,1.86,3.69a3.36,3.36,0,0,0,1.21-.25v.63a2.52,2.52,0,0,1-.64.22A3.37,3.37,0,0,1,743,352.16Zm4.33-.16h-.75v-8.48h.75Zm-.85-10.83a.87.87,0,0,1,.14-.54.42.42,0,0,1,.37-.2.38.38,0,0,1,.34.2,1.28,1.28,0,0,1,0,1.08.4.4,0,0,1-.34.2.44.44,0,0,1-.37-.2A.87.87,0,0,1,746.51,341.17ZM754.26,352v-5.84c0-1.41-.42-2.11-1.25-2.11a1.49,1.49,0,0,0-1.4.79,5.39,5.39,0,0,0-.44,2.5V352h-.74v-8.48h.62l.07,1.18h.07a2.24,2.24,0,0,1,.76-1,1.87,1.87,0,0,1,1.07-.35,1.73,1.73,0,0,1,1.48.66,3.58,3.58,0,0,1,.49,2.12V352Zm8.2-8.48v.53l-1.15.13a2.54,2.54,0,0,1,.38.87,4.56,4.56,0,0,1,.15,1.16,3.34,3.34,0,0,1-.56,2,1.74,1.74,0,0,1-1.47.77h-.19l-.16,0a3.63,3.63,0,0,0-.6.53,1,1,0,0,0-.21.62.64.64,0,0,0,.28.56,1.32,1.32,0,0,0,.76.2h.53a2.48,2.48,0,0,1,1.76.58,2.21,2.21,0,0,1,.62,1.7,2.48,2.48,0,0,1-.84,2,3.27,3.27,0,0,1-2.21.72,2.49,2.49,0,0,1-1.77-.58,2.18,2.18,0,0,1-.61-1.67,2.29,2.29,0,0,1,.4-1.37,2.67,2.67,0,0,1,1.28-.89,1.83,1.83,0,0,1-.64-.48,1.17,1.17,0,0,1-.23-.72,1,1,0,0,1,.25-.68,3.74,3.74,0,0,1,.73-.65,2,2,0,0,1-1-1,4.1,4.1,0,0,1,.24-3.7,1.83,1.83,0,0,1,1.57-.78,2.15,2.15,0,0,1,.89.16Zm-4.56,10a1.78,1.78,0,0,0,.42,1.26,1.64,1.64,0,0,0,1.26.45,2.42,2.42,0,0,0,1.66-.54,1.92,1.92,0,0,0,.61-1.5,1.45,1.45,0,0,0-1.63-1.6h-.55a1.66,1.66,0,0,0-1.27.53A2,2,0,0,0,757.9,353.52Zm.46-7.23a2.77,2.77,0,0,0,.38,1.58,1.22,1.22,0,0,0,1,.53c.91,0,1.36-.73,1.36-2.19a3.32,3.32,0,0,0-.35-1.65,1.11,1.11,0,0,0-1-.59,1.14,1.14,0,0,0-1,.61A3.35,3.35,0,0,0,758.36,346.29Zm-607.9,27.59a2.37,2.37,0,0,1-.56,1.67,2.11,2.11,0,0,1-1.63.61,3.11,3.11,0,0,1-1-.15,2.53,2.53,0,0,1-.68-.33v-.87a2,2,0,0,0,.76.47,2.77,2.77,0,0,0,1,.17,1.28,1.28,0,0,0,1-.43,1.67,1.67,0,0,0,.38-1.14,1.6,1.6,0,0,0-.28-.95,3.65,3.65,0,0,0-1-.88,7.55,7.55,0,0,1-1.19-.88,2.53,2.53,0,0,1-.49-.73,2.4,2.4,0,0,1-.17-1,2,2,0,0,1,.62-1.51,2.15,2.15,0,0,1,1.57-.6,2.92,2.92,0,0,1,1.71.48l-.39.65a2.43,2.43,0,0,0-1.36-.43,1.41,1.41,0,0,0-1,.39,1.38,1.38,0,0,0-.39,1,1.58,1.58,0,0,0,.26.94,4.27,4.27,0,0,0,1.13.92,6.59,6.59,0,0,1,1.15.89,2,2,0,0,1,.46.73A2.45,2.45,0,0,1,150.46,373.88Zm3.23-6.36v5.53a4.2,4.2,0,0,0,.3,1.84,1,1,0,0,0,.93.58,1.5,1.5,0,0,0,1.4-.77,5.17,5.17,0,0,0,.46-2.52v-4.66h.73V376h-.62l-.1-1.19h-.06a2.3,2.3,0,0,1-.76,1,1.77,1.77,0,0,1-1.05.35,1.68,1.68,0,0,1-1.5-.73,4.48,4.48,0,0,1-.47-2.38v-5.53Zm10.21,6.36a2.33,2.33,0,0,1-.56,1.67,2.07,2.07,0,0,1-1.62.61,3.13,3.13,0,0,1-1-.15,2.53,2.53,0,0,1-.68-.33v-.87a2,2,0,0,0,.77.47,2.68,2.68,0,0,0,1,.17,1.28,1.28,0,0,0,1-.43,1.67,1.67,0,0,0,.38-1.14,1.59,1.59,0,0,0-.27-.95,3.73,3.73,0,0,0-1-.88,6.9,6.9,0,0,1-1.18-.88,2.21,2.21,0,0,1-.67-1.7,2,2,0,0,1,.62-1.51,2.15,2.15,0,0,1,1.57-.6,2.92,2.92,0,0,1,1.71.48l-.38.65a2.46,2.46,0,0,0-1.36-.43,1.42,1.42,0,0,0-1.05.39,1.38,1.38,0,0,0-.39,1,1.58,1.58,0,0,0,.27.94,4,4,0,0,0,1.12.92,6.77,6.77,0,0,1,1.16.89,2.09,2.09,0,0,1,.46.73A2.67,2.67,0,0,1,163.9,373.88Zm4.7,2.28a2.09,2.09,0,0,1-1.92-1.11,6.55,6.55,0,0,1-.64-3.25,6.81,6.81,0,0,1,.65-3.3,2.1,2.1,0,0,1,1.93-1.14,2.7,2.7,0,0,1,1.31.29l-.29.65a2.33,2.33,0,0,0-1-.24c-1.24,0-1.87,1.24-1.87,3.73s.63,3.69,1.87,3.69a3.27,3.27,0,0,0,1.2-.25v.63a2.32,2.32,0,0,1-.63.22A3.37,3.37,0,0,1,168.6,376.16Zm4.33-.16h-.74v-8.48h.74Zm-.85-10.83a.94.94,0,0,1,.14-.54.44.44,0,0,1,.38-.2.36.36,0,0,1,.33.2,1.19,1.19,0,0,1,0,1.08.38.38,0,0,1-.33.2.47.47,0,0,1-.38-.2A.94.94,0,0,1,172.08,365.17Zm6.65,11a2.07,2.07,0,0,1-1.17-.36,2.17,2.17,0,0,1-.79-1h-.07l.05.93v4.08H176V367.52h.61l.08,1.17h.07a2.48,2.48,0,0,1,.79-1,1.84,1.84,0,0,1,1.07-.34q2.49,0,2.49,4.38a7.21,7.21,0,0,1-.61,3.27A1.94,1.94,0,0,1,178.73,376.16Zm-.14-8.1a1.51,1.51,0,0,0-1.39.82,5.6,5.6,0,0,0-.45,2.57v.25a6.68,6.68,0,0,0,.46,2.87,1.5,1.5,0,0,0,1.41.91,1.36,1.36,0,0,0,1.29-.9,7,7,0,0,0,.43-2.84A7.48,7.48,0,0,0,180,369,1.39,1.39,0,0,0,178.59,368.06Zm5.94,7.94h-.74v-8.48h.74Zm-.85-10.83a.94.94,0,0,1,.14-.54.44.44,0,0,1,.38-.2.36.36,0,0,1,.33.2,1.19,1.19,0,0,1,0,1.08.38.38,0,0,1-.33.2.47.47,0,0,1-.38-.2A.94.94,0,0,1,183.68,365.17Zm5.48,10.3a1.87,1.87,0,0,0,.61-.09V376a2.2,2.2,0,0,1-.88.16c-.88,0-1.31-.66-1.31-2v-6h-.77v-.44l.75-.22.24-2h.52v2h1.34v.66h-1.34V374a2.46,2.46,0,0,0,.19,1.18A.7.7,0,0,0,189.16,375.47Zm9.91-1.59a2.37,2.37,0,0,1-.56,1.67,2.11,2.11,0,0,1-1.63.61,3.17,3.17,0,0,1-1-.15,2.69,2.69,0,0,1-.68-.33v-.87a2.09,2.09,0,0,0,.77.47,2.73,2.73,0,0,0,1,.17,1.29,1.29,0,0,0,1-.43,1.66,1.66,0,0,0,.37-1.14,1.59,1.59,0,0,0-.27-.95,3.81,3.81,0,0,0-1-.88,7.08,7.08,0,0,1-1.19-.88,2.53,2.53,0,0,1-.49-.73,2.4,2.4,0,0,1-.18-1,2,2,0,0,1,.62-1.51,2.17,2.17,0,0,1,1.57-.6,2.92,2.92,0,0,1,1.71.48l-.38.65a2.46,2.46,0,0,0-1.36-.43,1.42,1.42,0,0,0-1.05.39,1.38,1.38,0,0,0-.39,1,1.58,1.58,0,0,0,.27.94,4.18,4.18,0,0,0,1.12.92,6.38,6.38,0,0,1,1.16.89,2.09,2.09,0,0,1,.46.73A2.66,2.66,0,0,1,199.07,373.88Zm4.92,2.28a2.33,2.33,0,0,1-2.07-1.14,6,6,0,0,1-.72-3.2,7,7,0,0,1,.64-3.31,2,2,0,0,1,1.86-1.15,1.88,1.88,0,0,1,1.67,1,5.19,5.19,0,0,1,.61,2.7v.69h-4a6.12,6.12,0,0,0,.52,2.77,1.65,1.65,0,0,0,1.54.92,3.27,3.27,0,0,0,1.68-.52v.72A3.16,3.16,0,0,1,204,376.16Zm-.33-8.13c-1,0-1.58,1-1.68,3.06h3.25a4.81,4.81,0,0,0-.43-2.23A1.28,1.28,0,0,0,203.66,368Zm7.08,8.13q-2.48,0-2.47-4.39a6.87,6.87,0,0,1,.62-3.28,2,2,0,0,1,1.82-1.13,1.9,1.9,0,0,1,1.07.33,2.3,2.3,0,0,1,.82.9h.07l0-.94v-3.81h.74V376h-.61l-.06-1.19h-.07a2.61,2.61,0,0,1-.79,1A1.9,1.9,0,0,1,210.74,376.16Zm0-.65a1.51,1.51,0,0,0,1.37-.82,4.91,4.91,0,0,0,.49-2.43v-.49a6.35,6.35,0,0,0-.47-2.81,1.51,1.51,0,0,0-1.42-.9,1.36,1.36,0,0,0-1.31,1,7.62,7.62,0,0,0-.4,2.77,7.08,7.08,0,0,0,.42,2.77A1.38,1.38,0,0,0,210.78,375.51Zm12.82-1.63a2.33,2.33,0,0,1-.57,1.67,2.07,2.07,0,0,1-1.62.61,3.13,3.13,0,0,1-1-.15,2.53,2.53,0,0,1-.68-.33v-.87a2,2,0,0,0,.77.47,2.73,2.73,0,0,0,1,.17,1.29,1.29,0,0,0,1-.43,1.66,1.66,0,0,0,.37-1.14,1.59,1.59,0,0,0-.27-.95,3.73,3.73,0,0,0-1-.88,7.34,7.34,0,0,1-1.18-.88,2.21,2.21,0,0,1-.67-1.7,2,2,0,0,1,.62-1.51,2.15,2.15,0,0,1,1.57-.6,2.92,2.92,0,0,1,1.71.48l-.38.65a2.46,2.46,0,0,0-1.36-.43,1.42,1.42,0,0,0-1.05.39,1.38,1.38,0,0,0-.39,1,1.58,1.58,0,0,0,.27.94,4,4,0,0,0,1.12.92,6.77,6.77,0,0,1,1.16.89,2.09,2.09,0,0,1,.46.73A2.66,2.66,0,0,1,223.6,373.88Zm4.69,2.28a2.1,2.1,0,0,1-1.92-1.11,6.66,6.66,0,0,1-.64-3.25,6.81,6.81,0,0,1,.65-3.3,2.1,2.1,0,0,1,1.93-1.14,2.7,2.7,0,0,1,1.31.29l-.29.65a2.33,2.33,0,0,0-1-.24c-1.24,0-1.86,1.24-1.86,3.73s.62,3.69,1.86,3.69a3.27,3.27,0,0,0,1.2-.25v.63a2.32,2.32,0,0,1-.63.22A3.37,3.37,0,0,1,228.29,376.16Zm6,0a2.31,2.31,0,0,1-2.07-1.14,6,6,0,0,1-.72-3.2,6.84,6.84,0,0,1,.64-3.31,2,2,0,0,1,1.86-1.15,1.86,1.86,0,0,1,1.66,1,5.09,5.09,0,0,1,.61,2.7v.69h-4a6,6,0,0,0,.52,2.77,1.64,1.64,0,0,0,1.54.92,3.3,3.3,0,0,0,1.68-.52v.72A3.16,3.16,0,0,1,234.29,376.16ZM234,368q-1.53,0-1.68,3.06h3.26a4.81,4.81,0,0,0-.43-2.23A1.28,1.28,0,0,0,234,368Zm5.76,8H239V363.84h.75Zm5.48.16a2.31,2.31,0,0,1-2.07-1.14,6,6,0,0,1-.72-3.2,6.84,6.84,0,0,1,.64-3.31,2,2,0,0,1,1.86-1.15,1.87,1.87,0,0,1,1.66,1,5.09,5.09,0,0,1,.61,2.7v.69h-4a6,6,0,0,0,.53,2.77,1.64,1.64,0,0,0,1.54.92,3.3,3.3,0,0,0,1.68-.52v.72A3.18,3.18,0,0,1,245.19,376.16Zm-.34-8.13q-1.53,0-1.68,3.06h3.26a4.81,4.81,0,0,0-.43-2.23A1.29,1.29,0,0,0,244.85,368Zm7.36-.67a2.56,2.56,0,0,1,.75.11l-.19.74a1.39,1.39,0,0,0-.57-.12,1.06,1.06,0,0,0-.81.45,3.36,3.36,0,0,0-.58,1.23,6.69,6.69,0,0,0-.21,1.74V376h-.74v-8.48h.61l.08,1.49h0C251,367.91,251.54,367.36,252.21,367.36Zm3.57,8.64H255v-8.48h.74Zm-.85-10.83a.87.87,0,0,1,.14-.54.43.43,0,0,1,.37-.2.37.37,0,0,1,.34.2,1.27,1.27,0,0,1,0,1.08.39.39,0,0,1-.34.2.45.45,0,0,1-.37-.2A.87.87,0,0,1,254.93,365.17Zm7.25,8.71a2.37,2.37,0,0,1-.56,1.67,2.11,2.11,0,0,1-1.63.61,3.11,3.11,0,0,1-1-.15,2.39,2.39,0,0,1-.68-.33v-.87a2,2,0,0,0,.76.47,2.77,2.77,0,0,0,1,.17,1.28,1.28,0,0,0,1-.43,1.67,1.67,0,0,0,.38-1.14,1.6,1.6,0,0,0-.28-.95,3.81,3.81,0,0,0-1-.88,7.08,7.08,0,0,1-1.19-.88,2.53,2.53,0,0,1-.49-.73,2.4,2.4,0,0,1-.17-1,2,2,0,0,1,.61-1.51,2.18,2.18,0,0,1,1.57-.6,2.93,2.93,0,0,1,1.72.48l-.39.65a2.43,2.43,0,0,0-1.36-.43,1.41,1.41,0,0,0-1,.39,1.38,1.38,0,0,0-.39,1,1.58,1.58,0,0,0,.26.94,4.1,4.1,0,0,0,1.13.92,6.59,6.59,0,0,1,1.15.89,2.09,2.09,0,0,1,.46.73A2.45,2.45,0,0,1,262.18,373.88Zm4.56,2.28a2,2,0,0,1-1.82-1.08,6.94,6.94,0,0,1-.62-3.31,6.54,6.54,0,0,1,.66-3.32,2,2,0,0,1,1.81-1.09,2,2,0,0,1,1.87,1.3h.06l.12-1.14h.59v12.32h-.74v-3.66c0-.35,0-.82.07-1.41h-.07A2.11,2.11,0,0,1,266.74,376.16Zm.11-.68a1.48,1.48,0,0,0,1.34-.84,5.17,5.17,0,0,0,.48-2.48v-.39a6.35,6.35,0,0,0-.47-2.81,1.51,1.51,0,0,0-1.42-.9,1.36,1.36,0,0,0-1.31,1,7.62,7.62,0,0,0-.4,2.77,6.93,6.93,0,0,0,.42,2.82A1.43,1.43,0,0,0,266.85,375.48Zm6.34-8v5.53a4.2,4.2,0,0,0,.3,1.84,1,1,0,0,0,.93.58,1.52,1.52,0,0,0,1.41-.77,5.31,5.31,0,0,0,.45-2.52v-4.66H277V376h-.62l-.09-1.19h-.07a2.28,2.28,0,0,1-.75,1,1.82,1.82,0,0,1-1.06.35,1.68,1.68,0,0,1-1.5-.73,4.58,4.58,0,0,1-.47-2.38v-5.53Zm9.3,8.64a2.31,2.31,0,0,1-2.07-1.14,6,6,0,0,1-.72-3.2,6.84,6.84,0,0,1,.64-3.31,2,2,0,0,1,1.86-1.15,1.87,1.87,0,0,1,1.66,1,5.09,5.09,0,0,1,.61,2.7v.69h-4a6,6,0,0,0,.53,2.77,1.64,1.64,0,0,0,1.54.92,3.3,3.3,0,0,0,1.68-.52v.72A3.21,3.21,0,0,1,282.49,376.16Zm-.34-8.13q-1.53,0-1.68,3.06h3.26a4.94,4.94,0,0,0-.43-2.23A1.29,1.29,0,0,0,282.15,368Zm4.92,7.27c0-.56.2-.84.61-.84a.57.57,0,0,1,.43.19.92.92,0,0,1,.18.65.94.94,0,0,1-.18.64.61.61,0,0,1-.43.19C287.27,376.13,287.07,375.85,287.07,375.3Zm14.14.7h-1l-4.32-10.24h-.06q.09,1.07.09,2V376h-.75V364.58h1l4.29,10.12h0c0-.85-.06-1.56-.06-2.14v-8h.75Zm8-4.26a6.39,6.39,0,0,1-.68,3.28,2.11,2.11,0,0,1-1.93,1.14,2.09,2.09,0,0,1-1.9-1.14,6.62,6.62,0,0,1-.66-3.28c0-2.92.87-4.38,2.59-4.38a2.09,2.09,0,0,1,1.9,1.15A6.29,6.29,0,0,1,309.16,371.74Zm-4.4,0a6.87,6.87,0,0,0,.44,2.78,1.44,1.44,0,0,0,1.37.93c1.21,0,1.82-1.23,1.82-3.71s-.61-3.68-1.82-3.68a1.43,1.43,0,0,0-1.38.92A6.79,6.79,0,0,0,304.76,371.74Zm10.9,4.26v-5.84c0-1.41-.42-2.11-1.25-2.11a1.49,1.49,0,0,0-1.4.79,5.39,5.39,0,0,0-.44,2.5V376h-.74v-8.48h.62l.07,1.18h.07a2.31,2.31,0,0,1,.76-1,1.87,1.87,0,0,1,1.07-.35,1.73,1.73,0,0,1,1.48.66,3.58,3.58,0,0,1,.49,2.12V376Zm9.65.16c-1.64,0-2.47-1.46-2.47-4.39a7,7,0,0,1,.62-3.28,2,2,0,0,1,2.9-.8,2.38,2.38,0,0,1,.82.9h.06l0-.94v-3.81H328V376h-.61l-.06-1.19h-.07a2.52,2.52,0,0,1-.79,1A1.86,1.86,0,0,1,325.31,376.16Zm.05-.65a1.52,1.52,0,0,0,1.37-.82,4.92,4.92,0,0,0,.48-2.43v-.49a6.35,6.35,0,0,0-.47-2.81,1.5,1.5,0,0,0-1.41-.9,1.35,1.35,0,0,0-1.31,1,7.41,7.41,0,0,0-.4,2.77,7.31,7.31,0,0,0,.41,2.77A1.39,1.39,0,0,0,325.36,375.51Zm6.38-8v5.53a4.38,4.38,0,0,0,.29,1.84,1,1,0,0,0,.93.58,1.51,1.51,0,0,0,1.41-.77,5.31,5.31,0,0,0,.45-2.52v-4.66h.74V376h-.63l-.09-1.19h-.06a2.38,2.38,0,0,1-.76,1,1.8,1.8,0,0,1-1.06.35,1.68,1.68,0,0,1-1.5-.73,4.58,4.58,0,0,1-.47-2.38v-5.53Zm7.63,8.48h-.75v-8.48h.75Zm-.86-10.83a.94.94,0,0,1,.14-.54.44.44,0,0,1,.38-.2.38.38,0,0,1,.34.2,1.27,1.27,0,0,1,0,1.08.4.4,0,0,1-.34.2.47.47,0,0,1-.38-.2A.94.94,0,0,1,338.51,365.17Zm7.26,8.71a2.33,2.33,0,0,1-.57,1.67,2.07,2.07,0,0,1-1.62.61,3.17,3.17,0,0,1-1-.15,2.69,2.69,0,0,1-.68-.33v-.87a2.09,2.09,0,0,0,.77.47,2.73,2.73,0,0,0,1,.17,1.29,1.29,0,0,0,1-.43,1.66,1.66,0,0,0,.37-1.14,1.59,1.59,0,0,0-.27-.95,3.81,3.81,0,0,0-1-.88,7.08,7.08,0,0,1-1.19-.88,2.53,2.53,0,0,1-.49-.73,2.4,2.4,0,0,1-.18-1,2,2,0,0,1,.62-1.51,2.17,2.17,0,0,1,1.57-.6,2.92,2.92,0,0,1,1.71.48l-.38.65a2.46,2.46,0,0,0-1.36-.43,1.42,1.42,0,0,0-1.05.39,1.38,1.38,0,0,0-.39,1,1.58,1.58,0,0,0,.27.94,4.18,4.18,0,0,0,1.12.92,6.38,6.38,0,0,1,1.16.89,2.09,2.09,0,0,1,.46.73A2.66,2.66,0,0,1,345.77,373.88Zm8.74,2.28a2.31,2.31,0,0,1-2.07-1.14,6,6,0,0,1-.72-3.2,6.84,6.84,0,0,1,.64-3.31,2,2,0,0,1,1.86-1.15,1.86,1.86,0,0,1,1.66,1,5.09,5.09,0,0,1,.61,2.7v.69h-4a6,6,0,0,0,.52,2.77,1.64,1.64,0,0,0,1.54.92,3.3,3.3,0,0,0,1.68-.52v.72A3.16,3.16,0,0,1,354.51,376.16Zm-.34-8.13q-1.53,0-1.68,3.06h3.26a4.81,4.81,0,0,0-.43-2.23A1.28,1.28,0,0,0,354.17,368Zm8.84,8v-5.84c0-1.41-.42-2.11-1.25-2.11a1.5,1.5,0,0,0-1.4.79,5.39,5.39,0,0,0-.44,2.5V376h-.74v-8.48h.63l.06,1.18h.07a2.26,2.26,0,0,1,.77-1,1.85,1.85,0,0,1,1.07-.35,1.72,1.72,0,0,1,1.47.66,3.58,3.58,0,0,1,.49,2.12V376Zm4.51,0h-.74v-8.48h.74Zm-.85-10.83a.94.94,0,0,1,.14-.54.44.44,0,0,1,.38-.2.36.36,0,0,1,.33.2,1.19,1.19,0,0,1,0,1.08.38.38,0,0,1-.33.2.47.47,0,0,1-.38-.2A.94.94,0,0,1,366.67,365.17ZM377.8,376v-5.77c0-1.43-.42-2.14-1.25-2.14a1.29,1.29,0,0,0-1.24.75,5.05,5.05,0,0,0-.38,2.2v5h-.73v-5.77a3.16,3.16,0,0,0-.31-1.6,1,1,0,0,0-.94-.54,1.29,1.29,0,0,0-1.23.77,5.84,5.84,0,0,0-.38,2.48V376h-.74v-8.48h.62l.06,1.18h.07a1.79,1.79,0,0,1,1.73-1.34,1.57,1.57,0,0,1,1.11.37,2.18,2.18,0,0,1,.58,1.1,2.71,2.71,0,0,1,.75-1.13,1.86,1.86,0,0,1,1.16-.34,1.54,1.54,0,0,1,1.41.74,4.83,4.83,0,0,1,.44,2.36V376Zm8.34,0h-.74v-8.48h.74Zm-.85-10.83a.94.94,0,0,1,.14-.54.43.43,0,0,1,.37-.2.36.36,0,0,1,.34.2,1.19,1.19,0,0,1,0,1.08.38.38,0,0,1-.34.2.45.45,0,0,1-.37-.2A.94.94,0,0,1,385.29,365.17ZM393,376v-5.84c0-1.41-.41-2.11-1.25-2.11a1.5,1.5,0,0,0-1.4.79,5.41,5.41,0,0,0-.43,2.5V376h-.75v-8.48h.63l.06,1.18H390a2.26,2.26,0,0,1,.77-1,1.85,1.85,0,0,1,1.07-.35,1.71,1.71,0,0,1,1.47.66,3.58,3.58,0,0,1,.5,2.12V376Zm8.33,0h-.74v-8.48h.74Zm-.85-10.83a.87.87,0,0,1,.14-.54.43.43,0,0,1,.37-.2.37.37,0,0,1,.34.2,1.27,1.27,0,0,1,0,1.08.39.39,0,0,1-.34.2.45.45,0,0,1-.37-.2A.87.87,0,0,1,400.52,365.17ZM408.27,376v-5.84c0-1.41-.42-2.11-1.25-2.11a1.5,1.5,0,0,0-1.4.79,5.39,5.39,0,0,0-.44,2.5V376h-.74v-8.48h.63l.06,1.18h.07a2.26,2.26,0,0,1,.77-1,1.85,1.85,0,0,1,1.07-.35,1.72,1.72,0,0,1,1.47.66,3.58,3.58,0,0,1,.5,2.12V376Zm3.68-.7q0-.84.6-.84a.56.56,0,0,1,.43.19.92.92,0,0,1,.18.65.94.94,0,0,1-.18.64.59.59,0,0,1-.43.19C412.15,376.13,412,375.85,412,375.3Z"/></svg>