<svg width="32" height="32" fill="none" xmlns="http://www.w3.org/2000/svg"><rect x=".5" y=".5" width="31" height="31" rx="3.5" stroke="#5C6BC0"/><path d="M15.999 7.188C11.029 7.188 7 11.232 7 16.224a9.035 9.035 0 006.156 8.573c.45.083.614-.196.614-.435 0-.215-.008-.783-.012-1.537-2.503.546-3.032-1.212-3.032-1.212-.408-1.044-.999-1.322-.999-1.322-.818-.56.06-.549.06-.549.904.065 1.379.932 1.379.932.803 1.38 2.107.982 2.62.75.081-.584.314-.982.572-1.208-1.998-.228-4.1-1.003-4.1-4.465 0-.987.351-1.793.927-2.425-.093-.229-.402-1.148.088-2.391 0 0 .756-.243 2.475.926A8.59 8.59 0 0116 11.557a8.606 8.606 0 012.253.305c1.718-1.169 2.473-.926 2.473-.926.49 1.244.183 2.162.09 2.39.577.633.925 1.44.925 2.426 0 3.47-2.104 4.235-4.108 4.458.322.28.61.83.61 1.673 0 1.209-.01 2.183-.01 2.479 0 .242.161.523.618.434A9.036 9.036 0 0025 16.224c0-4.991-4.03-9.037-9.001-9.037z" fill="#5C6BC0"/></svg>