<svg width="32" height="32" fill="none" xmlns="http://www.w3.org/2000/svg"><g clip-path="url(#clip0)" fill="#0077B5"><path d="M11.19 12.79H7.576a.29.29 0 00-.29.29v11.61c0 .16.13.29.29.29h3.614c.16 0 .29-.13.29-.29V13.08a.29.29 0 00-.29-.29zM9.384 7.02A2.386 2.386 0 007 9.4a2.386 2.386 0 002.384 2.383 2.385 2.385 0 002.383-2.383A2.385 2.385 0 009.384 7.02zM20.381 12.502c-1.451 0-2.524.624-3.175 1.333v-.754a.29.29 0 00-.29-.29h-3.46a.29.29 0 00-.291.29v11.608c0 .16.13.29.29.29h3.606c.16 0 .29-.13.29-.29v-5.743c0-1.936.526-2.69 1.875-2.69 1.47 0 1.586 1.21 1.586 2.79v5.644c0 .16.13.29.29.29h3.608c.16 0 .29-.13.29-.29v-6.368c0-2.878-.549-5.82-4.619-5.82z"/></g><rect x=".5" y=".5" width="31" height="31" rx="3.5" stroke="#0077B5"/><defs><clipPath id="clip0"><path fill="#fff" transform="translate(7 7)" d="M0 0h18v18H0z"/></clipPath></defs></svg>