<svg width="32" height="32" fill="none" xmlns="http://www.w3.org/2000/svg"><rect x=".5" y=".5" width="31" height="31" rx="3.5" stroke="#FF9800"/><g clip-path="url(#clip0)"><path d="M11.832 18.129l7.754 1.647.325-1.567-7.754-1.659-.325 1.579zM11.661 20.178h7.925v1.595H11.66v-1.595zM12.85 14.373l7.179 3.395.665-1.458-7.183-3.404-.661 1.467z" fill="#FF9800"/><path d="M20.03 17.769v-.001h-.002.003z" fill="#FF9800"/><path d="M8.5 18.572V25h14.244v-6.428h-1.585v4.82H10.085v-4.82H8.5z" fill="#757575"/><path d="M14.84 10.798l6.082 5.154 1.01-1.237-6.083-5.155-1.01 1.238zM23.5 13.44L18.774 7l-1.269.965 4.727 6.44 1.268-.965z" fill="#FF9800"/></g><defs><clipPath id="clip0"><path fill="#fff" transform="translate(7 7)" d="M0 0h18v18H0z"/></clipPath></defs></svg>