<svg xmlns="http://www.w3.org/2000/svg" id="space" viewBox="0 0 239.56 41.56"><defs><style>.cls-1{fill:#113d66}</style></defs><g id="Smoke2"><path d="M31.22 107.85A21.27 21.27 0 000 90.64v17.21zm67.96 0a21.25 21.25 0 00-31.78 0zm37.67 0a21.24 21.24 0 00-34.35 0z" class="cls-1" transform="translate(0 -66.35)"/><path d="M175 107.85c-4.63-6.16-13.08-10.49-22.89-10.93-11-.49-20.67 4-25.45 10.93zm-101.13 0a16.75 16.75 0 00.55-3.63 17.35 17.35 0 10-34.12 3.63z" class="cls-1" transform="translate(0 -66.35)"/><path d="M48.08 107.85a10.5 10.5 0 10-19.6-5.69 10.47 10.47 0 001.37 5.69z" class="cls-1" transform="translate(0 -66.35)"/><circle cx="27.94" cy="96.48" r="7.28" class="cls-1" transform="rotate(-42.84 -56.63 63.304)"/><path d="M11.7 71.93A14.87 14.87 0 000 76.78v20.14a14.94 14.94 0 1011.7-25z" class="cls-1" transform="translate(0 -66.35)"/><path d="M0 66.35v28.27a14.93 14.93 0 0010.09-13.46A14.94 14.94 0 000 66.35zm79 26.78a6.07 6.07 0 11-5.79-6.34A6.08 6.08 0 0179 93.13z" class="cls-1" transform="translate(0 -66.35)"/><path d="M78.2 107.85h8.9a8.88 8.88 0 10-8.9 0z" class="cls-1" transform="translate(0 -66.35)"/><path d="M112.29 107.85a13.47 13.47 0 10-22.15 0z" class="cls-1" transform="translate(0 -66.35)"/><circle cx="111.83" cy="97.43" r="8.89" class="cls-1" transform="rotate(-17.43 -104.595 64.256)"/><circle cx="127.46" cy="90.87" r="16.29" class="cls-1" transform="rotate(-46.17 49.615 57.688)"/><circle cx="145.12" cy="92.87" r="8.89" class="cls-1" transform="rotate(-66.19 94.216 59.69)"/><path d="M157 90.58a4.05 4.05 0 11-3.87-4.23 4.05 4.05 0 013.87 4.23z" class="cls-1" transform="translate(0 -66.35)"/><circle cx="168.56" cy="21.44" r="8.89" class="cls-1"/><path d="M176.15 75.68a4.38 4.38 0 11-4.15-4.57 4.38 4.38 0 014.15 4.57z" class="cls-1" transform="translate(0 -66.35)"/><path d="M177.35 72.3a2.9 2.9 0 11-2.77-3 2.89 2.89 0 012.77 3zm5.4 4.04a2.91 2.91 0 11-2.77-3 2.91 2.91 0 012.77 3z" class="cls-1" transform="translate(0 -66.35)"/><path d="M186.92 82.35a4.72 4.72 0 11-4.51-4.93 4.73 4.73 0 014.51 4.93z" class="cls-1" transform="translate(0 -66.35)"/><path d="M195.66 85.54a6.52 6.52 0 11-6.22-6.81 6.52 6.52 0 016.22 6.81zm-33.07 4.13a4 4 0 11-3.86-4.23 4 4 0 013.86 4.23z" class="cls-1" transform="translate(0 -66.35)"/><path d="M163.93 107.85a12.76 12.76 0 001.35-5.2 12.92 12.92 0 10-24.46 5.2z" class="cls-1" transform="translate(0 -66.35)"/><path d="M165.11 107.85h11.69a8.48 8.48 0 10-11.69 0z" class="cls-1" transform="translate(0 -66.35)"/><path d="M193.19 107.85a14.13 14.13 0 00-28.17 0z" class="cls-1" transform="translate(0 -66.35)"/></g><circle cx="174.45" cy="15.15" r="8.89" class="cls-1"/><circle cx="183.34" cy="25.84" r="8.89" class="cls-1"/><path d="M239.56 99.1a8.88 8.88 0 00-14.05 6.82 9 9 0 00.13 2H234c.37-.06 3-.06 5.52 0v-5zm-29.74 8.73a8.89 8.89 0 10-16.63-4.09 8.77 8.77 0 001.14 4.1h13.62z" class="cls-1" transform="translate(0 -66.35)"/><path d="M218.6 107.85a5.44 5.44 0 10-10.66-1.78 5.19 5.19 0 00.22 1.77h9zM198.59 95a4.72 4.72 0 11-4.51-4.94 4.72 4.72 0 014.51 4.94z" class="cls-1" transform="translate(0 -66.35)"/><path d="M226.4 107.91h1.48a5.64 5.64 0 001.27-3.35 5.77 5.77 0 10-10.29 3.31c3 0 7.54 0 7.54.05zm-26.57-.06a8.89 8.89 0 10-16.63-4.09 8.77 8.77 0 001.14 4.1h13.62z" class="cls-1" transform="translate(0 -66.35)"/></svg>