<svg id="space" xmlns="http://www.w3.org/2000/svg" viewBox="0 0 239.52 39.74"><defs><style>.cls-1{fill:#0a3954}.cls-2{fill:#0e3254}</style></defs><g id="Smoke4"><path class="cls-1" d="M239.54 77.64a11 11 0 000 20.92z" transform="translate(-.02 -68.11)"/><path class="cls-1" d="M239.54 86.56c-3-3.37-8.7-4.87-14.5-3.43-7.69 1.9-12.74 8.23-11.28 14.15s8.88 9.16 16.57 7.26a16.6 16.6 0 009.21-5.75z" transform="translate(-.02 -68.11)"/><path class="cls-1" d="M236 107.85h3.53V96.46a8.45 8.45 0 00-4.25 9.49 9 9 0 00.72 1.9z" transform="translate(-.02 -68.11)"/><path class="cls-1" d="M230.43 107.85h8a4.61 4.61 0 10-8.46-1.22 5 5 0 00.46 1.22z" transform="translate(-.02 -68.11)"/><path class="cls-1" d="M233 107.85a1.88 1.88 0 00-.06-.46 2.1 2.1 0 00-4.14.46z" transform="translate(-.02 -68.11)"/><path class="cls-1" d="M226.16 107.85h6.59a6.7 6.7 0 10-6.59 0z" transform="translate(-.02 -68.11)"/><path class="cls-1" d="M217 107.85h6.59A4.4 4.4 0 10216 106a4.56 4.56 0 001 1.85z" transform="translate(-.02 -68.11)"/><path class="cls-1" d="M210.1 107.85h10.1a7.32 7.32 0 10-10.1 0z" transform="translate(-.02 -68.11)"/></g><g id="Smoke3"><path class="cls-2" d="M216 87.31a11 11 0 1112.38 9.49A11 11 0 01216 87.31zM177.4 87.55A11 11 0 11189.77 97a11 11 0 01-12.37-9.45z" transform="translate(-.02 -68.11)"/><circle class="cls-2" cx="169.89" cy="90.23" r="11.03" transform="rotate(-13.39 -120.175 56.28)"/><path class="cls-2" d="M139.78 96.1c-.79-6 4.93-11.77 12.78-12.81s14.86 3 15.66 9.06-4.92 11.77-12.77 12.81-14.87-3.02-15.67-9.06z" transform="translate(-.02 -68.11)"/><circle class="cls-2" cx="203.4" cy="93.19" r="9" transform="rotate(-52.23 133.9 59.163)"/><path class="cls-2" d="M207.33 92.67a5.45 5.45 0 116.11 4.69 5.44 5.44 0 01-6.11-4.69z" transform="translate(-.02 -68.11)"/><circle class="cls-2" cx="218.91" cy="94.09" r="3.77" transform="rotate(-52.83 150.34 60.058)"/><path class="cls-2" d="M220.75 98.49a7.75 7.75 0 118.69 6.67 7.74 7.74 0 01-8.69-6.67z" transform="translate(-.02 -68.11)"/><path class="cls-2" d="M239.54 91.93a7.75 7.75 0 10-1.42 15 8.16 8.16 0 001.42-.33z" transform="translate(-.02 -68.11)"/><circle class="cls-2" cx="196.29" cy="100.03" r="3.15" transform="rotate(-83 157.799 65.99)"/><path class="cls-2" d="M186.07 97.8a4.61 4.61 0 115.17 4 4.61 4.61 0 01-5.17-4z" transform="translate(-.02 -68.11)"/><path class="cls-2" d="M174.23 99.78a7 7 0 117.84 6 7 7 0 01-7.84-6z" transform="translate(-.02 -68.11)"/><circle class="cls-2" cx="175.96" cy="33.13" r="4.61"/><path class="cls-2" d="M160.35 107.85h16.5a8.54 8.54 0 00.13-2.95 8.45 8.45 0 00-16.76 2.21c.03.25.08.5.13.74z" transform="translate(-.02 -68.11)"/><path class="cls-2" d="M155 107.85h8.87a4.61 4.61 0 10-9-.66 3.67 3.67 0 00.13.66z" transform="translate(-.02 -68.11)"/><path class="cls-2" d="M157.62 107.85a2.1 2.1 0 00-4 0z" transform="translate(-.02 -68.11)"/><path class="cls-2" d="M150.75 107.85H159a6.7 6.7 0 10-8.21 0z" transform="translate(-.02 -68.11)"/><path class="cls-2" d="M142.63 107.85h5.54a4.4 4.4 0 10-5.54 0z" transform="translate(-.02 -68.11)"/><path class="cls-2" d="M137 107.85h7.27a7.33 7.33 0 10-7.27 0zM96.25 84.29a11 11 0 1110.89 11.17 11 11 0 01-10.89-11.17z" transform="translate(-.02 -68.11)"/><circle class="cls-2" cx="69.07" cy="79.14" r="11.03" transform="rotate(-45 -13.143 45.114)"/><path class="cls-2" d="M39.21 80.43A11 11 0 1150.1 91.6a11 11 0 01-10.89-11.17z" transform="translate(-.02 -68.11)"/><path class="cls-2" d="M19.6 82.06c.07-6.09 6.56-10.94 14.48-10.84s14.27 5.12 14.2 11.21-6.56 10.95-14.48 10.85-14.28-5.12-14.2-11.22zM74 88.19a9 9 0 118.89 9.12A9 9 0 0174 88.19z" transform="translate(-.02 -68.11)"/><path class="cls-2" d="M86.93 88.35a5.45 5.45 0 115.38 5.52 5.45 5.45 0 01-5.38-5.52z" transform="translate(-.02 -68.11)"/><circle class="cls-2" cx="98.17" cy="23.32" r="3.77"/><circle class="cls-2" cx="107.13" cy="96.14" r="7.75" transform="rotate(-10.9 -249.78 62.21)"/><circle class="cls-2" cx="115.46" cy="99.17" r="7.75" transform="rotate(-43.8 30.735 65.148)"/><path class="cls-2" d="M71.8 94a3.15 3.15 0 113.11 3.19A3.16 3.16 0 0171.8 94z" transform="translate(-.02 -68.11)"/><path class="cls-2" d="M65.16 90.38a4.61 4.61 0 114.55 4.67 4.61 4.61 0 01-4.55-4.67z" transform="translate(-.02 -68.11)"/><path class="cls-2" d="M53.16 90.65a7 7 0 116.9 7.07 7 7 0 01-6.9-7.07z" transform="translate(-.02 -68.11)"/><path class="cls-2" d="M50.08 92.28A4.61 4.61 0 1154.63 97a4.6 4.6 0 01-4.55-4.72z" transform="translate(-.02 -68.11)"/><path class="cls-2" d="M38.24 95.89a8.45 8.45 0 118.35 8.56 8.45 8.45 0 01-8.35-8.56z" transform="translate(-.02 -68.11)"/><path class="cls-2" d="M32.89 95.2a4.61 4.61 0 114.55 4.67 4.6 4.6 0 01-4.55-4.67z" transform="translate(-.02 -68.11)"/><path class="cls-2" d="M31.41 96.64a2.1 2.1 0 112.07 2.13 2.09 2.09 0 01-2.07-2.13z" transform="translate(-.02 -68.11)"/><circle class="cls-2" cx="33.59" cy="90.61" r="6.7" transform="rotate(-45 -48.636 56.576)"/><path class="cls-2" d="M19.56 91.06a4.4 4.4 0 114.34 4.45 4.41 4.41 0 01-4.34-4.45z" transform="translate(-.02 -68.11)"/><path class="cls-2" d="M12.29 87.41a7.33 7.33 0 117.23 7.42 7.33 7.33 0 01-7.23-7.42z" transform="translate(-.02 -68.11)"/></g><path class="cls-2" d="M11.87 82.6A15.91 15.91 0 000 87.21v12.72a16 16 0 0011.57 4.73c7.92.1 14.4-4.75 14.48-10.84S19.79 82.7 11.87 82.6z" transform="translate(-.02 -68.11)"/></svg>