<svg data-name="Layer 1" xmlns="http://www.w3.org/2000/svg" viewBox="0 0 576 386"><line x1="106" y1="41.5" x2="576" y2="41.5" fill="none" stroke="#dedede"/><line x1="106" y1="113.5" x2="576" y2="113.5" fill="none" stroke="#dedede"/><line x1="106" y1="185.5" x2="576" y2="185.5" fill="none" stroke="#dedede"/><line x1="106" y1="271.5" x2="576" y2="271.5" fill="none" stroke="#dedede"/><line x1="106" y1="298.5" x2="576" y2="298.5" fill="none" stroke="#dedede"/><line x1="106" y1="358.5" x2="576" y2="358.5" fill="none" stroke="#dedede"/><line x1="106" y1="382.5" x2="576" y2="382.5" fill="none" stroke="#dedede"/><path d="M5.92,37H5.25V32.08H1.76V37H1.09V27h.67v4.43H5.25V27h.67Zm7.91,0H10.21V27h3.62v.64H10.88v3.79h2.79v.64H10.88v4.28h2.95Zm7.64,0-.88-3.62H18.17L17.3,37h-.7L19,27h.69l2.46,10Zm-1-4.3L19.55,29c-.09-.41-.16-.81-.21-1.18A9.66,9.66,0,0,1,19.15,29L18.3,32.7Zm9.87-.79c0,3.39-1,5.09-3.17,5.09H25.36V27h1.82a2.56,2.56,0,0,1,2.33,1.25A6.72,6.72,0,0,1,30.31,31.91Zm-.7,0A6.76,6.76,0,0,0,29,28.73a2,2,0,0,0-1.84-1.11H26v8.76h1.06A2,2,0,0,0,29,35.25,7.1,7.1,0,0,0,29.61,32ZM34.27,37V27h.67V37Zm10.22,0h-.86l-3.78-9H39.8c.05.62.08,1.21.08,1.79V37h-.66V27h.87l3.76,8.86h0c0-.75-.06-1.38-.06-1.88V27h.66Zm7.57-5h2.19v4.73a6.4,6.4,0,0,1-2.37.45,2.88,2.88,0,0,1-2.54-1.37,6.85,6.85,0,0,1-.9-3.79,6.58,6.58,0,0,1,.93-3.78A3,3,0,0,1,52,26.86a4,4,0,0,1,2.14.64l-.33.59a3.36,3.36,0,0,0-1.81-.6,2.36,2.36,0,0,0-2.13,1.16A6.33,6.33,0,0,0,49.15,32a6.33,6.33,0,0,0,.73,3.33,2.29,2.29,0,0,0,2.06,1.17,4.62,4.62,0,0,0,1.63-.25V32.6H52.06Zm10,2.42a2.88,2.88,0,0,1-.69,2,2.24,2.24,0,0,1-1.73.76,4.48,4.48,0,0,1-1.92-.35v-.73a3,3,0,0,0,.88.32,4.6,4.6,0,0,0,1,.11,1.54,1.54,0,0,0,1.25-.58,2.18,2.18,0,0,0,.5-1.47,2.27,2.27,0,0,0-.35-1.32,3.69,3.69,0,0,0-1.34-1,5,5,0,0,1-1.15-.75,2.32,2.32,0,0,1-.57-.85,3.39,3.39,0,0,1-.18-1.17,2.81,2.81,0,0,1,.3-1.31,2.19,2.19,0,0,1,.84-.89,2.3,2.3,0,0,1,1.18-.32,4.19,4.19,0,0,1,1,.13,4,4,0,0,1,.76.28l-.26.65a3.36,3.36,0,0,0-1.55-.39,1.54,1.54,0,0,0-1.2.5,1.87,1.87,0,0,0-.46,1.33,2.14,2.14,0,0,0,.34,1.3,3.76,3.76,0,0,0,1.31,1,3.79,3.79,0,0,1,1.47,1.15A2.64,2.64,0,0,1,62.07,34.38Z" fill="#8e8e8e"/><path d="M125.15,41H120.1V29.11h-6.66V41h-5V13.87h5V24.65h6.66V13.87h5.05Zm14,.37a7.49,7.49,0,0,1-6.12-2.74c-1.48-1.85-2.23-4.45-2.23-7.82s.68-6.08,2-8a6.5,6.5,0,0,1,5.64-2.88,6.4,6.4,0,0,1,5.32,2.47,10.79,10.79,0,0,1,2,6.88v2.64h-9.93A6.81,6.81,0,0,0,137,36.05a3.58,3.58,0,0,0,3,1.33,9.64,9.64,0,0,0,4.94-1.5v4.06A10.86,10.86,0,0,1,139.18,41.37Zm-.72-17.63a2,2,0,0,0-1.75,1.14,7.51,7.51,0,0,0-.79,3.47h5a7.62,7.62,0,0,0-.69-3.44A2,2,0,0,0,138.46,23.74ZM161.07,41l-1-2.82H160a6.93,6.93,0,0,1-2.26,2.5,5.72,5.72,0,0,1-3,.69,4.3,4.3,0,0,1-3.6-1.71,7.64,7.64,0,0,1-1.3-4.75,6.13,6.13,0,0,1,1.78-4.84A8.51,8.51,0,0,1,157,28.31l2.75-.11V26.71c0-1.93-.84-2.89-2.51-2.89A8.53,8.53,0,0,0,153,25.27l-1.71-3.42a12.29,12.29,0,0,1,6.7-2,6.35,6.35,0,0,1,5,1.9,7.57,7.57,0,0,1,1.72,5.32V41Zm-4.29-3.49a2.46,2.46,0,0,0,2.15-1.2,5.73,5.73,0,0,0,.82-3.25V31.31l-1.52.08a3.48,3.48,0,0,0-2.49,1A3.79,3.79,0,0,0,155,35C155,36.66,155.57,37.51,156.78,37.51ZM176,41.37a5,5,0,0,1-4.51-2.82,15.62,15.62,0,0,1-1.65-7.85,16.22,16.22,0,0,1,1.61-7.9,4.94,4.94,0,0,1,4.46-2.86,4.17,4.17,0,0,1,2.43.71A6.11,6.11,0,0,1,180.26,23h.3c-.15-1.88-.23-3.19-.23-3.95v-6.9h4.94V41H181.6l-.84-2.69h-.17A5,5,0,0,1,176,41.37Zm1.6-4.17a2.1,2.1,0,0,0,2-1.25,11.82,11.82,0,0,0,.69-4.56v-.65a13.9,13.9,0,0,0-.65-5.07,2.16,2.16,0,0,0-2.1-1.46c-.92,0-1.58.56-2,1.69a14.81,14.81,0,0,0-.62,4.88,14,14,0,0,0,.64,4.82A2.15,2.15,0,0,0,177.61,37.2ZM196.3,41h-4.94V20.33h4.94Zm-5.14-26.07a2.6,2.6,0,0,1,.7-1.93,2.73,2.73,0,0,1,2-.72,2.62,2.62,0,0,1,1.93.72,2.57,2.57,0,0,1,.72,1.93,2.61,2.61,0,0,1-.74,2,2.69,2.69,0,0,1-1.91.68,2.78,2.78,0,0,1-2-.68A2.61,2.61,0,0,1,191.16,14.93ZM212.73,41V28.68a8.32,8.32,0,0,0-.54-3.4,1.82,1.82,0,0,0-1.75-1.15,2.45,2.45,0,0,0-2.33,1.6,13.51,13.51,0,0,0-.75,5.34V41h-4.93V20.33h3.91l.6,2.65h.31a5.26,5.26,0,0,1,1.91-2.22,5.15,5.15,0,0,1,2.92-.82,4.84,4.84,0,0,1,4.21,1.93,9.5,9.5,0,0,1,1.41,5.64V41Zm25.74-20.63v2.89l-2.47.56a6.63,6.63,0,0,1,.73,3.26,7.1,7.1,0,0,1-1.79,5.14,6.54,6.54,0,0,1-5,1.86,4.61,4.61,0,0,1-1.37-.15,5.67,5.67,0,0,0-.67.71,1.48,1.48,0,0,0-.31,1c0,.87.74,1.3,2.24,1.3h3a5.44,5.44,0,0,1,4,1.43,5.72,5.72,0,0,1,1.43,4.27,6.75,6.75,0,0,1-2.41,5.56q-2.41,2-6.94,2a8.23,8.23,0,0,1-5.29-1.5,5.12,5.12,0,0,1-1.85-4.25,4.77,4.77,0,0,1,1-3.05,6.11,6.11,0,0,1,2.94-1.89,3.55,3.55,0,0,1-1.56-1.15,2.89,2.89,0,0,1-.6-1.82,3.3,3.3,0,0,1,.19-1.13,3.43,3.43,0,0,1,.52-1A9.85,9.85,0,0,1,225.78,33a5.23,5.23,0,0,1-2-2.39,8.41,8.41,0,0,1-.75-3.58,7.29,7.29,0,0,1,1.78-5.25,6.75,6.75,0,0,1,5.11-1.86,11.71,11.71,0,0,1,2.69.43ZM226.32,44a2.31,2.31,0,0,0,.76,1.87,3.26,3.26,0,0,0,2.21.67,5.45,5.45,0,0,0,3.35-.86,2.73,2.73,0,0,0,1.13-2.33,2,2,0,0,0-.61-1.65,3.64,3.64,0,0,0-2.24-.49h-2.4a2,2,0,0,0-1.61.74A3.22,3.22,0,0,0,226.32,44Zm1.52-16.93c0,2.44.68,3.66,2.06,3.66s2-1.23,2-3.69-.67-3.79-2-3.79S227.84,24.54,227.84,27.08ZM265.57,41h-5V25.08q0-2.59.26-6c-.09.12-.41.5-1,1.13s-1.62,1.76-3.21,3.39l-2.82-3.08,7.21-6.68h4.49Z"/><path d="M117.09,113h-2.93v-6.89h-3.85V113h-2.92V97.29h2.92v6.25h3.85V97.29h2.93Zm8.12.21a4.33,4.33,0,0,1-3.54-1.58,7.06,7.06,0,0,1-1.29-4.53,8,8,0,0,1,1.17-4.63,3.76,3.76,0,0,1,3.26-1.66,3.71,3.71,0,0,1,3.09,1.43,6.24,6.24,0,0,1,1.12,4v1.53h-5.74a4,4,0,0,0,.65,2.38,2.08,2.08,0,0,0,1.72.77,5.65,5.65,0,0,0,2.86-.86v2.35A6.31,6.31,0,0,1,125.21,113.21Zm-.42-10.2a1.17,1.17,0,0,0-1,.66,4.32,4.32,0,0,0-.46,2h2.9a4.26,4.26,0,0,0-.4-2A1.14,1.14,0,0,0,124.79,103Zm13.09,10-.57-1.63h-.06a4.2,4.2,0,0,1-1.31,1.45,3.38,3.38,0,0,1-1.71.39,2.49,2.49,0,0,1-2.09-1,4.47,4.47,0,0,1-.75-2.75,3.6,3.6,0,0,1,1-2.81,5,5,0,0,1,3.11-1l1.59-.06v-.86c0-1.12-.49-1.68-1.45-1.68a4.94,4.94,0,0,0-2.47.84l-1-2a7.13,7.13,0,0,1,3.88-1.12,3.7,3.7,0,0,1,2.89,1.09,4.42,4.42,0,0,1,1,3.08v8Zm-2.48-2a1.43,1.43,0,0,0,1.25-.7,3.38,3.38,0,0,0,.47-1.88v-1l-.88,0a2,2,0,0,0-1.44.55,2.21,2.21,0,0,0-.45,1.51C134.35,110.49,134.7,111,135.4,111Zm11.13,2.23a2.92,2.92,0,0,1-2.61-1.63A9.1,9.1,0,0,1,143,107a9.43,9.43,0,0,1,.93-4.58,2.86,2.86,0,0,1,2.58-1.65,2.39,2.39,0,0,1,1.41.41,3.45,3.45,0,0,1,1.1,1.35h.17c-.08-1.09-.12-1.85-.12-2.29v-4h2.85V113h-2.12l-.49-1.56h-.09A2.88,2.88,0,0,1,146.53,113.21Zm.93-2.41a1.22,1.22,0,0,0,1.16-.72,6.92,6.92,0,0,0,.39-2.64v-.38a8,8,0,0,0-.37-2.93,1.25,1.25,0,0,0-1.22-.85c-.53,0-.91.32-1.16,1a8.77,8.77,0,0,0-.35,2.82,8.17,8.17,0,0,0,.36,2.79A1.25,1.25,0,0,0,147.46,110.8Zm10.82,2.2h-2.86V101h2.86Zm-3-15.09a1.51,1.51,0,0,1,.41-1.12,1.57,1.57,0,0,1,1.16-.42,1.51,1.51,0,0,1,1.12.42,1.48,1.48,0,0,1,.42,1.12,1.55,1.55,0,0,1-.43,1.14,1.6,1.6,0,0,1-1.11.39,1.64,1.64,0,0,1-1.14-.39A1.55,1.55,0,0,1,155.3,97.91ZM167.79,113v-7.13a5,5,0,0,0-.31-2,1.06,1.06,0,0,0-1-.66,1.42,1.42,0,0,0-1.36.92,8,8,0,0,0-.43,3.09V113h-2.85V101h2.26l.35,1.54h.18a3,3,0,0,1,1.11-1.29,3,3,0,0,1,1.68-.47,2.8,2.8,0,0,1,2.44,1.12,5.43,5.43,0,0,1,.82,3.26V113Zm14.9-11.94v1.67l-1.43.32a3.83,3.83,0,0,1,.42,1.89,4.12,4.12,0,0,1-1,3,3.78,3.78,0,0,1-2.88,1.07,3,3,0,0,1-.79-.08,3,3,0,0,0-.39.41.85.85,0,0,0-.18.55c0,.51.43.76,1.3.76h1.73a3.13,3.13,0,0,1,2.34.82,3.35,3.35,0,0,1,.83,2.47,3.94,3.94,0,0,1-1.4,3.23,6.21,6.21,0,0,1-4,1.14,4.77,4.77,0,0,1-3.06-.87,3,3,0,0,1-1.07-2.46,2.74,2.74,0,0,1,.61-1.77,3.47,3.47,0,0,1,1.7-1.09,2.19,2.19,0,0,1-.91-.67,1.74,1.74,0,0,1-.34-1.05,2,2,0,0,1,.11-.66,2,2,0,0,1,.3-.55,5.25,5.25,0,0,1,.82-.79,3.05,3.05,0,0,1-1.18-1.38,5.06,5.06,0,0,1-.43-2.08,4.21,4.21,0,0,1,1-3,3.91,3.91,0,0,1,2.95-1.07,5.6,5.6,0,0,1,.84.08,4.28,4.28,0,0,1,.72.17Zm-7,13.68a1.32,1.32,0,0,0,.44,1.08,1.88,1.88,0,0,0,1.28.39,3.17,3.17,0,0,0,1.94-.49,1.6,1.6,0,0,0,.66-1.36,1.12,1.12,0,0,0-.36-1,2.13,2.13,0,0,0-1.3-.28h-1.39a1.15,1.15,0,0,0-.93.43A1.86,1.86,0,0,0,175.66,114.74Zm.88-9.8c0,1.41.39,2.12,1.19,2.12s1.16-.71,1.16-2.14-.39-2.19-1.16-2.19S176.54,103.47,176.54,104.94ZM199.77,113h-8.42v-2.18l2.79-3.95c.77-1.09,1.29-1.9,1.58-2.42a7,7,0,0,0,.63-1.52,5.33,5.33,0,0,0,.21-1.5,2,2,0,0,0-.41-1.35,1.31,1.31,0,0,0-1-.45,2.06,2.06,0,0,0-1.07.3,6.51,6.51,0,0,0-1.2,1.08l-1.63-1.72a7.34,7.34,0,0,1,2.09-1.75,4.82,4.82,0,0,1,2.1-.47,3.87,3.87,0,0,1,3,1.12,4.27,4.27,0,0,1,1.08,3.1,7.28,7.28,0,0,1-.2,1.71,7.05,7.05,0,0,1-.59,1.62,13.1,13.1,0,0,1-1,1.69q-.6.87-3.06,4v.09h5.15Z"/><path d="M112.77,185H112v-5.62h-4V185h-.77V173.58H108v5.07h4v-5.07h.77Zm7.44,0h-4.14V173.58h4.14v.73h-3.38v4.34H120v.73h-3.19v4.89h3.38Zm7.13,0-1-4.14h-2.77l-1,4.14h-.8l2.75-11.42h.79L128.12,185Zm-1.19-4.91-1-4.26c-.11-.48-.19-.93-.25-1.36a10.66,10.66,0,0,1-.21,1.36l-1,4.26Zm9.7-.91c0,3.88-1.22,5.82-3.64,5.82h-2V173.58h2.08a2.94,2.94,0,0,1,2.67,1.43A7.77,7.77,0,0,1,135.85,179.18Zm-.81,0a7.69,7.69,0,0,0-.71-3.68,2.27,2.27,0,0,0-2.1-1.27H131v10h1.22a2.32,2.32,0,0,0,2.18-1.3A8.23,8.23,0,0,0,135,179.23Zm3.72,5.77V173.58h.77V185Zm10.08,0h-1l-4.32-10.24h-.07c.07.71.1,1.39.1,2V185h-.75V173.58h1l4.29,10.12h0c0-.85-.07-1.57-.07-2.14v-8h.75Zm7.06-5.76h2.5v5.41a7.37,7.37,0,0,1-2.71.51,3.3,3.3,0,0,1-2.9-1.57,7.77,7.77,0,0,1-1-4.33,7.54,7.54,0,0,1,1.06-4.31,3.45,3.45,0,0,1,3-1.54,4.48,4.48,0,0,1,2.45.74l-.37.67a3.87,3.87,0,0,0-2.08-.69,2.71,2.71,0,0,0-2.43,1.32,9.23,9.23,0,0,0,0,7.63,2.64,2.64,0,0,0,2.36,1.34,5.21,5.21,0,0,0,1.87-.29V180H155.9Zm13.45-3.12a3.39,3.39,0,0,1-.46,1.82A2.64,2.64,0,0,1,167.5,179v.06a2.36,2.36,0,0,1,1.49,1,3.09,3.09,0,0,1,.54,1.87,3.5,3.5,0,0,1-.76,2.37,2.53,2.53,0,0,1-2,.88,4.83,4.83,0,0,1-2.16-.42v-.84a4.25,4.25,0,0,0,2.16.57,1.76,1.76,0,0,0,1.48-.69,3,3,0,0,0,.53-1.9,2.51,2.51,0,0,0-.61-1.79,2.43,2.43,0,0,0-1.83-.64h-.58v-.72h.63A2.07,2.07,0,0,0,168,178a2.65,2.65,0,0,0,.63-1.84,2.36,2.36,0,0,0-.45-1.53,1.48,1.48,0,0,0-1.23-.56,2.5,2.5,0,0,0-1,.18,3.64,3.64,0,0,0-.95.67l-.48-.5a3.68,3.68,0,0,1,1.14-.79,3,3,0,0,1,1.24-.25,2.27,2.27,0,0,1,1.79.75A2.78,2.78,0,0,1,169.35,176.12Z"/><path d="M19.09,262H21a2.51,2.51,0,0,1,1.8.6,2.31,2.31,0,0,1,.64,1.78c0,1.35-.5,2.12-1.49,2.32v.05a2,2,0,0,1,1.28.77,2.82,2.82,0,0,1,.41,1.63,3.27,3.27,0,0,1-.59,2.09,2,2,0,0,1-1.67.75h-2.3Zm.67,4.45H21a1.54,1.54,0,0,0,1.33-.52,2.52,2.52,0,0,0,.41-1.57,1.77,1.77,0,0,0-.45-1.3,1.72,1.72,0,0,0-1.3-.45H19.76Zm0,.61v4.32H21.3c1.1,0,1.66-.75,1.66-2.25a2.23,2.23,0,0,0-.49-1.53,1.73,1.73,0,0,0-1.36-.54ZM32.83,267a7.86,7.86,0,0,1-.75,3.81,2.38,2.38,0,0,1-4.28,0,8.1,8.1,0,0,1-.73-3.82,8,8,0,0,1,.72-3.85,2.42,2.42,0,0,1,4.3.07A7.9,7.9,0,0,1,32.83,267Zm-5.07,0a8,8,0,0,0,.56,3.37,1.74,1.74,0,0,0,3.25,0,8,8,0,0,0,.56-3.38,7.87,7.87,0,0,0-.55-3.35A1.72,1.72,0,0,0,30,262.51a1.77,1.77,0,0,0-1.65,1.14A8.08,8.08,0,0,0,27.76,267Zm14-.08q0,5.08-3.17,5.09H36.79V262h1.82a2.56,2.56,0,0,1,2.33,1.25A6.72,6.72,0,0,1,41.74,266.91Zm-.7,0a6.76,6.76,0,0,0-.62-3.22,2,2,0,0,0-1.84-1.11H37.46v8.77h1.06a2,2,0,0,0,1.91-1.14A7.1,7.1,0,0,0,41,267ZM45.7,272V262h.67v10Zm8.58,0H50.65V262h3.63v.64h-3v3.79h2.79v.64H51.32v4.28h3Zm7.7-2.62a2.88,2.88,0,0,1-.69,2,2.24,2.24,0,0,1-1.73.76,4.56,4.56,0,0,1-1.93-.35v-.73a3.19,3.19,0,0,0,.89.32,5.25,5.25,0,0,0,1,.11,1.54,1.54,0,0,0,1.25-.58,2.18,2.18,0,0,0,.5-1.47,2.27,2.27,0,0,0-.35-1.32,3.78,3.78,0,0,0-1.34-1,5,5,0,0,1-1.15-.75,2.28,2.28,0,0,1-.57-.85,3.37,3.37,0,0,1-.18-1.16,2.79,2.79,0,0,1,.3-1.32,2.19,2.19,0,0,1,.84-.89,2.3,2.3,0,0,1,1.18-.32,4.19,4.19,0,0,1,1.05.13,4,4,0,0,1,.76.28l-.26.65a3.25,3.25,0,0,0-1.55-.4,1.55,1.55,0,0,0-1.2.51,1.87,1.87,0,0,0-.46,1.33,2.21,2.21,0,0,0,.33,1.3,3.92,3.92,0,0,0,1.32,1,3.7,3.7,0,0,1,1.47,1.15A2.64,2.64,0,0,1,62,269.38Z" fill="#8e8e8e"/><path d="M107.41,271V258.15h.86v12h3.62V271Zm12.39-4.79a7.26,7.26,0,0,1-.76,3.69,2.4,2.4,0,0,1-2.17,1.28,2.36,2.36,0,0,1-2.15-1.28,7.49,7.49,0,0,1-.74-3.69c0-3.29,1-4.93,2.92-4.93a2.37,2.37,0,0,1,2.14,1.29A7.2,7.2,0,0,1,119.8,266.21Zm-5,0a7.6,7.6,0,0,0,.5,3.12,1.61,1.61,0,0,0,1.53,1.06c1.37,0,2.05-1.4,2.05-4.18s-.68-4.14-2.05-4.14a1.62,1.62,0,0,0-1.55,1A7.68,7.68,0,0,0,114.85,266.21Zm10.6-4.93a2.73,2.73,0,0,1,.83.12l-.2.84a1.64,1.64,0,0,0-.65-.13,1.17,1.17,0,0,0-.9.5,3.29,3.29,0,0,0-.65,1.38,7.46,7.46,0,0,0-.24,2V271h-.84v-9.54h.69l.09,1.67h.06C124.08,261.9,124.69,261.28,125.45,261.28Zm5.88,9.9a2.61,2.61,0,0,1-2.33-1.29,6.75,6.75,0,0,1-.81-3.59,7.78,7.78,0,0,1,.72-3.73,2.3,2.3,0,0,1,2.1-1.29,2.11,2.11,0,0,1,1.87,1.13,5.8,5.8,0,0,1,.68,3v.78h-4.51a6.76,6.76,0,0,0,.59,3.12,1.85,1.85,0,0,0,1.73,1,3.77,3.77,0,0,0,1.89-.59v.8A3.6,3.6,0,0,1,131.33,271.18ZM131,262c-1.15,0-1.77,1.14-1.89,3.43h3.67a5.48,5.48,0,0,0-.48-2.5A1.45,1.45,0,0,0,131,262Zm13.75,9v-6.49c0-1.61-.47-2.4-1.41-2.4a1.46,1.46,0,0,0-1.4.84,5.69,5.69,0,0,0-.42,2.47V271h-.83v-6.49a3.73,3.73,0,0,0-.34-1.81,1.13,1.13,0,0,0-1.06-.59,1.42,1.42,0,0,0-1.38.86,6.57,6.57,0,0,0-.43,2.79V271h-.84v-9.54h.7l.08,1.33h.07a2,2,0,0,1,1.95-1.51,1.76,1.76,0,0,1,1.24.42,2.35,2.35,0,0,1,.66,1.23,2.81,2.81,0,0,1,.85-1.26,2,2,0,0,1,1.3-.39,1.71,1.71,0,0,1,1.58.83,5.42,5.42,0,0,1,.5,2.66V271Zm9.38,0h-.84v-9.54h.84Zm-1-12.18a1,1,0,0,1,.16-.62.52.52,0,0,1,.42-.22.44.44,0,0,1,.38.22,1.19,1.19,0,0,1,.14.62,1.16,1.16,0,0,1-.14.6.42.42,0,0,1-.38.22.5.5,0,0,1-.42-.22A1,1,0,0,1,153.12,258.82Zm7.48,12.36a2.33,2.33,0,0,1-1.31-.4,2.57,2.57,0,0,1-.9-1.1h-.08l.06,1.05v4.59h-.83V261.46h.68l.09,1.31h.08a2.69,2.69,0,0,1,.9-1.1,2,2,0,0,1,1.2-.39c1.86,0,2.8,1.64,2.8,4.93a7.91,7.91,0,0,1-.69,3.67A2.17,2.17,0,0,1,160.6,271.18Zm-.16-9.11a1.68,1.68,0,0,0-1.56.92,6.26,6.26,0,0,0-.51,2.9v.27a7.52,7.52,0,0,0,.52,3.23,1.67,1.67,0,0,0,1.58,1,1.54,1.54,0,0,0,1.46-1,8,8,0,0,0,.48-3.19,8.18,8.18,0,0,0-.44-3.1A1.57,1.57,0,0,0,160.44,262.07Zm9.6,6.54a2.7,2.7,0,0,1-.63,1.89,2.4,2.4,0,0,1-1.83.68,3.62,3.62,0,0,1-1.15-.17,3,3,0,0,1-.76-.37v-1a2.37,2.37,0,0,0,.86.53,3.24,3.24,0,0,0,1.1.2,1.47,1.47,0,0,0,1.16-.49,1.89,1.89,0,0,0,.42-1.29,1.73,1.73,0,0,0-.31-1.06,3.87,3.87,0,0,0-1.15-1,8.25,8.25,0,0,1-1.33-1,2.89,2.89,0,0,1-.56-.83,3,3,0,0,1-.19-1.09,2.22,2.22,0,0,1,.7-1.69,2.42,2.42,0,0,1,1.76-.68,3.3,3.3,0,0,1,1.93.54l-.43.73a2.71,2.71,0,0,0-1.53-.48,1.59,1.59,0,0,0-1.18.44,1.54,1.54,0,0,0-.44,1.14,1.85,1.85,0,0,0,.3,1.07,4.63,4.63,0,0,0,1.26,1,7.51,7.51,0,0,1,1.31,1,2.35,2.35,0,0,1,.51.82A2.8,2.8,0,0,1,170,268.61Zm3.63-7.15v6.23a4.62,4.62,0,0,0,.34,2.06,1.1,1.1,0,0,0,1,.65,1.69,1.69,0,0,0,1.58-.87,5.88,5.88,0,0,0,.51-2.83v-5.24H178V271h-.7l-.11-1.34h-.07a2.61,2.61,0,0,1-.85,1.13,2,2,0,0,1-1.19.39,1.87,1.87,0,0,1-1.68-.82,5,5,0,0,1-.53-2.67v-6.23ZM189.52,271v-6.49c0-1.61-.47-2.4-1.4-2.4a1.46,1.46,0,0,0-1.4.84,5.69,5.69,0,0,0-.42,2.47V271h-.83v-6.49a3.73,3.73,0,0,0-.34-1.81,1.14,1.14,0,0,0-1.07-.59,1.44,1.44,0,0,0-1.38.86,6.73,6.73,0,0,0-.43,2.79V271h-.83v-9.54h.7l.07,1.33h.08a2,2,0,0,1,1.94-1.51,1.77,1.77,0,0,1,1.25.42,2.35,2.35,0,0,1,.66,1.23,2.89,2.89,0,0,1,.84-1.26,2.08,2.08,0,0,1,1.31-.39,1.72,1.72,0,0,1,1.58.83,5.42,5.42,0,0,1,.5,2.66V271Zm10.88.18q-2.78,0-2.78-4.94a7.9,7.9,0,0,1,.7-3.69,2.2,2.2,0,0,1,2.05-1.27,2.17,2.17,0,0,1,1.21.37,2.53,2.53,0,0,1,.92,1h.07l0-1.07v-4.28h.83V271h-.68l-.07-1.34h-.08a2.93,2.93,0,0,1-.89,1.13A2.09,2.09,0,0,1,200.4,271.18Zm0-.73a1.69,1.69,0,0,0,1.54-.93,5.41,5.41,0,0,0,.55-2.73v-.55a7.14,7.14,0,0,0-.53-3.16,1.7,1.7,0,0,0-1.59-1,1.53,1.53,0,0,0-1.48,1.08,8.38,8.38,0,0,0-.45,3.11,8.11,8.11,0,0,0,.47,3.12A1.56,1.56,0,0,0,200.45,270.45Zm11.75-4.24a7.14,7.14,0,0,1-.77,3.69,2.45,2.45,0,0,1-4.31,0,7.49,7.49,0,0,1-.74-3.69q0-4.93,2.92-4.93a2.36,2.36,0,0,1,2.13,1.29A7.09,7.09,0,0,1,212.2,266.21Zm-4.95,0a7.8,7.8,0,0,0,.49,3.12,1.64,1.64,0,0,0,1.54,1.06c1.37,0,2.05-1.4,2.05-4.18s-.68-4.14-2.05-4.14a1.62,1.62,0,0,0-1.55,1A7.68,7.68,0,0,0,207.25,266.21ZM216,271h-.84V257.32H216Zm8.82-4.79a7.26,7.26,0,0,1-.76,3.69,2.46,2.46,0,0,1-4.32,0,7.49,7.49,0,0,1-.74-3.69c0-3.29,1-4.93,2.92-4.93a2.37,2.37,0,0,1,2.14,1.29A7.2,7.2,0,0,1,224.86,266.21Zm-5,0a7.6,7.6,0,0,0,.5,3.12,1.63,1.63,0,0,0,1.54,1.06c1.36,0,2-1.4,2-4.18s-.68-4.14-2-4.14a1.62,1.62,0,0,0-1.56,1A7.68,7.68,0,0,0,219.91,266.21Zm10.6-4.93a2.73,2.73,0,0,1,.83.12l-.2.84a1.64,1.64,0,0,0-.65-.13,1.17,1.17,0,0,0-.9.5,3.29,3.29,0,0,0-.65,1.38,7.46,7.46,0,0,0-.24,2V271h-.84v-9.54h.69l.09,1.67h.06C229.14,261.9,229.75,261.28,230.51,261.28Zm11.21,7.33a2.7,2.7,0,0,1-.63,1.89,2.38,2.38,0,0,1-1.83.68,3.6,3.6,0,0,1-1.14-.17,3.07,3.07,0,0,1-.77-.37v-1a2.33,2.33,0,0,0,.87.53,3.14,3.14,0,0,0,1.09.2,1.46,1.46,0,0,0,1.16-.49,1.85,1.85,0,0,0,.43-1.29,1.8,1.8,0,0,0-.31-1.06,4,4,0,0,0-1.15-1,8.45,8.45,0,0,1-1.34-1,2.86,2.86,0,0,1-.55-.83,2.75,2.75,0,0,1-.2-1.09,2.25,2.25,0,0,1,.7-1.69,2.43,2.43,0,0,1,1.77-.68,3.29,3.29,0,0,1,1.92.54l-.43.73a2.71,2.71,0,0,0-1.53-.48,1.62,1.62,0,0,0-1.18.44,1.54,1.54,0,0,0-.44,1.14,1.85,1.85,0,0,0,.3,1.07,4.56,4.56,0,0,0,1.27,1,7.75,7.75,0,0,1,1.3,1,2.54,2.54,0,0,1,.52.82A3,3,0,0,1,241.72,268.61Zm3.67,2.39h-.83v-9.54h.83Zm-1-12.18a1.09,1.09,0,0,1,.16-.62A.52.52,0,0,1,245,258a.44.44,0,0,1,.38.22,1.1,1.1,0,0,1,.14.62,1.07,1.07,0,0,1-.14.6.42.42,0,0,1-.38.22.5.5,0,0,1-.42-.22A1.07,1.07,0,0,1,244.43,258.82Zm6.17,11.58a2.07,2.07,0,0,0,.68-.1v.7a2.37,2.37,0,0,1-1,.18c-1,0-1.48-.74-1.48-2.21V262.2H248v-.49l.85-.25.27-2.26h.58v2.26h1.51v.74h-1.51v6.53a2.82,2.82,0,0,0,.21,1.32A.78.78,0,0,0,250.6,270.4Zm11.09.6-.11-1.34h0a2.22,2.22,0,0,1-2.08,1.52,1.81,1.81,0,0,1-1.5-.74,3.29,3.29,0,0,1-.56-2,2.83,2.83,0,0,1,.82-2.15,3.38,3.38,0,0,1,2.29-.87l1-.05v-.79a4.15,4.15,0,0,0-.34-1.95,1.15,1.15,0,0,0-1.1-.61,3.15,3.15,0,0,0-1.67.53l-.36-.66a3.87,3.87,0,0,1,2.08-.61,1.93,1.93,0,0,1,1.7.75,4.52,4.52,0,0,1,.51,2.48V271Zm-2-.54a1.52,1.52,0,0,0,1.39-.88,5.17,5.17,0,0,0,.5-2.5v-1l-1,.05a2.46,2.46,0,0,0-1.71.64,2.31,2.31,0,0,0-.55,1.68,2.56,2.56,0,0,0,.36,1.52A1.22,1.22,0,0,0,259.66,270.46Zm14.23.54v-6.49c0-1.61-.47-2.4-1.41-2.4a1.45,1.45,0,0,0-1.39.84,5.54,5.54,0,0,0-.42,2.47V271h-.83v-6.49a3.85,3.85,0,0,0-.34-1.81,1.14,1.14,0,0,0-1.07-.59,1.44,1.44,0,0,0-1.38.86,6.73,6.73,0,0,0-.43,2.79V271h-.83v-9.54h.7l.07,1.33h.08a2,2,0,0,1,1.94-1.51,1.78,1.78,0,0,1,1.25.42,2.42,2.42,0,0,1,.66,1.23,2.89,2.89,0,0,1,.84-1.26,2.07,2.07,0,0,1,1.3-.39,1.74,1.74,0,0,1,1.59.83,5.42,5.42,0,0,1,.5,2.66V271Zm7,.18a2.6,2.6,0,0,1-2.33-1.29,6.75,6.75,0,0,1-.81-3.59,7.78,7.78,0,0,1,.72-3.73,2.28,2.28,0,0,1,2.09-1.29,2.1,2.1,0,0,1,1.87,1.13,5.8,5.8,0,0,1,.69,3v.78h-4.52a6.76,6.76,0,0,0,.59,3.12,1.86,1.86,0,0,0,1.73,1,3.74,3.74,0,0,0,1.89-.59v.8A3.59,3.59,0,0,1,280.86,271.18Zm-.38-9.14c-1.15,0-1.78,1.14-1.89,3.43h3.66a5.48,5.48,0,0,0-.48-2.5A1.44,1.44,0,0,0,280.48,262Zm7.38,8.36a2.09,2.09,0,0,0,.69-.1v.7a2.37,2.37,0,0,1-1,.18c-1,0-1.48-.74-1.48-2.21V262.2h-.86v-.49l.84-.25.27-2.26h.58v2.26h1.52v.74h-1.52v6.53a2.82,2.82,0,0,0,.21,1.32A.79.79,0,0,0,287.86,270.4Zm4.53-1a28.66,28.66,0,0,1-1.46,3.92h-.55a25.31,25.31,0,0,0,.88-4.12h1Zm9.93,1.78a2.38,2.38,0,0,1-2.16-1.24,7.47,7.47,0,0,1-.72-3.66,7.58,7.58,0,0,1,.73-3.72,2.37,2.37,0,0,1,2.17-1.28,3.15,3.15,0,0,1,1.48.32l-.33.74a2.6,2.6,0,0,0-1.08-.27q-2.1,0-2.1,4.19t2.1,4.16a3.67,3.67,0,0,0,1.35-.28v.7a2.45,2.45,0,0,1-.71.25A3.53,3.53,0,0,1,302.32,271.18Zm9.41-5a7.26,7.26,0,0,1-.76,3.69,2.4,2.4,0,0,1-2.17,1.28,2.36,2.36,0,0,1-2.15-1.28,7.49,7.49,0,0,1-.74-3.69c0-3.29,1-4.93,2.92-4.93a2.38,2.38,0,0,1,2.14,1.29A7.2,7.2,0,0,1,311.73,266.21Zm-5,0a7.8,7.8,0,0,0,.49,3.12,1.64,1.64,0,0,0,1.54,1.06c1.37,0,2.05-1.4,2.05-4.18s-.68-4.14-2.05-4.14a1.62,1.62,0,0,0-1.55,1A7.68,7.68,0,0,0,306.78,266.21ZM319,271v-6.57c0-1.59-.47-2.38-1.41-2.38a1.68,1.68,0,0,0-1.57.89,6.06,6.06,0,0,0-.49,2.82V271h-.84v-9.54h.7l.08,1.33h.07a2.52,2.52,0,0,1,.87-1.12,2,2,0,0,1,1.2-.39,1.93,1.93,0,0,1,1.66.75,4,4,0,0,1,.55,2.38V271Zm8-2.39a2.7,2.7,0,0,1-.63,1.89,2.38,2.38,0,0,1-1.83.68,3.6,3.6,0,0,1-1.14-.17,3.07,3.07,0,0,1-.77-.37v-1a2.33,2.33,0,0,0,.87.53,3.14,3.14,0,0,0,1.09.2,1.46,1.46,0,0,0,1.16-.49,1.89,1.89,0,0,0,.43-1.29,1.8,1.8,0,0,0-.31-1.06,4.15,4.15,0,0,0-1.15-1,8.45,8.45,0,0,1-1.34-1,2.86,2.86,0,0,1-.55-.83,2.75,2.75,0,0,1-.2-1.09,2.25,2.25,0,0,1,.7-1.69,2.42,2.42,0,0,1,1.76-.68,3.3,3.3,0,0,1,1.93.54l-.43.73a2.71,2.71,0,0,0-1.53-.48,1.62,1.62,0,0,0-1.18.44,1.54,1.54,0,0,0-.44,1.14,1.85,1.85,0,0,0,.3,1.07,4.56,4.56,0,0,0,1.27,1,7.75,7.75,0,0,1,1.3,1,2.54,2.54,0,0,1,.52.82A3,3,0,0,1,327,268.61Zm5.54,2.57a2.61,2.61,0,0,1-2.33-1.29,6.84,6.84,0,0,1-.81-3.59,7.77,7.77,0,0,1,.73-3.73,2.28,2.28,0,0,1,2.09-1.29,2.11,2.11,0,0,1,1.87,1.13,5.8,5.8,0,0,1,.69,3v.78h-4.52a6.76,6.76,0,0,0,.59,3.12,1.85,1.85,0,0,0,1.73,1,3.74,3.74,0,0,0,1.89-.59v.8A3.6,3.6,0,0,1,332.56,271.18Zm-.38-9.14c-1.14,0-1.77,1.14-1.88,3.43H334a5.48,5.48,0,0,0-.48-2.5A1.45,1.45,0,0,0,332.18,262Zm8.09,9.14a2.38,2.38,0,0,1-2.16-1.24,7.47,7.47,0,0,1-.72-3.66,7.7,7.7,0,0,1,.73-3.72,2.37,2.37,0,0,1,2.17-1.28,3.12,3.12,0,0,1,1.48.32l-.33.74a2.6,2.6,0,0,0-1.08-.27q-2.1,0-2.1,4.19t2.1,4.16a3.76,3.76,0,0,0,1.36-.28v.7a2.53,2.53,0,0,1-.72.25A3.53,3.53,0,0,1,340.27,271.18Zm5.79-.78a2.09,2.09,0,0,0,.69-.1v.7a2.39,2.39,0,0,1-1,.18c-1,0-1.47-.74-1.47-2.21V262.2h-.86v-.49l.84-.25.27-2.26h.58v2.26h1.51v.74h-1.51v6.53a2.82,2.82,0,0,0,.21,1.32A.78.78,0,0,0,346.06,270.4Zm5.81.78a2.59,2.59,0,0,1-2.32-1.29,6.75,6.75,0,0,1-.81-3.59,7.78,7.78,0,0,1,.72-3.73,2.28,2.28,0,0,1,2.09-1.29,2.11,2.11,0,0,1,1.87,1.13,5.8,5.8,0,0,1,.69,3v.78h-4.52a6.76,6.76,0,0,0,.59,3.12,1.86,1.86,0,0,0,1.73,1,3.74,3.74,0,0,0,1.89-.59v.8A3.6,3.6,0,0,1,351.87,271.18ZM351.5,262c-1.15,0-1.78,1.14-1.89,3.43h3.66a5.48,5.48,0,0,0-.48-2.5A1.44,1.44,0,0,0,351.5,262Zm7.38,8.36a2.09,2.09,0,0,0,.69-.1v.7a2.37,2.37,0,0,1-1,.18c-1,0-1.48-.74-1.48-2.21V262.2h-.86v-.49l.84-.25.27-2.26h.58v2.26h1.52v.74h-1.52v6.53a2.82,2.82,0,0,0,.21,1.32A.79.79,0,0,0,358.88,270.4Zm3.91-8.94v6.23a4.79,4.79,0,0,0,.33,2.06,1.11,1.11,0,0,0,1.05.65,1.69,1.69,0,0,0,1.58-.87,5.88,5.88,0,0,0,.51-2.83v-5.24h.83V271h-.71l-.1-1.34h-.07a2.69,2.69,0,0,1-.85,1.13,2,2,0,0,1-1.19.39,1.89,1.89,0,0,1-1.69-.82,5.14,5.14,0,0,1-.53-2.67v-6.23Zm10.39-.18a2.84,2.84,0,0,1,.84.12l-.21.84a1.61,1.61,0,0,0-.65-.13,1.17,1.17,0,0,0-.9.5,3.41,3.41,0,0,0-.65,1.38,7.46,7.46,0,0,0-.24,2V271h-.83v-9.54h.68l.09,1.67h.06C371.82,261.9,372.42,261.28,373.18,261.28ZM384.34,271l-.11-1.34h0a2.22,2.22,0,0,1-2.07,1.52,1.83,1.83,0,0,1-1.51-.74,3.29,3.29,0,0,1-.56-2,2.83,2.83,0,0,1,.82-2.15,3.4,3.4,0,0,1,2.29-.87l1-.05v-.79a4.3,4.3,0,0,0-.33-1.95,1.17,1.17,0,0,0-1.11-.61,3.18,3.18,0,0,0-1.67.53l-.36-.66a3.87,3.87,0,0,1,2.08-.61,1.92,1.92,0,0,1,1.7.75,4.51,4.51,0,0,1,.52,2.48V271Zm-2-.54a1.52,1.52,0,0,0,1.39-.88,5.17,5.17,0,0,0,.5-2.5v-1l-1,.05a2.48,2.48,0,0,0-1.72.64,2.31,2.31,0,0,0-.55,1.68,2.48,2.48,0,0,0,.37,1.52A1.19,1.19,0,0,0,382.31,270.46Zm8.46.72q-2.77,0-2.78-4.94a7.77,7.77,0,0,1,.7-3.69,2.25,2.25,0,0,1,3.26-.9,2.61,2.61,0,0,1,.92,1h.07l0-1.07v-4.28h.84V271h-.69l-.07-1.34h-.08a2.82,2.82,0,0,1-.88,1.13A2.11,2.11,0,0,1,390.77,271.18Zm.05-.73a1.69,1.69,0,0,0,1.54-.93,5.53,5.53,0,0,0,.54-2.73v-.55a7.16,7.16,0,0,0-.52-3.16,1.7,1.7,0,0,0-1.59-1,1.53,1.53,0,0,0-1.48,1.08,8.38,8.38,0,0,0-.45,3.11,8.11,8.11,0,0,0,.47,3.12A1.56,1.56,0,0,0,390.82,270.45ZM398,271h-.83v-9.54H398Zm-1-12.18a1.09,1.09,0,0,1,.16-.62.52.52,0,0,1,.42-.22.44.44,0,0,1,.38.22,1.1,1.1,0,0,1,.14.62,1.07,1.07,0,0,1-.14.6.42.42,0,0,1-.38.22.5.5,0,0,1-.42-.22A1.07,1.07,0,0,1,397.07,258.82Zm7.49,12.36a2.38,2.38,0,0,1-1.32-.4,2.64,2.64,0,0,1-.9-1.1h-.08l.07,1.05v4.59h-.84V261.46h.69l.08,1.31h.08a2.86,2.86,0,0,1,.9-1.1,2,2,0,0,1,1.2-.39q2.81,0,2.8,4.93a7.91,7.91,0,0,1-.69,3.67A2.16,2.16,0,0,1,404.56,271.18Zm-.17-9.11a1.68,1.68,0,0,0-1.56.92,6.28,6.28,0,0,0-.5,2.9v.27a7.7,7.7,0,0,0,.51,3.23,1.69,1.69,0,0,0,1.59,1,1.55,1.55,0,0,0,1.46-1,8,8,0,0,0,.48-3.19,8.14,8.14,0,0,0-.45-3.1A1.57,1.57,0,0,0,404.39,262.07Zm6.69,8.93h-.83v-9.54h.83Zm-1-12.18a1.09,1.09,0,0,1,.16-.62.54.54,0,0,1,.42-.22.44.44,0,0,1,.38.22,1.1,1.1,0,0,1,.14.62,1.07,1.07,0,0,1-.14.6.42.42,0,0,1-.38.22.51.51,0,0,1-.42-.22A1.07,1.07,0,0,1,410.12,258.82Zm8.16,9.79a2.7,2.7,0,0,1-.63,1.89,2.38,2.38,0,0,1-1.83.68,3.6,3.6,0,0,1-1.14-.17,2.83,2.83,0,0,1-.76-.37v-1a2.21,2.21,0,0,0,.86.53,3.19,3.19,0,0,0,1.1.2,1.47,1.47,0,0,0,1.16-.49,1.89,1.89,0,0,0,.42-1.29,1.73,1.73,0,0,0-.31-1.06,4,4,0,0,0-1.15-1,8.45,8.45,0,0,1-1.34-1,2.86,2.86,0,0,1-.55-.83,2.76,2.76,0,0,1-.19-1.09,2.25,2.25,0,0,1,.69-1.69,2.43,2.43,0,0,1,1.77-.68,3.27,3.27,0,0,1,1.92.54l-.43.73a2.71,2.71,0,0,0-1.53-.48,1.62,1.62,0,0,0-1.18.44,1.54,1.54,0,0,0-.43,1.14,1.84,1.84,0,0,0,.29,1.07,4.56,4.56,0,0,0,1.27,1,7.34,7.34,0,0,1,1.3,1,2.38,2.38,0,0,1,.52.82A2.8,2.8,0,0,1,418.28,268.61Zm5.29,2.57a2.35,2.35,0,0,1-2.16-1.24,7.47,7.47,0,0,1-.72-3.66,7.58,7.58,0,0,1,.73-3.72,2.36,2.36,0,0,1,2.17-1.28,3.08,3.08,0,0,1,1.47.32l-.32.74a2.6,2.6,0,0,0-1.08-.27q-2.1,0-2.1,4.19t2.1,4.16a3.75,3.75,0,0,0,1.35-.28v.7a2.45,2.45,0,0,1-.71.25A3.61,3.61,0,0,1,423.57,271.18Zm4.87-.18h-.83v-9.54h.83Zm-1-12.18a1.09,1.09,0,0,1,.16-.62.53.53,0,0,1,.43-.22.44.44,0,0,1,.37.22,1.1,1.1,0,0,1,.14.62,1.07,1.07,0,0,1-.14.6.42.42,0,0,1-.37.22.5.5,0,0,1-.43-.22A1.07,1.07,0,0,1,427.48,258.82ZM436.21,271v-6.57c0-1.59-.47-2.38-1.41-2.38a1.68,1.68,0,0,0-1.57.89,6,6,0,0,0-.5,2.82V271h-.83v-9.54h.7l.07,1.33h.08a2.58,2.58,0,0,1,.86-1.12,2.1,2.1,0,0,1,1.21-.39,1.93,1.93,0,0,1,1.66.75,4,4,0,0,1,.55,2.38V271Zm9.23-9.54v.59l-1.3.15a2.87,2.87,0,0,1,.43,1,5.09,5.09,0,0,1,.17,1.3,3.75,3.75,0,0,1-.64,2.25,1.94,1.94,0,0,1-1.65.86h-.21l-.19,0a3.28,3.28,0,0,0-.66.6,1.07,1.07,0,0,0-.24.69.76.76,0,0,0,.32.64,1.5,1.5,0,0,0,.85.22h.6a2.76,2.76,0,0,1,2,.66,2.46,2.46,0,0,1,.71,1.9,2.8,2.8,0,0,1-1,2.22,3.69,3.69,0,0,1-2.49.81,2.84,2.84,0,0,1-2-.65,2.49,2.49,0,0,1-.69-1.89,2.52,2.52,0,0,1,.46-1.53,3,3,0,0,1,1.43-1,1.82,1.82,0,0,1-.71-.53,1.28,1.28,0,0,1-.27-.82,1.17,1.17,0,0,1,.28-.76,4.72,4.72,0,0,1,.82-.73,2.35,2.35,0,0,1-1.1-1.08,3.9,3.9,0,0,1-.37-1.76,4,4,0,0,1,.64-2.4,2,2,0,0,1,1.76-.88,2.48,2.48,0,0,1,1,.18Zm-5.13,11.25a2,2,0,0,0,.46,1.42,1.86,1.86,0,0,0,1.43.51,2.7,2.7,0,0,0,1.86-.62,2.14,2.14,0,0,0,.69-1.68,1.8,1.8,0,0,0-.47-1.34,1.86,1.86,0,0,0-1.36-.47h-.62a1.89,1.89,0,0,0-1.43.6A2.22,2.22,0,0,0,440.31,272.71Zm.52-8.13a3,3,0,0,0,.43,1.77,1.32,1.32,0,0,0,1.14.6q1.53,0,1.53-2.46a3.62,3.62,0,0,0-.4-1.86,1.24,1.24,0,0,0-1.13-.67,1.28,1.28,0,0,0-1.17.69A3.83,3.83,0,0,0,440.83,264.58Zm14,6.6a2.6,2.6,0,0,1-2.33-1.29,6.75,6.75,0,0,1-.81-3.59,7.78,7.78,0,0,1,.72-3.73,2.29,2.29,0,0,1,2.09-1.29,2.12,2.12,0,0,1,1.88,1.13,5.9,5.9,0,0,1,.68,3v.78h-4.52a6.76,6.76,0,0,0,.59,3.12,1.86,1.86,0,0,0,1.73,1,3.74,3.74,0,0,0,1.89-.59v.8A3.59,3.59,0,0,1,454.87,271.18Zm-.38-9.14c-1.15,0-1.78,1.14-1.89,3.43h3.67a5.47,5.47,0,0,0-.49-2.5A1.43,1.43,0,0,0,454.49,262Zm6.47,9h-.83V257.32H461Zm4.3,0h-.84v-9.54h.84Zm-1-12.18a1.09,1.09,0,0,1,.15-.62.55.55,0,0,1,.43-.22.45.45,0,0,1,.38.22,1.19,1.19,0,0,1,.13.62,1.16,1.16,0,0,1-.13.6.43.43,0,0,1-.38.22.53.53,0,0,1-.43-.22A1.07,1.07,0,0,1,464.3,258.82Zm6.16,11.58a2.09,2.09,0,0,0,.69-.1v.7a2.39,2.39,0,0,1-1,.18c-1,0-1.47-.74-1.47-2.21V262.2h-.86v-.49l.84-.25.27-2.26h.58v2.26H471v.74h-1.51v6.53a2.82,2.82,0,0,0,.21,1.32A.78.78,0,0,0,470.46,270.4Zm3-.19c0-.63.23-.94.69-.94a.64.64,0,0,1,.48.21,1,1,0,0,1,.2.73,1,1,0,0,1-.2.72.64.64,0,0,1-.48.21Q473.46,271.14,473.46,270.21Zm9.14.79V258.15h.86V271Zm8.13,0-.1-1.34h0a2.2,2.2,0,0,1-2.07,1.52,1.81,1.81,0,0,1-1.5-.74,3.23,3.23,0,0,1-.57-2,2.87,2.87,0,0,1,.82-2.15,3.43,3.43,0,0,1,2.3-.87l1-.05v-.79a4.3,4.3,0,0,0-.33-1.95,1.15,1.15,0,0,0-1.11-.61,3.2,3.2,0,0,0-1.67.53l-.36-.66a3.89,3.89,0,0,1,2.08-.61,1.92,1.92,0,0,1,1.7.75,4.42,4.42,0,0,1,.52,2.48V271Zm-2-.54a1.52,1.52,0,0,0,1.39-.88,5.05,5.05,0,0,0,.5-2.5v-1l-1,.05a2.44,2.44,0,0,0-1.71.64,2.32,2.32,0,0,0-.56,1.68,2.55,2.55,0,0,0,.37,1.52A1.2,1.2,0,0,0,488.7,270.46Zm8.59.72a2.38,2.38,0,0,1-2.17-1.24,7.47,7.47,0,0,1-.72-3.66,7.7,7.7,0,0,1,.73-3.72,2.37,2.37,0,0,1,2.17-1.28,3.12,3.12,0,0,1,1.48.32l-.33.74a2.6,2.6,0,0,0-1.08-.27q-2.1,0-2.1,4.19t2.1,4.16a3.76,3.76,0,0,0,1.36-.28v.7a2.57,2.57,0,0,1-.71.25A3.69,3.69,0,0,1,497.29,271.18Zm4.83-9.72v6.23a4.62,4.62,0,0,0,.34,2.06,1.1,1.1,0,0,0,1,.65,1.69,1.69,0,0,0,1.58-.87,5.86,5.86,0,0,0,.52-2.83v-5.24h.82V271h-.7l-.11-1.34h-.07a2.61,2.61,0,0,1-.85,1.13,2,2,0,0,1-1.19.39,1.86,1.86,0,0,1-1.68-.82,5,5,0,0,1-.53-2.67v-6.23ZM510.7,271h-.83V257.32h.83Zm4.3,0h-.84v-9.54H515Zm-1-12.18a1,1,0,0,1,.16-.62.52.52,0,0,1,.42-.22.45.45,0,0,1,.38.22,1.19,1.19,0,0,1,.14.62,1.16,1.16,0,0,1-.14.6.43.43,0,0,1-.38.22.5.5,0,0,1-.42-.22A1,1,0,0,1,514,258.82Zm8.16,9.79a2.7,2.7,0,0,1-.63,1.89,2.41,2.41,0,0,1-1.83.68,3.51,3.51,0,0,1-1.14-.17,2.91,2.91,0,0,1-.77-.37v-1a2.37,2.37,0,0,0,.86.53,3.24,3.24,0,0,0,1.1.2,1.47,1.47,0,0,0,1.16-.49,1.89,1.89,0,0,0,.42-1.29,1.79,1.79,0,0,0-.3-1.06,4.08,4.08,0,0,0-1.16-1,8.25,8.25,0,0,1-1.33-1,2.89,2.89,0,0,1-.56-.83,3,3,0,0,1-.19-1.09,2.22,2.22,0,0,1,.7-1.69,2.42,2.42,0,0,1,1.76-.68,3.3,3.3,0,0,1,1.93.54l-.43.73a2.73,2.73,0,0,0-1.53-.48,1.59,1.59,0,0,0-1.18.44,1.54,1.54,0,0,0-.44,1.14,1.85,1.85,0,0,0,.3,1.07,4.63,4.63,0,0,0,1.26,1,7.51,7.51,0,0,1,1.31,1,2.35,2.35,0,0,1,.51.82A2.8,2.8,0,0,1,522.2,268.61ZM108.11,298h-.84V284.32h.84Zm8.83-4.79a7.25,7.25,0,0,1-.77,3.69,2.39,2.39,0,0,1-2.17,1.28,2.36,2.36,0,0,1-2.14-1.28,7.38,7.38,0,0,1-.74-3.69q0-4.93,2.92-4.93a2.37,2.37,0,0,1,2.13,1.29A7.19,7.19,0,0,1,116.94,293.21Zm-5,0a7.62,7.62,0,0,0,.49,3.12,1.63,1.63,0,0,0,1.54,1.06c1.36,0,2-1.4,2-4.18s-.69-4.14-2-4.14a1.63,1.63,0,0,0-1.56,1A7.89,7.89,0,0,0,112,293.21Zm10.9-4.91c1.86,0,2.8,1.63,2.8,4.91a7.92,7.92,0,0,1-.7,3.7,2.22,2.22,0,0,1-3.25.89,2.75,2.75,0,0,1-.93-1.12h-.07l-.12,1.32h-.68V284.32h.83v4.25l0,1.15h.07A2.3,2.3,0,0,1,122.89,288.3Zm0,.77a1.66,1.66,0,0,0-1.6,1,7.58,7.58,0,0,0-.49,3.17v.22q0,4,2.12,4a1.52,1.52,0,0,0,1.44-1,10.51,10.51,0,0,0,0-6.28A1.56,1.56,0,0,0,122.86,289.07Zm11.21,4.14a7.25,7.25,0,0,1-.77,3.69,2.39,2.39,0,0,1-2.17,1.28A2.35,2.35,0,0,1,129,296.9a7.38,7.38,0,0,1-.74-3.69q0-4.93,2.91-4.93a2.37,2.37,0,0,1,2.14,1.29A7.19,7.19,0,0,1,134.07,293.21Zm-4.95,0a7.62,7.62,0,0,0,.49,3.12,1.63,1.63,0,0,0,1.54,1.06c1.36,0,2-1.4,2-4.18s-.69-4.14-2-4.14a1.62,1.62,0,0,0-1.56,1A7.71,7.71,0,0,0,129.12,293.21Zm10.59-4.93a2.84,2.84,0,0,1,.84.12l-.21.84a1.61,1.61,0,0,0-.65-.13,1.17,1.17,0,0,0-.9.5,3.41,3.41,0,0,0-.65,1.38,7.46,7.46,0,0,0-.24,2V298h-.83v-9.54h.68l.09,1.67h.06C138.35,288.9,139,288.28,139.71,288.28Zm4.93,9.12a2,2,0,0,0,.68-.1v.7a2.37,2.37,0,0,1-1,.18c-1,0-1.48-.74-1.48-2.21V289.2H142v-.49l.85-.25.27-2.26h.58v2.26h1.51v.74h-1.51v6.53a2.82,2.82,0,0,0,.21,1.32A.78.78,0,0,0,144.64,297.4Zm3.94.6h-.84v-9.54h.84Zm-1-12.18a1,1,0,0,1,.16-.62.52.52,0,0,1,.42-.22.45.45,0,0,1,.38.22,1.19,1.19,0,0,1,.14.62,1.16,1.16,0,0,1-.14.6.43.43,0,0,1-.38.22.5.5,0,0,1-.42-.22A1,1,0,0,1,147.62,285.82Zm8.16,9.79a2.7,2.7,0,0,1-.63,1.89,2.38,2.38,0,0,1-1.83.68,3.51,3.51,0,0,1-1.14-.17,2.91,2.91,0,0,1-.77-.37v-1a2.29,2.29,0,0,0,.86.53,3.24,3.24,0,0,0,1.1.2,1.47,1.47,0,0,0,1.16-.49,1.89,1.89,0,0,0,.42-1.29,1.79,1.79,0,0,0-.3-1.06,4.08,4.08,0,0,0-1.16-1,8.25,8.25,0,0,1-1.33-1,2.89,2.89,0,0,1-.56-.83,3,3,0,0,1-.19-1.09,2.22,2.22,0,0,1,.7-1.69,2.42,2.42,0,0,1,1.76-.68,3.3,3.3,0,0,1,1.93.54l-.43.73a2.71,2.71,0,0,0-1.53-.48,1.61,1.61,0,0,0-1.18.44,1.54,1.54,0,0,0-.44,1.14,1.85,1.85,0,0,0,.3,1.07,4.63,4.63,0,0,0,1.26,1,7.51,7.51,0,0,1,1.31,1,2.35,2.35,0,0,1,.51.82A2.8,2.8,0,0,1,155.78,295.61Zm8,2.39h-.83V284.32h.83Zm8.83-4.79a7.25,7.25,0,0,1-.77,3.69,2.45,2.45,0,0,1-4.31,0,7.49,7.49,0,0,1-.74-3.69q0-4.93,2.92-4.93a2.37,2.37,0,0,1,2.13,1.29A7.19,7.19,0,0,1,172.57,293.21Zm-4.95,0a7.62,7.62,0,0,0,.49,3.12,1.63,1.63,0,0,0,1.54,1.06c1.37,0,2-1.4,2-4.18s-.68-4.14-2-4.14a1.62,1.62,0,0,0-1.55,1A7.68,7.68,0,0,0,167.62,293.21Zm10.59-4.93a2.84,2.84,0,0,1,.84.12l-.2.84a1.64,1.64,0,0,0-.65-.13,1.18,1.18,0,0,0-.91.5,3.55,3.55,0,0,0-.65,1.38,7.46,7.46,0,0,0-.24,2V298h-.83v-9.54h.68l.09,1.67h.06C176.85,288.9,177.45,288.28,178.21,288.28Zm5.89,9.9a2.6,2.6,0,0,1-2.33-1.29,6.75,6.75,0,0,1-.81-3.59,7.78,7.78,0,0,1,.72-3.73,2.29,2.29,0,0,1,2.09-1.29,2.12,2.12,0,0,1,1.88,1.13,5.9,5.9,0,0,1,.68,3v.78h-4.52a6.76,6.76,0,0,0,.59,3.12,1.86,1.86,0,0,0,1.73,1,3.74,3.74,0,0,0,1.89-.59v.8A3.59,3.59,0,0,1,184.1,298.18Zm-.38-9.14c-1.15,0-1.78,1.14-1.89,3.43h3.66A5.48,5.48,0,0,0,185,290,1.43,1.43,0,0,0,183.72,289Zm13.74,9v-6.49c0-1.61-.47-2.4-1.41-2.4a1.45,1.45,0,0,0-1.39.84,5.69,5.69,0,0,0-.42,2.47V298h-.83v-6.49a3.85,3.85,0,0,0-.34-1.81,1.14,1.14,0,0,0-1.07-.59,1.44,1.44,0,0,0-1.38.86,6.73,6.73,0,0,0-.43,2.79V298h-.83v-9.54h.7l.07,1.33h.08a2,2,0,0,1,1.94-1.51,1.77,1.77,0,0,1,1.25.42,2.35,2.35,0,0,1,.66,1.23,2.89,2.89,0,0,1,.84-1.26,2.07,2.07,0,0,1,1.3-.39,1.73,1.73,0,0,1,1.59.83,5.42,5.42,0,0,1,.5,2.66V298Zm9.35-9.54v6.23a4.62,4.62,0,0,0,.34,2.06,1.09,1.09,0,0,0,1,.65,1.69,1.69,0,0,0,1.58-.87,5.88,5.88,0,0,0,.51-2.83v-5.24h.83V298h-.71l-.1-1.34h-.07a2.69,2.69,0,0,1-.85,1.13,2,2,0,0,1-1.19.39,1.89,1.89,0,0,1-1.69-.82,5.16,5.16,0,0,1-.52-2.67v-6.23Zm10.39-.18a2.84,2.84,0,0,1,.84.12l-.2.84a1.69,1.69,0,0,0-.66-.13,1.17,1.17,0,0,0-.9.5,3.41,3.41,0,0,0-.65,1.38,7.46,7.46,0,0,0-.24,2V298h-.83v-9.54h.68l.09,1.67h.06C215.84,288.9,216.44,288.28,217.2,288.28Zm7.49,9.72v-6.57c0-1.59-.47-2.38-1.41-2.38a1.68,1.68,0,0,0-1.57.89,6,6,0,0,0-.5,2.82V298h-.83v-9.54h.7l.07,1.33h.08a2.58,2.58,0,0,1,.86-1.12,2.1,2.1,0,0,1,1.21-.39A1.93,1.93,0,0,1,225,289a4,4,0,0,1,.55,2.38V298Zm7.93,0-.11-1.34h0a2.22,2.22,0,0,1-2.08,1.52,1.81,1.81,0,0,1-1.5-.74,3.23,3.23,0,0,1-.56-2,2.86,2.86,0,0,1,.81-2.15,3.43,3.43,0,0,1,2.3-.87l1-.05v-.79a4.15,4.15,0,0,0-.34-1.95A1.15,1.15,0,0,0,231,289a3.15,3.15,0,0,0-1.67.53l-.36-.66a3.87,3.87,0,0,1,2.08-.61,1.9,1.9,0,0,1,1.69.75,4.42,4.42,0,0,1,.52,2.48V298Zm-2-.54a1.53,1.53,0,0,0,1.39-.88,5.17,5.17,0,0,0,.5-2.5v-1l-1,.05a2.46,2.46,0,0,0-1.71.64,2.31,2.31,0,0,0-.55,1.68,2.48,2.48,0,0,0,.37,1.52A1.18,1.18,0,0,0,230.59,297.46Zm12.87.72a2.38,2.38,0,0,1-2.16-1.24,7.47,7.47,0,0,1-.72-3.66,7.58,7.58,0,0,1,.73-3.72,2.36,2.36,0,0,1,2.17-1.28,3.15,3.15,0,0,1,1.48.32l-.33.74a2.6,2.6,0,0,0-1.08-.27q-2.1,0-2.1,4.19t2.1,4.16a3.71,3.71,0,0,0,1.35-.28v.7a2.45,2.45,0,0,1-.71.25A3.53,3.53,0,0,1,243.46,298.18Zm4.84-9.72v6.23a4.79,4.79,0,0,0,.33,2.06,1.11,1.11,0,0,0,1.05.65,1.69,1.69,0,0,0,1.58-.87,5.88,5.88,0,0,0,.51-2.83v-5.24h.83V298h-.71l-.1-1.34h-.07a2.69,2.69,0,0,1-.85,1.13,2,2,0,0,1-1.19.39,1.89,1.89,0,0,1-1.69-.82,5.14,5.14,0,0,1-.53-2.67v-6.23ZM264.15,298v-6.49c0-1.61-.47-2.4-1.41-2.4a1.45,1.45,0,0,0-1.39.84,5.53,5.53,0,0,0-.43,2.47V298h-.82v-6.49a3.71,3.71,0,0,0-.35-1.81,1.12,1.12,0,0,0-1.06-.59,1.44,1.44,0,0,0-1.38.86,6.57,6.57,0,0,0-.43,2.79V298h-.83v-9.54h.7l.07,1.33h.08a2,2,0,0,1,1.94-1.51,1.78,1.78,0,0,1,1.25.42,2.49,2.49,0,0,1,.66,1.23,2.89,2.89,0,0,1,.84-1.26,2.05,2.05,0,0,1,1.3-.39,1.71,1.71,0,0,1,1.58.83,5.29,5.29,0,0,1,.51,2.66V298ZM277,298v-6.57c0-1.59-.47-2.38-1.41-2.38a1.67,1.67,0,0,0-1.57.89,6,6,0,0,0-.5,2.82V298h-.83v-9.54h.7l.07,1.33h.08a2.58,2.58,0,0,1,.86-1.12,2.1,2.1,0,0,1,1.21-.39,1.93,1.93,0,0,1,1.66.75,4,4,0,0,1,.55,2.38V298Zm5-9.54v6.23a4.79,4.79,0,0,0,.33,2.06,1.11,1.11,0,0,0,1,.65,1.7,1.7,0,0,0,1.59-.87,5.88,5.88,0,0,0,.51-2.83v-5.24h.82V298h-.7l-.11-1.34h-.07a2.53,2.53,0,0,1-.85,1.13,2,2,0,0,1-1.19.39,1.88,1.88,0,0,1-1.68-.82,5.14,5.14,0,0,1-.53-2.67v-6.23ZM294.1,298v-6.57c0-1.59-.47-2.38-1.41-2.38a1.68,1.68,0,0,0-1.57.89,6.06,6.06,0,0,0-.49,2.82V298h-.84v-9.54h.7l.08,1.33h.07a2.52,2.52,0,0,1,.87-1.12,2,2,0,0,1,1.2-.39,1.93,1.93,0,0,1,1.66.75,4,4,0,0,1,.55,2.38V298Zm6.69.18a2.35,2.35,0,0,1-2.16-1.24,7.47,7.47,0,0,1-.72-3.66,7.58,7.58,0,0,1,.73-3.72,2.36,2.36,0,0,1,2.17-1.28,3.08,3.08,0,0,1,1.47.32l-.32.74a2.6,2.6,0,0,0-1.08-.27q-2.1,0-2.1,4.19t2.1,4.16a3.75,3.75,0,0,0,1.35-.28v.7a2.45,2.45,0,0,1-.71.25A3.61,3.61,0,0,1,300.79,298.18Zm3.93-1c0-.63.23-.94.69-.94a.63.63,0,0,1,.48.21,1,1,0,0,1,.2.73,1,1,0,0,1-.2.72.63.63,0,0,1-.48.21Q304.72,298.14,304.72,297.21Z"/><path d="M107.25,358V346.58H108v10.69h3.21V358Zm11-4.26a6.49,6.49,0,0,1-.68,3.28,2.19,2.19,0,0,1-3.84,0,6.75,6.75,0,0,1-.65-3.28q0-4.38,2.59-4.38a2.1,2.1,0,0,1,1.9,1.15A6.39,6.39,0,0,1,118.27,353.74Zm-4.4,0a6.87,6.87,0,0,0,.44,2.78,1.44,1.44,0,0,0,1.37.93c1.21,0,1.82-1.23,1.82-3.71s-.61-3.68-1.82-3.68a1.45,1.45,0,0,0-1.39.92A7,7,0,0,0,113.87,353.74Zm9.42-4.38a2.55,2.55,0,0,1,.74.11l-.18.74a1.47,1.47,0,0,0-.58-.12,1.06,1.06,0,0,0-.8.45,3.07,3.07,0,0,0-.58,1.23,6.69,6.69,0,0,0-.21,1.74V358h-.74v-8.48h.6l.08,1.49h.06C122.07,349.91,122.61,349.36,123.29,349.36Zm5.23,8.8a2.31,2.31,0,0,1-2.07-1.14,6,6,0,0,1-.72-3.2,6.84,6.84,0,0,1,.64-3.31,2,2,0,0,1,1.86-1.15,1.86,1.86,0,0,1,1.66,1,5.09,5.09,0,0,1,.61,2.7v.69h-4a6,6,0,0,0,.52,2.77,1.64,1.64,0,0,0,1.54.92,3.3,3.3,0,0,0,1.68-.52v.72A3.16,3.16,0,0,1,128.52,358.16Zm-.34-8.13q-1.53,0-1.68,3.06h3.26a4.81,4.81,0,0,0-.43-2.23A1.28,1.28,0,0,0,128.18,350Zm12.22,8v-5.77c0-1.43-.42-2.14-1.25-2.14a1.3,1.3,0,0,0-1.25.75,5.07,5.07,0,0,0-.37,2.2v5h-.74v-5.77a3.29,3.29,0,0,0-.3-1.6,1,1,0,0,0-1-.54,1.27,1.27,0,0,0-1.22.77,5.81,5.81,0,0,0-.39,2.48V358h-.74v-8.48h.63l.06,1.18H134a1.78,1.78,0,0,1,1.73-1.34,1.58,1.58,0,0,1,1.11.37,2.18,2.18,0,0,1,.58,1.1,2.54,2.54,0,0,1,.75-1.13,1.84,1.84,0,0,1,1.16-.34,1.51,1.51,0,0,1,1.4.74,4.7,4.7,0,0,1,.45,2.36V358Zm8.34,0H148v-8.48h.75Zm-.85-10.83a.87.87,0,0,1,.14-.54.43.43,0,0,1,.37-.2.38.38,0,0,1,.34.2,1.27,1.27,0,0,1,0,1.08.4.4,0,0,1-.34.2.45.45,0,0,1-.37-.2A.87.87,0,0,1,147.89,347.17Zm6.65,11a2,2,0,0,1-1.17-.36,2.19,2.19,0,0,1-.8-1h-.07l.05.93v4.08h-.74V349.52h.61l.08,1.17h.07a2.5,2.5,0,0,1,.8-1,1.79,1.79,0,0,1,1.07-.34q2.48,0,2.48,4.38a7.08,7.08,0,0,1-.61,3.27A1.94,1.94,0,0,1,154.54,358.16Zm-.15-8.1a1.49,1.49,0,0,0-1.38.82,5.45,5.45,0,0,0-.46,2.57v.25a6.84,6.84,0,0,0,.46,2.87,1.5,1.5,0,0,0,1.41.91,1.38,1.38,0,0,0,1.3-.9,7.18,7.18,0,0,0,.43-2.84,7.45,7.45,0,0,0-.4-2.76A1.39,1.39,0,0,0,154.39,350.06Zm8.53,5.82a2.33,2.33,0,0,1-.56,1.67,2.08,2.08,0,0,1-1.62.61,3.13,3.13,0,0,1-1-.15,2.53,2.53,0,0,1-.68-.33v-.87a2,2,0,0,0,.77.47,2.68,2.68,0,0,0,1,.17,1.28,1.28,0,0,0,1-.43,1.67,1.67,0,0,0,.38-1.14,1.59,1.59,0,0,0-.27-.95,3.73,3.73,0,0,0-1-.88,6.9,6.9,0,0,1-1.18-.88,2.21,2.21,0,0,1-.67-1.7,2,2,0,0,1,.62-1.51,2.15,2.15,0,0,1,1.57-.6,2.92,2.92,0,0,1,1.71.48l-.38.65a2.46,2.46,0,0,0-1.36-.43,1.42,1.42,0,0,0-1,.39,1.38,1.38,0,0,0-.39,1,1.65,1.65,0,0,0,.26.94,4.27,4.27,0,0,0,1.13.92,6.77,6.77,0,0,1,1.16.89,2.25,2.25,0,0,1,.46.73A2.67,2.67,0,0,1,162.92,355.88Zm3.23-6.36v5.53a4.2,4.2,0,0,0,.3,1.84,1,1,0,0,0,.93.58,1.52,1.52,0,0,0,1.41-.77,5.31,5.31,0,0,0,.45-2.52v-4.66H170V358h-.62l-.09-1.19h-.07a2.23,2.23,0,0,1-.76,1,1.77,1.77,0,0,1-1.05.35,1.68,1.68,0,0,1-1.5-.73,4.58,4.58,0,0,1-.47-2.38v-5.53ZM180.24,358v-5.77c0-1.43-.41-2.14-1.25-2.14a1.3,1.3,0,0,0-1.24.75,5.07,5.07,0,0,0-.37,2.2v5h-.74v-5.77a3.29,3.29,0,0,0-.3-1.6,1,1,0,0,0-1-.54,1.3,1.3,0,0,0-1.23.77,6,6,0,0,0-.38,2.48V358H173v-8.48h.62l.07,1.18h.07a1.77,1.77,0,0,1,1.72-1.34,1.57,1.57,0,0,1,1.11.37,2.19,2.19,0,0,1,.59,1.1,2.54,2.54,0,0,1,.75-1.13,1.83,1.83,0,0,1,1.15-.34,1.53,1.53,0,0,1,1.41.74,4.7,4.7,0,0,1,.45,2.36V358Zm9.67.16c-1.64,0-2.47-1.46-2.47-4.39a7,7,0,0,1,.62-3.28,2,2,0,0,1,2.9-.8,2.38,2.38,0,0,1,.82.9h.06l0-.94v-3.81h.74V358h-.61l-.06-1.19h-.07a2.43,2.43,0,0,1-.79,1A1.86,1.86,0,0,1,189.91,358.16Zm.05-.65a1.52,1.52,0,0,0,1.37-.82,4.92,4.92,0,0,0,.48-2.43v-.49a6.35,6.35,0,0,0-.47-2.81,1.49,1.49,0,0,0-1.41-.9,1.35,1.35,0,0,0-1.31,1,7.41,7.41,0,0,0-.4,2.77,7.11,7.11,0,0,0,.41,2.77A1.39,1.39,0,0,0,190,357.51Zm10.44-3.77a6.49,6.49,0,0,1-.68,3.28,2.19,2.19,0,0,1-3.84,0,6.75,6.75,0,0,1-.65-3.28q0-4.38,2.59-4.38a2.1,2.1,0,0,1,1.9,1.15A6.39,6.39,0,0,1,200.4,353.74Zm-4.4,0a6.87,6.87,0,0,0,.44,2.78,1.44,1.44,0,0,0,1.37.93c1.21,0,1.82-1.23,1.82-3.71s-.61-3.68-1.82-3.68a1.45,1.45,0,0,0-1.39.92A7,7,0,0,0,196,353.74Zm7.81,4.26h-.74V345.84h.74Zm7.85-4.26A6.49,6.49,0,0,1,211,357a2.13,2.13,0,0,1-1.93,1.14,2.09,2.09,0,0,1-1.91-1.14,6.62,6.62,0,0,1-.66-3.28q0-4.38,2.6-4.38a2.11,2.11,0,0,1,1.9,1.15A6.39,6.39,0,0,1,211.66,353.74Zm-4.4,0a6.7,6.7,0,0,0,.44,2.78,1.43,1.43,0,0,0,1.36.93c1.22,0,1.82-1.23,1.82-3.71s-.6-3.68-1.82-3.68a1.45,1.45,0,0,0-1.38.92A7,7,0,0,0,207.26,353.74Zm9.42-4.38a2.55,2.55,0,0,1,.74.11l-.18.74a1.47,1.47,0,0,0-.58-.12,1.06,1.06,0,0,0-.81.45,3.2,3.2,0,0,0-.57,1.23,6.69,6.69,0,0,0-.21,1.74V358h-.75v-8.48h.61L215,351h.06C215.46,349.91,216,349.36,216.68,349.36Zm10,6.52a2.33,2.33,0,0,1-.56,1.67,2.08,2.08,0,0,1-1.62.61,3.13,3.13,0,0,1-1-.15,2.53,2.53,0,0,1-.68-.33v-.87a2,2,0,0,0,.76.47,2.77,2.77,0,0,0,1,.17,1.28,1.28,0,0,0,1-.43,1.67,1.67,0,0,0,.38-1.14,1.53,1.53,0,0,0-.28-.95,3.51,3.51,0,0,0-1-.88,7.55,7.55,0,0,1-1.19-.88,2.53,2.53,0,0,1-.49-.73,2.59,2.59,0,0,1-.17-1,2,2,0,0,1,.62-1.51,2.15,2.15,0,0,1,1.57-.6,2.92,2.92,0,0,1,1.71.48l-.39.65a2.4,2.4,0,0,0-1.35-.43,1.42,1.42,0,0,0-1,.39,1.38,1.38,0,0,0-.39,1,1.65,1.65,0,0,0,.26.94,4.27,4.27,0,0,0,1.13.92,6.22,6.22,0,0,1,1.15.89,2.12,2.12,0,0,1,.47.73A2.67,2.67,0,0,1,226.64,355.88ZM229.9,358h-.74v-8.48h.74Zm-.85-10.83a.94.94,0,0,1,.14-.54.44.44,0,0,1,.38-.2.36.36,0,0,1,.33.2,1.19,1.19,0,0,1,0,1.08.38.38,0,0,1-.33.2.47.47,0,0,1-.38-.2A.94.94,0,0,1,229.05,347.17Zm5.48,10.3a1.91,1.91,0,0,0,.61-.09V358a2.2,2.2,0,0,1-.88.16c-.88,0-1.31-.66-1.31-2v-6h-.77v-.44l.75-.22.24-2h.52v2H235v.66h-1.34V356a2.46,2.46,0,0,0,.19,1.18A.7.7,0,0,0,234.53,357.47Zm9.86.53-.1-1.19h0a2,2,0,0,1-1.84,1.35,1.62,1.62,0,0,1-1.34-.66,2.88,2.88,0,0,1-.5-1.77,2.57,2.57,0,0,1,.73-1.92,3,3,0,0,1,2-.77l.91-.05v-.7a3.91,3.91,0,0,0-.29-1.73,1,1,0,0,0-1-.54,2.74,2.74,0,0,0-1.48.47l-.32-.58a3.41,3.41,0,0,1,1.85-.55,1.71,1.71,0,0,1,1.51.66,4,4,0,0,1,.46,2.21V358Zm-1.81-.48a1.35,1.35,0,0,0,1.24-.78,4.53,4.53,0,0,0,.44-2.22v-.89l-.88.05a2.23,2.23,0,0,0-1.52.57,2.06,2.06,0,0,0-.49,1.49,2.27,2.27,0,0,0,.32,1.35A1.06,1.06,0,0,0,242.58,357.52Zm12.66.48v-5.77c0-1.43-.42-2.14-1.25-2.14a1.3,1.3,0,0,0-1.25.75,5.07,5.07,0,0,0-.37,2.2v5h-.74v-5.77a3.29,3.29,0,0,0-.3-1.6,1,1,0,0,0-1-.54,1.27,1.27,0,0,0-1.22.77,5.81,5.81,0,0,0-.39,2.48V358H248v-8.48h.63l.06,1.18h.07a1.79,1.79,0,0,1,1.73-1.34,1.57,1.57,0,0,1,1.11.37,2.18,2.18,0,0,1,.58,1.1,2.71,2.71,0,0,1,.75-1.13,1.86,1.86,0,0,1,1.16-.34,1.51,1.51,0,0,1,1.4.74,4.7,4.7,0,0,1,.45,2.36V358Zm6.19.16a2.31,2.31,0,0,1-2.07-1.14,6,6,0,0,1-.72-3.2,6.84,6.84,0,0,1,.64-3.31,2,2,0,0,1,1.86-1.15,1.87,1.87,0,0,1,1.66,1,5.09,5.09,0,0,1,.61,2.7v.69h-4a6.11,6.11,0,0,0,.53,2.77,1.64,1.64,0,0,0,1.54.92,3.3,3.3,0,0,0,1.68-.52v.72A3.16,3.16,0,0,1,261.43,358.16Zm-.34-8.13q-1.53,0-1.68,3.06h3.26a4.81,4.81,0,0,0-.43-2.23A1.28,1.28,0,0,0,261.09,350Zm6.57,7.44a1.91,1.91,0,0,0,.61-.09V358a2.25,2.25,0,0,1-.89.16c-.87,0-1.31-.66-1.31-2v-6h-.77v-.44l.75-.22.25-2h.51v2h1.35v.66h-1.35V356a2.6,2.6,0,0,0,.19,1.18A.71.71,0,0,0,267.66,357.47Zm4-.89a26.16,26.16,0,0,1-1.29,3.48h-.5a21.37,21.37,0,0,0,.78-3.66h.9Zm8.83,1.58a2.09,2.09,0,0,1-1.92-1.11,6.55,6.55,0,0,1-.64-3.25,6.69,6.69,0,0,1,.65-3.3,2.09,2.09,0,0,1,1.92-1.14,2.74,2.74,0,0,1,1.32.29l-.29.65a2.33,2.33,0,0,0-1-.24c-1.25,0-1.87,1.24-1.87,3.73s.62,3.69,1.87,3.69a3.27,3.27,0,0,0,1.2-.25v.63a2.32,2.32,0,0,1-.63.22A3.46,3.46,0,0,1,280.51,358.16Zm8.36-4.42a6.49,6.49,0,0,1-.68,3.28,2.12,2.12,0,0,1-1.93,1.14,2.08,2.08,0,0,1-1.9-1.14,6.62,6.62,0,0,1-.66-3.28c0-2.92.87-4.38,2.59-4.38a2.09,2.09,0,0,1,1.9,1.15A6.39,6.39,0,0,1,288.87,353.74Zm-4.4,0a6.87,6.87,0,0,0,.44,2.78,1.44,1.44,0,0,0,1.37.93c1.21,0,1.82-1.23,1.82-3.71s-.61-3.68-1.82-3.68a1.45,1.45,0,0,0-1.39.92A7,7,0,0,0,284.47,353.74Zm10.9,4.26v-5.84c0-1.41-.42-2.11-1.25-2.11a1.49,1.49,0,0,0-1.4.79,5.39,5.39,0,0,0-.44,2.5V358h-.74v-8.48h.62l.07,1.18h.07a2.24,2.24,0,0,1,.76-1,1.87,1.87,0,0,1,1.07-.35,1.73,1.73,0,0,1,1.48.66,3.58,3.58,0,0,1,.49,2.12V358Zm7.09-2.12a2.33,2.33,0,0,1-.56,1.67,2.08,2.08,0,0,1-1.62.61,3.13,3.13,0,0,1-1-.15,2.53,2.53,0,0,1-.68-.33v-.87a2,2,0,0,0,.77.47,2.72,2.72,0,0,0,1,.17,1.3,1.3,0,0,0,1-.43,1.66,1.66,0,0,0,.37-1.14,1.59,1.59,0,0,0-.27-.95,3.73,3.73,0,0,0-1-.88,8.07,8.07,0,0,1-1.19-.88,2.75,2.75,0,0,1-.49-.73,2.59,2.59,0,0,1-.17-1,2,2,0,0,1,.62-1.51,2.15,2.15,0,0,1,1.57-.6,2.92,2.92,0,0,1,1.71.48l-.38.65a2.46,2.46,0,0,0-1.36-.43,1.42,1.42,0,0,0-1.05.39,1.38,1.38,0,0,0-.39,1,1.58,1.58,0,0,0,.27.94,4,4,0,0,0,1.12.92,6.77,6.77,0,0,1,1.16.89,2.25,2.25,0,0,1,.46.73A2.67,2.67,0,0,1,302.46,355.88Zm4.93,2.28a2.31,2.31,0,0,1-2.07-1.14,6,6,0,0,1-.72-3.2,6.84,6.84,0,0,1,.64-3.31,2,2,0,0,1,1.86-1.15,1.86,1.86,0,0,1,1.66,1,5.09,5.09,0,0,1,.61,2.7v.69h-4a6,6,0,0,0,.52,2.77,1.64,1.64,0,0,0,1.54.92,3.3,3.3,0,0,0,1.68-.52v.72A3.16,3.16,0,0,1,307.39,358.16Zm-.34-8.13q-1.53,0-1.68,3.06h3.26a4.81,4.81,0,0,0-.43-2.23A1.28,1.28,0,0,0,307.05,350Zm7.19,8.13a2.09,2.09,0,0,1-1.92-1.11,6.55,6.55,0,0,1-.64-3.25,6.81,6.81,0,0,1,.65-3.3,2.1,2.1,0,0,1,1.93-1.14,2.7,2.7,0,0,1,1.31.29l-.29.65a2.33,2.33,0,0,0-1-.24c-1.24,0-1.87,1.24-1.87,3.73s.63,3.69,1.87,3.69a3.27,3.27,0,0,0,1.2-.25v.63a2.32,2.32,0,0,1-.63.22A3.37,3.37,0,0,1,314.24,358.16Zm5.15-.69a1.91,1.91,0,0,0,.61-.09V358a2.25,2.25,0,0,1-.89.16c-.87,0-1.31-.66-1.31-2v-6H317v-.44l.75-.22.24-2h.51v2h1.35v.66h-1.35V356a2.6,2.6,0,0,0,.19,1.18A.73.73,0,0,0,319.39,357.47Zm5.16.69a2.33,2.33,0,0,1-2.07-1.14,6.15,6.15,0,0,1-.71-3.2,6.84,6.84,0,0,1,.64-3.31,2,2,0,0,1,1.86-1.15,1.87,1.87,0,0,1,1.66,1,5.09,5.09,0,0,1,.61,2.7v.69h-4a6,6,0,0,0,.53,2.77,1.64,1.64,0,0,0,1.54.92,3.3,3.3,0,0,0,1.68-.52v.72A3.22,3.22,0,0,1,324.55,358.16Zm-.33-8.13q-1.53,0-1.68,3.06h3.26a4.94,4.94,0,0,0-.43-2.23A1.29,1.29,0,0,0,324.22,350Zm6.56,7.44a1.87,1.87,0,0,0,.61-.09V358a2.16,2.16,0,0,1-.88.16c-.87,0-1.31-.66-1.31-2v-6h-.77v-.44l.75-.22.24-2h.52v2h1.34v.66h-1.34V356a2.46,2.46,0,0,0,.19,1.18A.7.7,0,0,0,330.78,357.47Zm3.48-8v5.53a4.38,4.38,0,0,0,.29,1.84,1,1,0,0,0,.93.58,1.52,1.52,0,0,0,1.41-.77,5.31,5.31,0,0,0,.45-2.52v-4.66h.74V358h-.63l-.09-1.19h-.06a2.38,2.38,0,0,1-.76,1,1.82,1.82,0,0,1-1.06.35,1.68,1.68,0,0,1-1.5-.73,4.58,4.58,0,0,1-.47-2.38v-5.53Zm9.23-.16a2.56,2.56,0,0,1,.75.11l-.18.74a1.47,1.47,0,0,0-.58-.12,1.06,1.06,0,0,0-.81.45,3.2,3.2,0,0,0-.57,1.23,6.28,6.28,0,0,0-.22,1.74V358h-.74v-8.48h.61l.08,1.49h.05C342.28,349.91,342.82,349.36,343.49,349.36Zm9.92,8.64-.09-1.19h0a2,2,0,0,1-1.84,1.35,1.6,1.6,0,0,1-1.34-.66,2.88,2.88,0,0,1-.5-1.77,2.53,2.53,0,0,1,.73-1.92,3,3,0,0,1,2-.77l.91-.05v-.7a3.75,3.75,0,0,0-.3-1.73,1,1,0,0,0-1-.54,2.77,2.77,0,0,0-1.49.47l-.32-.58a3.43,3.43,0,0,1,1.85-.55,1.7,1.7,0,0,1,1.51.66,4,4,0,0,1,.46,2.21V358Zm-1.8-.48a1.35,1.35,0,0,0,1.23-.78,4.52,4.52,0,0,0,.45-2.22v-.89l-.88.05a2.26,2.26,0,0,0-1.53.57,2.06,2.06,0,0,0-.49,1.49,2.19,2.19,0,0,0,.33,1.35A1,1,0,0,0,351.61,357.52Zm7.52.64q-2.47,0-2.47-4.39a6.87,6.87,0,0,1,.62-3.28,2,2,0,0,1,1.82-1.13,1.9,1.9,0,0,1,1.07.33,2.3,2.3,0,0,1,.82.9h.07l0-.94v-3.81h.74V358h-.61l-.06-1.19H361a2.61,2.61,0,0,1-.79,1A1.86,1.86,0,0,1,359.13,358.16Zm0-.65a1.51,1.51,0,0,0,1.37-.82,4.91,4.91,0,0,0,.49-2.43v-.49a6.35,6.35,0,0,0-.47-2.81,1.51,1.51,0,0,0-1.42-.9,1.36,1.36,0,0,0-1.31,1,7.62,7.62,0,0,0-.4,2.77,7.08,7.08,0,0,0,.42,2.77A1.38,1.38,0,0,0,359.17,357.51Zm6.41.49h-.74v-8.48h.74Zm-.85-10.83a.94.94,0,0,1,.14-.54.44.44,0,0,1,.38-.2.36.36,0,0,1,.33.2,1.19,1.19,0,0,1,0,1.08.38.38,0,0,1-.33.2.47.47,0,0,1-.38-.2A.94.94,0,0,1,364.73,347.17Zm6.65,11a2.07,2.07,0,0,1-1.17-.36,2.17,2.17,0,0,1-.79-1h-.07l0,.93v4.08h-.74V349.52h.61l.08,1.17h.07a2.48,2.48,0,0,1,.79-1,1.84,1.84,0,0,1,1.07-.34q2.49,0,2.49,4.38a7.21,7.21,0,0,1-.61,3.27A1.94,1.94,0,0,1,371.38,358.16Zm-.14-8.1a1.5,1.5,0,0,0-1.39.82,5.6,5.6,0,0,0-.45,2.57v.25a6.68,6.68,0,0,0,.46,2.87,1.5,1.5,0,0,0,1.41.91,1.36,1.36,0,0,0,1.29-.9,7,7,0,0,0,.43-2.84,7.48,7.48,0,0,0-.39-2.76A1.39,1.39,0,0,0,371.24,350.06Zm5.94,7.94h-.74v-8.48h.74Zm-.85-10.83a.94.94,0,0,1,.14-.54.44.44,0,0,1,.38-.2.36.36,0,0,1,.33.2,1.19,1.19,0,0,1,0,1.08.38.38,0,0,1-.33.2.47.47,0,0,1-.38-.2A.94.94,0,0,1,376.33,347.17Zm7.26,8.71a2.33,2.33,0,0,1-.57,1.67,2.07,2.07,0,0,1-1.62.61,3.13,3.13,0,0,1-1-.15,2.53,2.53,0,0,1-.68-.33v-.87a2.09,2.09,0,0,0,.77.47,2.73,2.73,0,0,0,1,.17,1.29,1.29,0,0,0,1-.43,1.66,1.66,0,0,0,.37-1.14,1.59,1.59,0,0,0-.27-.95,3.73,3.73,0,0,0-1-.88,7.34,7.34,0,0,1-1.18-.88,2.34,2.34,0,0,1-.49-.73,2.4,2.4,0,0,1-.18-1,2,2,0,0,1,.62-1.51,2.17,2.17,0,0,1,1.57-.6,2.92,2.92,0,0,1,1.71.48l-.38.65a2.46,2.46,0,0,0-1.36-.43,1.42,1.42,0,0,0-1.05.39,1.38,1.38,0,0,0-.39,1,1.58,1.58,0,0,0,.27.94,4,4,0,0,0,1.12.92,6.38,6.38,0,0,1,1.16.89,2.09,2.09,0,0,1,.46.73A2.66,2.66,0,0,1,383.59,355.88Zm4.69,2.28a2.1,2.1,0,0,1-1.92-1.11,6.55,6.55,0,0,1-.64-3.25,6.81,6.81,0,0,1,.65-3.3,2.1,2.1,0,0,1,1.93-1.14,2.7,2.7,0,0,1,1.31.29l-.29.65a2.33,2.33,0,0,0-1-.24c-1.24,0-1.87,1.24-1.87,3.73s.63,3.69,1.87,3.69a3.36,3.36,0,0,0,1.21-.25v.63a2.52,2.52,0,0,1-.64.22A3.37,3.37,0,0,1,388.28,358.16Zm4.34-.16h-.75v-8.48h.75Zm-.86-10.83a.94.94,0,0,1,.14-.54.44.44,0,0,1,.38-.2.38.38,0,0,1,.34.2,1.27,1.27,0,0,1,0,1.08.4.4,0,0,1-.34.2.47.47,0,0,1-.38-.2A.94.94,0,0,1,391.76,347.17ZM399.52,358v-5.84c0-1.41-.42-2.11-1.25-2.11a1.49,1.49,0,0,0-1.4.79,5.39,5.39,0,0,0-.44,2.5V358h-.74v-8.48h.62l.07,1.18h.07a2.24,2.24,0,0,1,.76-1,1.87,1.87,0,0,1,1.07-.35,1.73,1.73,0,0,1,1.48.66,3.58,3.58,0,0,1,.49,2.12V358Zm8.2-8.48v.53l-1.15.13a2.54,2.54,0,0,1,.38.87,4.56,4.56,0,0,1,.15,1.16,3.34,3.34,0,0,1-.56,2,1.74,1.74,0,0,1-1.47.77h-.19l-.16,0a3.63,3.63,0,0,0-.6.53,1,1,0,0,0-.21.62.66.66,0,0,0,.28.56,1.32,1.32,0,0,0,.76.2h.53a2.48,2.48,0,0,1,1.76.58,2.21,2.21,0,0,1,.62,1.7,2.48,2.48,0,0,1-.84,2,3.27,3.27,0,0,1-2.21.72,2.47,2.47,0,0,1-1.77-.58,2.18,2.18,0,0,1-.61-1.67,2.29,2.29,0,0,1,.4-1.37,2.67,2.67,0,0,1,1.28-.89,1.83,1.83,0,0,1-.64-.48,1.17,1.17,0,0,1-.23-.72,1,1,0,0,1,.25-.68,3.74,3.74,0,0,1,.73-.65,2,2,0,0,1-1-1,4.1,4.1,0,0,1,.24-3.7,1.83,1.83,0,0,1,1.57-.78,2.15,2.15,0,0,1,.89.16Zm-4.56,10a1.78,1.78,0,0,0,.42,1.26,1.64,1.64,0,0,0,1.26.45,2.42,2.42,0,0,0,1.66-.54,1.92,1.92,0,0,0,.61-1.5,1.45,1.45,0,0,0-1.63-1.6h-.55a1.66,1.66,0,0,0-1.27.53A2,2,0,0,0,403.16,359.52Zm.46-7.23a2.69,2.69,0,0,0,.39,1.58,1.19,1.19,0,0,0,1,.53c.91,0,1.36-.73,1.36-2.19a3.32,3.32,0,0,0-.35-1.65,1.11,1.11,0,0,0-1-.59,1.14,1.14,0,0,0-1,.61A3.35,3.35,0,0,0,403.62,352.29Zm12.49,5.87A2.33,2.33,0,0,1,414,357a6,6,0,0,1-.71-3.2,6.84,6.84,0,0,1,.64-3.31,2,2,0,0,1,1.86-1.15,1.87,1.87,0,0,1,1.66,1,5.09,5.09,0,0,1,.61,2.7v.69h-4a6,6,0,0,0,.53,2.77,1.63,1.63,0,0,0,1.54.92,3.3,3.3,0,0,0,1.68-.52v.72A3.21,3.21,0,0,1,416.11,358.16Zm-.34-8.13q-1.53,0-1.68,3.06h3.26a4.94,4.94,0,0,0-.43-2.23A1.29,1.29,0,0,0,415.77,350Zm5.75,8h-.74V345.84h.74Zm3.82,0h-.74v-8.48h.74Zm-.85-10.83a.87.87,0,0,1,.14-.54.43.43,0,0,1,.37-.2.38.38,0,0,1,.34.2,1.28,1.28,0,0,1,0,1.08.4.4,0,0,1-.34.2.45.45,0,0,1-.37-.2A.87.87,0,0,1,424.49,347.17Zm5.48,10.3a1.91,1.91,0,0,0,.61-.09V358a2.25,2.25,0,0,1-.89.16c-.87,0-1.31-.66-1.31-2v-6h-.77v-.44l.75-.22.25-2h.51v2h1.35v.66h-1.35V356a2.46,2.46,0,0,0,.19,1.18A.71.71,0,0,0,430,357.47Zm2.66-.17c0-.56.21-.84.61-.84a.56.56,0,0,1,.43.19.92.92,0,0,1,.18.65.94.94,0,0,1-.18.64.59.59,0,0,1-.43.19C432.84,358.13,432.63,357.85,432.63,357.3Zm11.88.7-3-10.4h-.07c0,1.1.08,1.79.08,2.08V358h-.73V346.58h1.13l2.56,8.73a12.89,12.89,0,0,1,.45,2H445a14.79,14.79,0,0,1,.48-1.95l2.54-8.75h1.17V358h-.76v-8.26c0-.32,0-1,.08-2.12h-.07l-3,10.38Zm12.61-4.26a6.49,6.49,0,0,1-.68,3.28,2.19,2.19,0,0,1-3.84,0,6.75,6.75,0,0,1-.65-3.28q0-4.38,2.59-4.38a2.1,2.1,0,0,1,1.9,1.15A6.39,6.39,0,0,1,457.12,353.74Zm-4.4,0a6.87,6.87,0,0,0,.44,2.78,1.43,1.43,0,0,0,1.36.93c1.22,0,1.83-1.23,1.83-3.71s-.61-3.68-1.83-3.68a1.45,1.45,0,0,0-1.38.92A7,7,0,0,0,452.72,353.74Zm9.42-4.38a2.55,2.55,0,0,1,.74.11l-.18.74a1.47,1.47,0,0,0-.58-.12,1,1,0,0,0-.8.45,3.07,3.07,0,0,0-.58,1.23,6.69,6.69,0,0,0-.21,1.74V358h-.74v-8.48h.6l.08,1.49h.06C460.92,349.91,461.46,349.36,462.14,349.36Zm5.45,0q2.48,0,2.48,4.36a7,7,0,0,1-.62,3.29,1.94,1.94,0,0,1-1.78,1.13,2,2,0,0,1-1.11-.34,2.5,2.5,0,0,1-.83-1h-.06l-.1,1.17H465V345.84h.74v3.78l0,1h.06A2.06,2.06,0,0,1,467.59,349.38Zm0,.68a1.48,1.48,0,0,0-1.41.86,6.64,6.64,0,0,0-.44,2.82v.2q0,3.54,1.89,3.54a1.36,1.36,0,0,0,1.28-.91,7.12,7.12,0,0,0,.43-2.83,7,7,0,0,0-.42-2.76A1.38,1.38,0,0,0,467.55,350.06Zm5.94,7.94h-.75v-8.48h.75Zm-.85-10.83a.87.87,0,0,1,.14-.54.43.43,0,0,1,.37-.2.38.38,0,0,1,.34.2,1.28,1.28,0,0,1,0,1.08.4.4,0,0,1-.34.2.45.45,0,0,1-.37-.2A.87.87,0,0,1,472.64,347.17ZM481.32,358l-2-8.48h.75l1.27,5.46c.14.63.28,1.31.42,2.06h.06c0-.27.09-.57.16-.91s.58-2.53,1.54-6.61h.75L482.2,358Zm7.37.16a2.33,2.33,0,0,1-2.07-1.14,6,6,0,0,1-.72-3.2,7,7,0,0,1,.64-3.31,2,2,0,0,1,1.86-1.15,1.88,1.88,0,0,1,1.67,1,5.19,5.19,0,0,1,.61,2.7v.69h-4a6.12,6.12,0,0,0,.52,2.77,1.65,1.65,0,0,0,1.54.92,3.25,3.25,0,0,0,1.68-.52v.72A3.16,3.16,0,0,1,488.69,358.16Zm-.33-8.13c-1,0-1.58,1-1.68,3.06h3.25a5,5,0,0,0-.42-2.23A1.3,1.3,0,0,0,488.36,350Zm5.75,8h-.74V345.84h.74Zm8.44-.53a1.91,1.91,0,0,0,.61-.09V358a2.2,2.2,0,0,1-.88.16c-.88,0-1.31-.66-1.31-2v-6h-.77v-.44l.75-.22.24-2h.52v2h1.34v.66h-1.34V356a2.46,2.46,0,0,0,.19,1.18A.7.7,0,0,0,502.55,357.47Zm3.51.53h-.75v-8.48h.75Zm-.86-10.83a.87.87,0,0,1,.15-.54.42.42,0,0,1,.37-.2.38.38,0,0,1,.34.2,1.28,1.28,0,0,1,0,1.08.4.4,0,0,1-.34.2.44.44,0,0,1-.37-.2A.87.87,0,0,1,505.2,347.17ZM513,358v-5.84c0-1.41-.42-2.11-1.25-2.11a1.49,1.49,0,0,0-1.4.79,5.39,5.39,0,0,0-.44,2.5V358h-.74v-8.48h.63l.06,1.18h.07a2.31,2.31,0,0,1,.76-1,1.87,1.87,0,0,1,1.07-.35,1.73,1.73,0,0,1,1.48.66,3.58,3.58,0,0,1,.49,2.12V358Zm5.95.16a2.11,2.11,0,0,1-1.93-1.11,6.66,6.66,0,0,1-.64-3.25,6.81,6.81,0,0,1,.65-3.3,2.1,2.1,0,0,1,1.93-1.14,2.67,2.67,0,0,1,1.31.29l-.28.65a2.34,2.34,0,0,0-1-.24c-1.24,0-1.86,1.24-1.86,3.73s.62,3.69,1.86,3.69a3.32,3.32,0,0,0,1.21-.25v.63a2.39,2.39,0,0,1-.64.22A3.37,3.37,0,0,1,518.91,358.16Zm4.33-.16h-.75v-8.48h.75Zm-.85-10.83a.87.87,0,0,1,.14-.54.43.43,0,0,1,.37-.2.38.38,0,0,1,.34.2,1.28,1.28,0,0,1,0,1.08.4.4,0,0,1-.34.2.45.45,0,0,1-.37-.2A.87.87,0,0,1,522.39,347.17Zm6,11q-2.48,0-2.47-4.39a7,7,0,0,1,.62-3.28,2,2,0,0,1,2.9-.8,2.46,2.46,0,0,1,.82.9h.06l0-.94v-3.81H531V358h-.61l-.06-1.19h-.07a2.52,2.52,0,0,1-.79,1A1.86,1.86,0,0,1,528.38,358.16Zm0-.65a1.5,1.5,0,0,0,1.36-.82,4.8,4.8,0,0,0,.49-2.43v-.49a6.35,6.35,0,0,0-.47-2.81,1.5,1.5,0,0,0-1.41-.9,1.37,1.37,0,0,0-1.32,1,7.65,7.65,0,0,0-.39,2.77,7.11,7.11,0,0,0,.41,2.77A1.39,1.39,0,0,0,528.43,357.51Zm6.38-8v5.53a4.38,4.38,0,0,0,.29,1.84,1,1,0,0,0,.93.58,1.52,1.52,0,0,0,1.41-.77,5.31,5.31,0,0,0,.45-2.52v-4.66h.74V358H538l-.09-1.19h-.07a2.28,2.28,0,0,1-.75,1,1.8,1.8,0,0,1-1.06.35,1.68,1.68,0,0,1-1.5-.73,4.58,4.58,0,0,1-.47-2.38v-5.53ZM545.52,358v-5.84c0-1.41-.42-2.11-1.25-2.11a1.5,1.5,0,0,0-1.4.79,5.39,5.39,0,0,0-.44,2.5V358h-.74v-8.48h.63l.06,1.18h.07a2.26,2.26,0,0,1,.77-1,1.85,1.85,0,0,1,1.07-.35,1.72,1.72,0,0,1,1.47.66,3.58,3.58,0,0,1,.5,2.12V358Zm5.32-.53a1.87,1.87,0,0,0,.61-.09V358a2.2,2.2,0,0,1-.88.16c-.87,0-1.31-.66-1.31-2v-6h-.77v-.44l.75-.22.24-2H550v2h1.34v.66H550V356a2.46,2.46,0,0,0,.19,1.18A.7.7,0,0,0,550.84,357.47Zm7.32.53h-.74v-8.48h.74Zm-.85-10.83a.94.94,0,0,1,.14-.54.44.44,0,0,1,.38-.2.36.36,0,0,1,.33.2,1.19,1.19,0,0,1,0,1.08.38.38,0,0,1-.33.2.47.47,0,0,1-.38-.2A.94.94,0,0,1,557.31,347.17Zm6,11q-2.47,0-2.47-4.39a6.87,6.87,0,0,1,.62-3.28,2,2,0,0,1,1.82-1.13,1.9,1.9,0,0,1,1.07.33,2.3,2.3,0,0,1,.82.9h.07l0-.94v-3.81H566V358h-.61l-.06-1.19h-.07a2.61,2.61,0,0,1-.79,1A1.9,1.9,0,0,1,563.31,358.16Zm0-.65a1.51,1.51,0,0,0,1.37-.82,4.91,4.91,0,0,0,.49-2.43v-.49a6.35,6.35,0,0,0-.47-2.81,1.51,1.51,0,0,0-1.42-.9,1.36,1.36,0,0,0-1.31,1,7.41,7.41,0,0,0-.4,2.77,7.08,7.08,0,0,0,.42,2.77A1.37,1.37,0,0,0,563.35,357.51ZM109.54,382.16a2.31,2.31,0,0,1-2.07-1.14,6,6,0,0,1-.72-3.2,6.84,6.84,0,0,1,.64-3.31,2,2,0,0,1,1.86-1.15,1.86,1.86,0,0,1,1.66,1,5.09,5.09,0,0,1,.61,2.7v.69h-4a6,6,0,0,0,.52,2.77,1.64,1.64,0,0,0,1.54.92,3.3,3.3,0,0,0,1.68-.52v.72A3.16,3.16,0,0,1,109.54,382.16ZM109.2,374q-1.53,0-1.68,3.06h3.26a4.81,4.81,0,0,0-.43-2.23A1.28,1.28,0,0,0,109.2,374Zm5.76,8h-.75V369.84H115Zm3.81,0H118v-8.48h.74Zm-.85-10.83a.94.94,0,0,1,.14-.54.44.44,0,0,1,.38-.2.36.36,0,0,1,.33.2,1.19,1.19,0,0,1,0,1.08.38.38,0,0,1-.33.2.47.47,0,0,1-.38-.2A.94.94,0,0,1,117.92,371.17Zm5.48,10.3a1.91,1.91,0,0,0,.61-.09V382a2.2,2.2,0,0,1-.88.16c-.88,0-1.32-.66-1.32-2v-6h-.76v-.44l.75-.22.24-2h.52v2h1.34v.66h-1.34V380a2.63,2.63,0,0,0,.18,1.18A.73.73,0,0,0,123.4,381.47Zm9.86.53-.1-1.19h0a2,2,0,0,1-1.84,1.35,1.62,1.62,0,0,1-1.34-.66,2.88,2.88,0,0,1-.5-1.77,2.57,2.57,0,0,1,.73-1.92,3,3,0,0,1,2-.77l.91-.05v-.7a3.91,3.91,0,0,0-.29-1.73,1,1,0,0,0-1-.54,2.74,2.74,0,0,0-1.48.47l-.32-.58a3.38,3.38,0,0,1,1.85-.55,1.71,1.71,0,0,1,1.51.66,4.06,4.06,0,0,1,.46,2.21V382Zm-1.81-.48a1.36,1.36,0,0,0,1.24-.78,4.64,4.64,0,0,0,.44-2.22v-.89l-.88.05a2.23,2.23,0,0,0-1.52.57,2.06,2.06,0,0,0-.5,1.49,2.19,2.19,0,0,0,.33,1.35A1.06,1.06,0,0,0,131.45,381.52Zm12.65.48v-5.77c0-1.43-.41-2.14-1.25-2.14a1.3,1.3,0,0,0-1.24.75,5.07,5.07,0,0,0-.37,2.2v5h-.74v-5.77a3.29,3.29,0,0,0-.3-1.6,1,1,0,0,0-.95-.54,1.27,1.27,0,0,0-1.22.77,5.81,5.81,0,0,0-.39,2.48V382h-.74v-8.48h.63l.06,1.18h.07a1.78,1.78,0,0,1,1.73-1.34,1.56,1.56,0,0,1,1.1.37,2.12,2.12,0,0,1,.59,1.1,2.54,2.54,0,0,1,.75-1.13,1.84,1.84,0,0,1,1.16-.34,1.51,1.51,0,0,1,1.4.74,4.7,4.7,0,0,1,.45,2.36V382Zm6.19.16a2.3,2.3,0,0,1-2.06-1.14,6,6,0,0,1-.72-3.2,6.84,6.84,0,0,1,.64-3.31,2,2,0,0,1,1.86-1.15,1.87,1.87,0,0,1,1.66,1,5.09,5.09,0,0,1,.61,2.7v.69h-4a6,6,0,0,0,.53,2.77,1.64,1.64,0,0,0,1.54.92,3.3,3.3,0,0,0,1.68-.52v.72A3.22,3.22,0,0,1,150.29,382.16ZM150,374q-1.53,0-1.68,3.06h3.26a4.94,4.94,0,0,0-.43-2.23A1.29,1.29,0,0,0,150,374Zm6.56,7.44a1.87,1.87,0,0,0,.61-.09V382a2.2,2.2,0,0,1-.88.16c-.87,0-1.31-.66-1.31-2v-6h-.77v-.44l.75-.22.25-2h.51v2H157v.66h-1.34V380a2.46,2.46,0,0,0,.19,1.18A.7.7,0,0,0,156.52,381.47Zm7.32.53h-.74v-8.48h.74ZM163,371.17a.94.94,0,0,1,.14-.54.44.44,0,0,1,.38-.2.36.36,0,0,1,.33.2,1.19,1.19,0,0,1,0,1.08.38.38,0,0,1-.33.2.47.47,0,0,1-.38-.2A.94.94,0,0,1,163,371.17ZM170.74,382v-5.84c0-1.41-.41-2.11-1.25-2.11a1.47,1.47,0,0,0-1.39.79,5.27,5.27,0,0,0-.44,2.5V382h-.74v-8.48h.62l.06,1.18h.08a2.24,2.24,0,0,1,.76-1,1.85,1.85,0,0,1,1.07-.35A1.73,1.73,0,0,1,171,374a3.58,3.58,0,0,1,.49,2.12V382Zm3.68-.7c0-.56.2-.84.61-.84a.56.56,0,0,1,.43.19.92.92,0,0,1,.18.65.94.94,0,0,1-.18.64.59.59,0,0,1-.43.19C174.62,382.13,174.42,381.85,174.42,381.3Zm12.44.7-1-4.14h-2.78l-1,4.14h-.8L184,370.58h.79L187.65,382Zm-1.18-4.91-1-4.26c-.1-.48-.19-.93-.24-1.36a12.83,12.83,0,0,1-.22,1.36l-1,4.26Zm6.09,5.07a2.11,2.11,0,0,1-1.93-1.11,6.66,6.66,0,0,1-.64-3.25,6.81,6.81,0,0,1,.65-3.3,2.1,2.1,0,0,1,1.93-1.14,2.7,2.7,0,0,1,1.31.29l-.29.65a2.3,2.3,0,0,0-1-.24c-1.24,0-1.86,1.24-1.86,3.73s.62,3.69,1.86,3.69a3.32,3.32,0,0,0,1.21-.25v.63a2.39,2.39,0,0,1-.64.22A3.37,3.37,0,0,1,191.77,382.16Zm10.68-.16-.09-1.19h0a2,2,0,0,1-1.85,1.35,1.6,1.6,0,0,1-1.33-.66,2.82,2.82,0,0,1-.5-1.77,2.56,2.56,0,0,1,.72-1.92,3,3,0,0,1,2-.77l.92-.05v-.7a3.75,3.75,0,0,0-.3-1.73,1,1,0,0,0-1-.54,2.76,2.76,0,0,0-1.48.47l-.32-.58a3.43,3.43,0,0,1,1.85-.55,1.71,1.71,0,0,1,1.51.66,4,4,0,0,1,.46,2.21V382Zm-1.8-.48a1.35,1.35,0,0,0,1.23-.78,4.52,4.52,0,0,0,.45-2.22v-.89l-.89.05a2.23,2.23,0,0,0-1.52.57,2.06,2.06,0,0,0-.49,1.49,2.19,2.19,0,0,0,.33,1.35A1,1,0,0,0,200.65,381.52Zm7.52.64q-2.47,0-2.47-4.39a7,7,0,0,1,.61-3.28,2,2,0,0,1,1.82-1.13,2,2,0,0,1,1.08.33,2.3,2.3,0,0,1,.82.9h.07l0-.94v-3.81h.75V382h-.61l-.07-1.19h-.07a2.43,2.43,0,0,1-.79,1A1.85,1.85,0,0,1,208.17,382.16Zm0-.65a1.51,1.51,0,0,0,1.37-.82,4.92,4.92,0,0,0,.48-2.43v-.49a6.38,6.38,0,0,0-.46-2.81,1.51,1.51,0,0,0-1.42-.9,1.35,1.35,0,0,0-1.31,1,7.41,7.41,0,0,0-.4,2.77,7.31,7.31,0,0,0,.41,2.77A1.39,1.39,0,0,0,208.21,381.51Zm6.41.49h-.74v-8.48h.74Zm-.85-10.83a.94.94,0,0,1,.14-.54.43.43,0,0,1,.38-.2.36.36,0,0,1,.33.2,1.19,1.19,0,0,1,0,1.08.38.38,0,0,1-.33.2.46.46,0,0,1-.38-.2A.94.94,0,0,1,213.77,371.17Zm6.65,11a2,2,0,0,1-1.17-.36,2.19,2.19,0,0,1-.8-1h-.07l.06.93v4.08h-.74V373.52h.6l.08,1.17h.07a2.59,2.59,0,0,1,.8-1,1.81,1.81,0,0,1,1.07-.34c1.66,0,2.48,1.46,2.48,4.38a7.22,7.22,0,0,1-.6,3.27A1.94,1.94,0,0,1,220.42,382.16Zm-.15-8.1a1.49,1.49,0,0,0-1.38.82,5.6,5.6,0,0,0-.45,2.57v.25a6.68,6.68,0,0,0,.46,2.87,1.48,1.48,0,0,0,1.4.91,1.37,1.37,0,0,0,1.3-.9,7,7,0,0,0,.43-2.84,7.24,7.24,0,0,0-.4-2.76A1.39,1.39,0,0,0,220.27,374.06Zm5.95,7.94h-.74v-8.48h.74Zm-.85-10.83a.94.94,0,0,1,.14-.54.44.44,0,0,1,.38-.2.36.36,0,0,1,.33.2,1.19,1.19,0,0,1,0,1.08.38.38,0,0,1-.33.2.47.47,0,0,1-.38-.2A.94.94,0,0,1,225.37,371.17Zm7.25,8.71a2.33,2.33,0,0,1-.56,1.67,2.08,2.08,0,0,1-1.62.61,3.13,3.13,0,0,1-1-.15,2.53,2.53,0,0,1-.68-.33v-.87a2,2,0,0,0,.77.47,2.68,2.68,0,0,0,1,.17,1.28,1.28,0,0,0,1-.43,1.67,1.67,0,0,0,.38-1.14,1.59,1.59,0,0,0-.27-.95,3.73,3.73,0,0,0-1-.88,7.55,7.55,0,0,1-1.19-.88,2.75,2.75,0,0,1-.49-.73,2.59,2.59,0,0,1-.17-1,2,2,0,0,1,.62-1.51,2.15,2.15,0,0,1,1.57-.6,2.92,2.92,0,0,1,1.71.48l-.38.65a2.46,2.46,0,0,0-1.36-.43,1.42,1.42,0,0,0-1.05.39,1.38,1.38,0,0,0-.39,1,1.58,1.58,0,0,0,.27.94,4,4,0,0,0,1.12.92,6.77,6.77,0,0,1,1.16.89,2.25,2.25,0,0,1,.46.73A2.67,2.67,0,0,1,232.62,379.88Zm4.7,2.28a2.09,2.09,0,0,1-1.92-1.11,6.55,6.55,0,0,1-.64-3.25,6.81,6.81,0,0,1,.65-3.3,2.1,2.1,0,0,1,1.93-1.14,2.73,2.73,0,0,1,1.31.29l-.29.65a2.33,2.33,0,0,0-1-.24c-1.25,0-1.87,1.24-1.87,3.73s.62,3.69,1.87,3.69a3.27,3.27,0,0,0,1.2-.25v.63a2.32,2.32,0,0,1-.63.22A3.46,3.46,0,0,1,237.32,382.16Zm4.33-.16h-.74v-8.48h.74Zm-.85-10.83a.94.94,0,0,1,.14-.54.44.44,0,0,1,.38-.2.36.36,0,0,1,.33.2,1.19,1.19,0,0,1,0,1.08.38.38,0,0,1-.33.2.47.47,0,0,1-.38-.2A.94.94,0,0,1,240.8,371.17ZM248.55,382v-5.84c0-1.41-.41-2.11-1.25-2.11a1.47,1.47,0,0,0-1.39.79,5.39,5.39,0,0,0-.44,2.5V382h-.74v-8.48h.62l.06,1.18h.07a2.33,2.33,0,0,1,.77-1,1.85,1.85,0,0,1,1.07-.35,1.73,1.73,0,0,1,1.48.66,3.66,3.66,0,0,1,.49,2.12V382Zm8.21-8.48v.53l-1.16.13a2.36,2.36,0,0,1,.39.87,4.56,4.56,0,0,1,.15,1.16,3.27,3.27,0,0,1-.57,2,1.74,1.74,0,0,1-1.47.77h-.18l-.17,0a3.16,3.16,0,0,0-.59.53,1,1,0,0,0-.21.62.64.64,0,0,0,.28.56,1.32,1.32,0,0,0,.76.2h.53a2.49,2.49,0,0,1,1.76.58,2.24,2.24,0,0,1,.62,1.7,2.48,2.48,0,0,1-.84,2,3.28,3.28,0,0,1-2.21.72,2.47,2.47,0,0,1-1.77-.58,2.19,2.19,0,0,1-.62-1.67,2.29,2.29,0,0,1,.41-1.37,2.69,2.69,0,0,1,1.27-.89,1.7,1.7,0,0,1-.63-.48,1.11,1.11,0,0,1-.23-.72,1,1,0,0,1,.25-.68,4,4,0,0,1,.72-.65,2,2,0,0,1-1-1,4.1,4.1,0,0,1,.24-3.7,1.83,1.83,0,0,1,1.56-.78,2.12,2.12,0,0,1,.89.16Zm-4.56,10a1.82,1.82,0,0,0,.41,1.26,1.67,1.67,0,0,0,1.27.45,2.38,2.38,0,0,0,1.65-.54,1.89,1.89,0,0,0,.62-1.5,1.45,1.45,0,0,0-1.63-1.6H254a1.66,1.66,0,0,0-1.27.53A2,2,0,0,0,252.2,383.52Zm.46-7.23a2.77,2.77,0,0,0,.38,1.58,1.22,1.22,0,0,0,1,.53c.9,0,1.36-.73,1.36-2.19a3.32,3.32,0,0,0-.35-1.65,1.11,1.11,0,0,0-1-.59,1.13,1.13,0,0,0-1,.61A3.35,3.35,0,0,0,252.66,376.29Zm13.4,3.59a2.33,2.33,0,0,1-.56,1.67,2.08,2.08,0,0,1-1.62.61,3.13,3.13,0,0,1-1-.15,2.53,2.53,0,0,1-.68-.33v-.87a2,2,0,0,0,.77.47,2.72,2.72,0,0,0,1,.17,1.28,1.28,0,0,0,1-.43,1.67,1.67,0,0,0,.38-1.14,1.59,1.59,0,0,0-.27-.95,3.73,3.73,0,0,0-1-.88,6.9,6.9,0,0,1-1.18-.88,2.21,2.21,0,0,1-.67-1.7,2,2,0,0,1,.62-1.51,2.15,2.15,0,0,1,1.57-.6,2.92,2.92,0,0,1,1.71.48l-.38.65a2.46,2.46,0,0,0-1.36-.43,1.42,1.42,0,0,0-1,.39,1.38,1.38,0,0,0-.39,1,1.58,1.58,0,0,0,.27.94,4,4,0,0,0,1.12.92,6.77,6.77,0,0,1,1.16.89,2.25,2.25,0,0,1,.46.73A2.67,2.67,0,0,1,266.06,379.88Zm3.23-6.36v5.53a4.2,4.2,0,0,0,.3,1.84,1,1,0,0,0,.93.58,1.52,1.52,0,0,0,1.41-.77,5.31,5.31,0,0,0,.45-2.52v-4.66h.73V382h-.62l-.1-1.19h-.06a2.28,2.28,0,0,1-.75,1,1.82,1.82,0,0,1-1.06.35,1.68,1.68,0,0,1-1.5-.73,4.58,4.58,0,0,1-.47-2.38v-5.53Zm10.22,6.36a2.37,2.37,0,0,1-.56,1.67,2.11,2.11,0,0,1-1.63.61,3.17,3.17,0,0,1-1-.15,2.69,2.69,0,0,1-.68-.33v-.87a2.09,2.09,0,0,0,.77.47,2.73,2.73,0,0,0,1,.17,1.29,1.29,0,0,0,1-.43,1.66,1.66,0,0,0,.37-1.14,1.59,1.59,0,0,0-.27-.95,3.81,3.81,0,0,0-1-.88,7.08,7.08,0,0,1-1.19-.88,2.53,2.53,0,0,1-.49-.73,2.4,2.4,0,0,1-.18-1,2,2,0,0,1,.62-1.51,2.17,2.17,0,0,1,1.57-.6,2.9,2.9,0,0,1,1.71.48l-.38.65a2.46,2.46,0,0,0-1.36-.43,1.42,1.42,0,0,0-1,.39,1.38,1.38,0,0,0-.39,1,1.58,1.58,0,0,0,.27.94,4.18,4.18,0,0,0,1.12.92,6.38,6.38,0,0,1,1.16.89,2.09,2.09,0,0,1,.46.73A2.45,2.45,0,0,1,279.51,379.88Zm4.7,2.28a2.11,2.11,0,0,1-1.93-1.11,6.66,6.66,0,0,1-.64-3.25,6.81,6.81,0,0,1,.65-3.3,2.1,2.1,0,0,1,1.93-1.14,2.7,2.7,0,0,1,1.31.29l-.29.65a2.26,2.26,0,0,0-1-.24c-1.24,0-1.86,1.24-1.86,3.73s.62,3.69,1.86,3.69a3.36,3.36,0,0,0,1.21-.25v.63a2.32,2.32,0,0,1-.63.22A3.46,3.46,0,0,1,284.21,382.16Zm4.33-.16h-.74v-8.48h.74Zm-.85-10.83a.87.87,0,0,1,.14-.54.43.43,0,0,1,.37-.2.38.38,0,0,1,.34.2,1.27,1.27,0,0,1,0,1.08.4.4,0,0,1-.34.2.45.45,0,0,1-.37-.2A.87.87,0,0,1,287.69,371.17Zm6.65,11a2,2,0,0,1-1.17-.36,2.19,2.19,0,0,1-.8-1h-.07l.05.93v4.08h-.74V373.52h.61l.08,1.17h.07a2.5,2.5,0,0,1,.8-1,1.79,1.79,0,0,1,1.07-.34q2.47,0,2.48,4.38a7.08,7.08,0,0,1-.61,3.27A1.94,1.94,0,0,1,294.34,382.16Zm-.15-8.1a1.49,1.49,0,0,0-1.38.82,5.45,5.45,0,0,0-.46,2.57v.25a6.84,6.84,0,0,0,.46,2.87,1.5,1.5,0,0,0,1.41.91,1.38,1.38,0,0,0,1.3-.9,7.18,7.18,0,0,0,.43-2.84,7.45,7.45,0,0,0-.4-2.76A1.39,1.39,0,0,0,294.19,374.06Zm5.95,7.94h-.75v-8.48h.75Zm-.85-10.83a.87.87,0,0,1,.14-.54.43.43,0,0,1,.37-.2.38.38,0,0,1,.34.2,1.27,1.27,0,0,1,0,1.08.4.4,0,0,1-.34.2.45.45,0,0,1-.37-.2A.87.87,0,0,1,299.29,371.17Zm5.48,10.3a2,2,0,0,0,.61-.09V382a2.25,2.25,0,0,1-.89.16c-.87,0-1.31-.66-1.31-2v-6h-.77v-.44l.75-.22.25-2h.51v2h1.35v.66h-1.35V380a2.46,2.46,0,0,0,.19,1.18A.71.71,0,0,0,304.77,381.47Zm9.9-1.59a2.37,2.37,0,0,1-.56,1.67,2.11,2.11,0,0,1-1.63.61,3.11,3.11,0,0,1-1-.15,2.53,2.53,0,0,1-.68-.33v-.87a2,2,0,0,0,.76.47,2.77,2.77,0,0,0,1,.17,1.28,1.28,0,0,0,1-.43,1.67,1.67,0,0,0,.38-1.14,1.53,1.53,0,0,0-.28-.95,3.81,3.81,0,0,0-1-.88,7.55,7.55,0,0,1-1.19-.88,2.53,2.53,0,0,1-.49-.73,2.59,2.59,0,0,1-.17-1,2,2,0,0,1,.61-1.51,2.19,2.19,0,0,1,1.58-.6,2.92,2.92,0,0,1,1.71.48l-.39.65a2.43,2.43,0,0,0-1.36-.43,1.41,1.41,0,0,0-1,.39,1.38,1.38,0,0,0-.39,1,1.65,1.65,0,0,0,.26.94,4.1,4.1,0,0,0,1.13.92,6.22,6.22,0,0,1,1.15.89,2,2,0,0,1,.46.73A2.45,2.45,0,0,1,314.67,379.88Zm4.93,2.28a2.33,2.33,0,0,1-2.08-1.14,6.15,6.15,0,0,1-.71-3.2,6.84,6.84,0,0,1,.64-3.31,2,2,0,0,1,1.86-1.15,1.87,1.87,0,0,1,1.66,1,5.09,5.09,0,0,1,.61,2.7v.69h-4a6,6,0,0,0,.53,2.77,1.64,1.64,0,0,0,1.54.92,3.3,3.3,0,0,0,1.68-.52v.72A3.18,3.18,0,0,1,319.6,382.16Zm-.34-8.13q-1.53,0-1.68,3.06h3.26a4.94,4.94,0,0,0-.43-2.23A1.29,1.29,0,0,0,319.26,374Zm7.08,8.13c-1.64,0-2.47-1.46-2.47-4.39a7,7,0,0,1,.62-3.28,2,2,0,0,1,2.9-.8,2.38,2.38,0,0,1,.82.9h.06l0-.94v-3.81H329V382h-.61l-.06-1.19h-.07a2.52,2.52,0,0,1-.79,1A1.86,1.86,0,0,1,326.34,382.16Zm.05-.65a1.52,1.52,0,0,0,1.37-.82,4.92,4.92,0,0,0,.48-2.43v-.49a6.35,6.35,0,0,0-.47-2.81,1.5,1.5,0,0,0-1.41-.9,1.37,1.37,0,0,0-1.32,1,7.62,7.62,0,0,0-.4,2.77,7.08,7.08,0,0,0,.42,2.77A1.39,1.39,0,0,0,326.39,381.51Zm12.81-1.63a2.37,2.37,0,0,1-.56,1.67,2.11,2.11,0,0,1-1.63.61,3.22,3.22,0,0,1-1-.15,2.45,2.45,0,0,1-.67-.33v-.87a2,2,0,0,0,.76.47,2.73,2.73,0,0,0,1,.17,1.29,1.29,0,0,0,1-.43,1.66,1.66,0,0,0,.37-1.14,1.59,1.59,0,0,0-.27-.95,3.81,3.81,0,0,0-1-.88,7.08,7.08,0,0,1-1.19-.88,2.53,2.53,0,0,1-.49-.73,2.4,2.4,0,0,1-.17-1,2,2,0,0,1,.61-1.51,2.17,2.17,0,0,1,1.57-.6,2.9,2.9,0,0,1,1.71.48l-.38.65a2.46,2.46,0,0,0-1.36-.43,1.34,1.34,0,0,0-1.44,1.41,1.58,1.58,0,0,0,.27.94,4.18,4.18,0,0,0,1.12.92,6.38,6.38,0,0,1,1.16.89,2.09,2.09,0,0,1,.46.73A2.45,2.45,0,0,1,339.2,379.88Zm4.7,2.28a2.09,2.09,0,0,1-1.92-1.11,6.54,6.54,0,0,1-.65-3.25,6.81,6.81,0,0,1,.65-3.3,2.1,2.1,0,0,1,1.93-1.14,2.74,2.74,0,0,1,1.32.29l-.29.65a2.33,2.33,0,0,0-1-.24c-1.25,0-1.87,1.24-1.87,3.73s.62,3.69,1.87,3.69a3.27,3.27,0,0,0,1.2-.25v.63a2.32,2.32,0,0,1-.63.22A3.46,3.46,0,0,1,343.9,382.16Zm6,0a2.33,2.33,0,0,1-2.07-1.14,6,6,0,0,1-.72-3.2,7,7,0,0,1,.64-3.31,2,2,0,0,1,1.86-1.15,1.88,1.88,0,0,1,1.67,1,5.19,5.19,0,0,1,.61,2.7v.69h-4a6.12,6.12,0,0,0,.52,2.77,1.65,1.65,0,0,0,1.54.92,3.27,3.27,0,0,0,1.68-.52v.72A3.16,3.16,0,0,1,349.89,382.16Zm-.33-8.13q-1.53,0-1.68,3.06h3.25a4.81,4.81,0,0,0-.43-2.23A1.28,1.28,0,0,0,349.56,374Zm5.75,8h-.74V369.84h.74Zm5.48.16a2.31,2.31,0,0,1-2.07-1.14,6,6,0,0,1-.72-3.2,6.84,6.84,0,0,1,.64-3.31,2,2,0,0,1,1.86-1.15,1.86,1.86,0,0,1,1.66,1,5.09,5.09,0,0,1,.61,2.7v.69h-4a6,6,0,0,0,.52,2.77,1.64,1.64,0,0,0,1.54.92,3.3,3.3,0,0,0,1.68-.52v.72A3.16,3.16,0,0,1,360.79,382.16Zm-.34-8.13q-1.53,0-1.68,3.06H362a4.81,4.81,0,0,0-.43-2.23A1.28,1.28,0,0,0,360.45,374Zm7.37-.67a2.55,2.55,0,0,1,.74.11l-.18.74a1.47,1.47,0,0,0-.58-.12,1.06,1.06,0,0,0-.81.45,3.2,3.2,0,0,0-.57,1.23,6.69,6.69,0,0,0-.21,1.74V382h-.75v-8.48h.61l.08,1.49h.06C366.6,373.91,367.14,373.36,367.82,373.36Zm3.56,8.64h-.74v-8.48h.74Zm-.85-10.83a.94.94,0,0,1,.14-.54.43.43,0,0,1,.38-.2.36.36,0,0,1,.33.2,1.19,1.19,0,0,1,0,1.08.38.38,0,0,1-.33.2.46.46,0,0,1-.38-.2A.94.94,0,0,1,370.53,371.17Zm7.25,8.71a2.33,2.33,0,0,1-.56,1.67,2.08,2.08,0,0,1-1.62.61,3.13,3.13,0,0,1-1-.15,2.53,2.53,0,0,1-.68-.33v-.87a2,2,0,0,0,.77.47,2.68,2.68,0,0,0,1,.17,1.28,1.28,0,0,0,1-.43,1.67,1.67,0,0,0,.38-1.14,1.53,1.53,0,0,0-.28-.95,3.51,3.51,0,0,0-1-.88,7.55,7.55,0,0,1-1.19-.88,2.75,2.75,0,0,1-.49-.73,2.59,2.59,0,0,1-.17-1,2,2,0,0,1,.62-1.51,2.15,2.15,0,0,1,1.57-.6,2.92,2.92,0,0,1,1.71.48l-.38.65a2.46,2.46,0,0,0-1.36-.43,1.42,1.42,0,0,0-1.05.39,1.38,1.38,0,0,0-.39,1,1.65,1.65,0,0,0,.26.94,4.27,4.27,0,0,0,1.13.92,6.77,6.77,0,0,1,1.16.89,2.25,2.25,0,0,1,.46.73A2.67,2.67,0,0,1,377.78,379.88Zm4.56,2.28a2,2,0,0,1-1.81-1.08,6.81,6.81,0,0,1-.63-3.31,6.54,6.54,0,0,1,.66-3.32,2,2,0,0,1,3.68.21h.06l.12-1.14H385v12.32h-.74v-3.66c0-.35,0-.82.07-1.41h-.07A2.11,2.11,0,0,1,382.34,382.16Zm.11-.68a1.46,1.46,0,0,0,1.34-.84,5.17,5.17,0,0,0,.48-2.48v-.39a6.35,6.35,0,0,0-.47-2.81,1.5,1.5,0,0,0-1.41-.9,1.35,1.35,0,0,0-1.31,1,7.41,7.41,0,0,0-.4,2.77,6.93,6.93,0,0,0,.42,2.82A1.42,1.42,0,0,0,382.45,381.48Zm6.35-8v5.53a4.38,4.38,0,0,0,.29,1.84,1,1,0,0,0,.93.58,1.52,1.52,0,0,0,1.41-.77,5.31,5.31,0,0,0,.45-2.52v-4.66h.74V382H392l-.09-1.19h-.06a2.38,2.38,0,0,1-.76,1,1.8,1.8,0,0,1-1.06.35,1.68,1.68,0,0,1-1.5-.73,4.58,4.58,0,0,1-.47-2.38v-5.53Zm9.29,8.64A2.31,2.31,0,0,1,396,381a6,6,0,0,1-.72-3.2,6.84,6.84,0,0,1,.64-3.31,2,2,0,0,1,1.86-1.15,1.86,1.86,0,0,1,1.66,1,5.09,5.09,0,0,1,.61,2.7v.69h-4a6,6,0,0,0,.52,2.77,1.64,1.64,0,0,0,1.54.92,3.3,3.3,0,0,0,1.68-.52v.72A3.16,3.16,0,0,1,398.09,382.16Zm-.34-8.13q-1.53,0-1.68,3.06h3.26a4.81,4.81,0,0,0-.43-2.23A1.28,1.28,0,0,0,397.75,374Zm4.92,7.27c0-.56.2-.84.61-.84a.56.56,0,0,1,.43.19.92.92,0,0,1,.18.65.94.94,0,0,1-.18.64.59.59,0,0,1-.43.19C402.87,382.13,402.67,381.85,402.67,381.3Z"/></svg>