<svg id="space" xmlns="http://www.w3.org/2000/svg" viewBox="0 0 239.52 39.74"><defs><style>.cls-1{fill:#0a3954;}.cls-2{fill:#0e3254;}</style></defs><g id="Smoke4"><path class="cls-1" d="M239.54,77.64a11,11,0,0,0,0,20.92Z" transform="translate(-0.02 -68.11)"/><path class="cls-1" d="M239.54,86.56c-3-3.37-8.7-4.87-14.5-3.43-7.69,1.9-12.74,8.23-11.28,14.15s8.88,9.16,16.57,7.26a16.6,16.6,0,0,0,9.21-5.75Z" transform="translate(-0.02 -68.11)"/><path class="cls-1" d="M236,107.85h3.53V96.46a8.45,8.45,0,0,0-4.25,9.49A9,9,0,0,0,236,107.85Z" transform="translate(-0.02 -68.11)"/><path class="cls-1" d="M230.43,107.85h8a4.61,4.61,0,1,0-8.46-1.22A5,5,0,0,0,230.43,107.85Z" transform="translate(-0.02 -68.11)"/><path class="cls-1" d="M233,107.85a1.88,1.88,0,0,0-.06-.46,2.1,2.1,0,0,0-4.14.46Z" transform="translate(-0.02 -68.11)"/><path class="cls-1" d="M226.16,107.85h6.59a6.7,6.7,0,1,0-6.59,0Z" transform="translate(-0.02 -68.11)"/><path class="cls-1" d="M217,107.85h6.59A4.4,4.4,0,1,0,216,106,4.56,4.56,0,0,0,217,107.85Z" transform="translate(-0.02 -68.11)"/><path class="cls-1" d="M210.1,107.85h10.1a7.32,7.32,0,1,0-10.1,0Z" transform="translate(-0.02 -68.11)"/></g><g id="Smoke3"><path class="cls-2" d="M216,87.31a11,11,0,1,1,12.38,9.49A11,11,0,0,1,216,87.31Z" transform="translate(-0.02 -68.11)"/><path class="cls-2" d="M177.4,87.55A11,11,0,1,1,189.77,97,11,11,0,0,1,177.4,87.55Z" transform="translate(-0.02 -68.11)"/><circle class="cls-2" cx="169.89" cy="90.23" r="11.03" transform="translate(-16.3 -26.3) rotate(-13.39)"/><path class="cls-2" d="M139.78,96.1c-.79-6,4.93-11.77,12.78-12.81s14.86,3,15.66,9.06-4.92,11.77-12.77,12.81S140.58,102.14,139.78,96.1Z" transform="translate(-0.02 -68.11)"/><circle class="cls-2" cx="203.4" cy="93.19" r="9" transform="translate(5.12 128.77) rotate(-52.23)"/><path class="cls-2" d="M207.33,92.67a5.45,5.45,0,1,1,6.11,4.69A5.44,5.44,0,0,1,207.33,92.67Z" transform="translate(-0.02 -68.11)"/><circle class="cls-2" cx="218.91" cy="94.09" r="3.77" transform="translate(11.65 143.57) rotate(-52.83)"/><path class="cls-2" d="M220.75,98.49a7.75,7.75,0,1,1,8.69,6.67A7.74,7.74,0,0,1,220.75,98.49Z" transform="translate(-0.02 -68.11)"/><path class="cls-2" d="M239.54,91.93a7.75,7.75,0,1,0-1.42,15,8.16,8.16,0,0,0,1.42-.33Z" transform="translate(-0.02 -68.11)"/><circle class="cls-2" cx="196.29" cy="100.03" r="3.15" transform="translate(73.07 214.57) rotate(-83)"/><path class="cls-2" d="M186.07,97.8a4.61,4.61,0,1,1,5.17,4A4.61,4.61,0,0,1,186.07,97.8Z" transform="translate(-0.02 -68.11)"/><path class="cls-2" d="M174.23,99.78a7,7,0,1,1,7.84,6A7,7,0,0,1,174.23,99.78Z" transform="translate(-0.02 -68.11)"/><circle class="cls-2" cx="175.96" cy="33.13" r="4.61"/><path class="cls-2" d="M160.35,107.85h16.5a8.54,8.54,0,0,0,.13-2.95,8.45,8.45,0,0,0-16.76,2.21C160.25,107.36,160.3,107.61,160.35,107.85Z" transform="translate(-0.02 -68.11)"/><path class="cls-2" d="M155,107.85h8.87a4.61,4.61,0,1,0-9-.66A3.67,3.67,0,0,0,155,107.85Z" transform="translate(-0.02 -68.11)"/><path class="cls-2" d="M157.62,107.85a2.1,2.1,0,0,0-4,0Z" transform="translate(-0.02 -68.11)"/><path class="cls-2" d="M150.75,107.85H159a6.7,6.7,0,1,0-8.21,0Z" transform="translate(-0.02 -68.11)"/><path class="cls-2" d="M142.63,107.85h5.54a4.4,4.4,0,1,0-5.54,0Z" transform="translate(-0.02 -68.11)"/><path class="cls-2" d="M137,107.85h7.27a7.33,7.33,0,1,0-7.27,0Z" transform="translate(-0.02 -68.11)"/><path class="cls-2" d="M96.25,84.29a11,11,0,1,1,10.89,11.17A11,11,0,0,1,96.25,84.29Z" transform="translate(-0.02 -68.11)"/><circle class="cls-2" cx="69.07" cy="79.14" r="11.03" transform="translate(-35.75 3.92) rotate(-45)"/><path class="cls-2" d="M39.21,80.43A11,11,0,1,1,50.1,91.6,11,11,0,0,1,39.21,80.43Z" transform="translate(-0.02 -68.11)"/><path class="cls-2" d="M19.6,82.06c.07-6.09,6.56-10.94,14.48-10.84s14.27,5.12,14.2,11.21S41.72,93.38,33.8,93.28,19.52,88.16,19.6,82.06Z" transform="translate(-0.02 -68.11)"/><path class="cls-2" d="M74,88.19a9,9,0,1,1,8.89,9.12A9,9,0,0,1,74,88.19Z" transform="translate(-0.02 -68.11)"/><path class="cls-2" d="M86.93,88.35a5.45,5.45,0,1,1,5.38,5.52A5.45,5.45,0,0,1,86.93,88.35Z" transform="translate(-0.02 -68.11)"/><circle class="cls-2" cx="98.17" cy="23.32" r="3.77"/><circle class="cls-2" cx="107.13" cy="96.14" r="7.75" transform="translate(-16.27 -46.11) rotate(-10.9)"/><circle class="cls-2" cx="115.46" cy="99.17" r="7.75" transform="translate(-36.54 39.4) rotate(-43.8)"/><path class="cls-2" d="M71.8,94a3.15,3.15,0,1,1,3.11,3.19A3.16,3.16,0,0,1,71.8,94Z" transform="translate(-0.02 -68.11)"/><path class="cls-2" d="M65.16,90.38a4.61,4.61,0,1,1,4.55,4.67A4.61,4.61,0,0,1,65.16,90.38Z" transform="translate(-0.02 -68.11)"/><path class="cls-2" d="M53.16,90.65a7,7,0,1,1,6.9,7.07A7,7,0,0,1,53.16,90.65Z" transform="translate(-0.02 -68.11)"/><path class="cls-2" d="M50.08,92.28A4.61,4.61,0,1,1,54.63,97,4.6,4.6,0,0,1,50.08,92.28Z" transform="translate(-0.02 -68.11)"/><path class="cls-2" d="M38.24,95.89a8.45,8.45,0,1,1,8.35,8.56A8.45,8.45,0,0,1,38.24,95.89Z" transform="translate(-0.02 -68.11)"/><path class="cls-2" d="M32.89,95.2a4.61,4.61,0,1,1,4.55,4.67A4.6,4.6,0,0,1,32.89,95.2Z" transform="translate(-0.02 -68.11)"/><path class="cls-2" d="M31.41,96.64a2.1,2.1,0,1,1,2.07,2.13A2.09,2.09,0,0,1,31.41,96.64Z" transform="translate(-0.02 -68.11)"/><circle class="cls-2" cx="33.59" cy="90.61" r="6.7" transform="translate(-54.25 -17.82) rotate(-45)"/><path class="cls-2" d="M19.56,91.06a4.4,4.4,0,1,1,4.34,4.45A4.41,4.41,0,0,1,19.56,91.06Z" transform="translate(-0.02 -68.11)"/><path class="cls-2" d="M12.29,87.41a7.33,7.33,0,1,1,7.23,7.42A7.33,7.33,0,0,1,12.29,87.41Z" transform="translate(-0.02 -68.11)"/></g><path class="cls-2" d="M11.87,82.6A15.91,15.91,0,0,0,0,87.21V99.93a16,16,0,0,0,11.57,4.73c7.92.1,14.4-4.75,14.48-10.84S19.79,82.7,11.87,82.6Z" transform="translate(-0.02 -68.11)"/></svg>