<svg xmlns="http://www.w3.org/2000/svg" xmlns:xlink="http://www.w3.org/1999/xlink" id="space" viewBox="0 0 239.54 77.13"><defs/><defs><linearGradient id="Áåçûìÿííûé_ãðàäèåíò_30" x1="167.97" x2="174.53" y1="45.02" y2="74.4" gradientUnits="userSpaceOnUse"><stop offset="0" stop-color="#fff68e"/><stop offset=".14" stop-color="#fcf08a"/><stop offset=".32" stop-color="#f3df7f"/><stop offset=".53" stop-color="#e4c36c"/><stop offset=".76" stop-color="#cf9c53"/><stop offset="1" stop-color="#b56c33"/></linearGradient><linearGradient id="Áåçûìÿííûé_ãðàäèåíò_30-2" x1="178.05" x2="182.8" y1="43.36" y2="64.62" xlink:href="#Áåçûìÿííûé_ãðàäèåíò_30"/><linearGradient id="Áåçûìÿííûé_ãðàäèåíò_4" x1="174.3" x2="176.64" y1="57.06" y2="65.1" gradientUnits="userSpaceOnUse"><stop offset="0" stop-color="#fff"/><stop offset=".15" stop-color="#fcfcfc"/><stop offset=".28" stop-color="#f1f3f4"/><stop offset=".41" stop-color="#e0e3e6"/><stop offset=".52" stop-color="#c7cdd2"/><stop offset=".64" stop-color="#a7b0b9"/><stop offset=".75" stop-color="#808d99"/><stop offset=".86" stop-color="#516474"/><stop offset=".96" stop-color="#1d354a"/><stop offset="1" stop-color="#062138"/></linearGradient><linearGradient id="Áåçûìÿííûé_ãðàäèåíò_30-3" x1="174.95" x2="175.72" y1="58.13" y2="62.1" xlink:href="#Áåçûìÿííûé_ãðàäèåíò_30"/><linearGradient id="Áåçûìÿííûé_ãðàäèåíò_30-4" x1="169" x2="181.43" y1="36.84" y2="47.86" xlink:href="#Áåçûìÿííûé_ãðàäèåíò_30"/><style>.cls-1{fill:#154b7d}</style></defs><g id="Smoke1"><path d="M24.66 107.85A15.11 15.11 0 000 95.92v11.93zM68.64 107.85a15.1 15.1 0 00-15.76 0zM92.68 107.85a15 15 0 00-12.1 0zM115.23 107.85a25 25 0 00-14.68 0z" class="cls-1" transform="translate(0 -30.72)"/><path d="M55.46 107.85v-.19a12.34 12.34 0 10-24.46.19z" class="cls-1" transform="translate(0 -30.72)"/><path d="M37.13 107.85a7.47 7.47 0 10-13.35 0z" class="cls-1" transform="translate(0 -30.72)"/><path d="M28.13 100.16a5.18 5.18 0 11-4.49-5.78 5.18 5.18 0 014.49 5.78z" class="cls-1" transform="translate(0 -30.72)"/><circle cx="11.56" cy="91.72" r="10.62" class="cls-1" transform="rotate(-26.39 -53.96554548 76.35057574)"/><path d="M2 75.76a11.43 11.43 0 00-2-.06v21.19a10.61 10.61 0 0011.22-9.26A10.62 10.62 0 002 75.76zM59.34 100.06a4.31 4.31 0 11-3.74-4.82 4.33 4.33 0 013.74 4.82z" class="cls-1" transform="translate(0 -30.72)"/><path d="M67.32 107.85a6.74 6.74 0 00.51-1.81 6.32 6.32 0 00-12.54-1.58 6.25 6.25 0 00.51 3.39z" class="cls-1" transform="translate(0 -30.72)"/><path d="M84.16 107.85v-.32a9.58 9.58 0 10-19 .32z" class="cls-1" transform="translate(0 -30.72)"/><path d="M88 107.85a6.49 6.49 0 00.64-2.07 6.32 6.32 0 10-11.91 2.07z" class="cls-1" transform="translate(0 -30.72)"/><path d="M103.35 107.85a11.58 11.58 0 10-19 0z" class="cls-1" transform="translate(0 -30.72)"/><path d="M111 107.85a6.32 6.32 0 10-11-5 6.3 6.3 0 001.53 5z" class="cls-1" transform="translate(0 -30.72)"/><path d="M114.75 102.72a2.88 2.88 0 11-2.5-3.22 2.87 2.87 0 012.5 3.22z" class="cls-1" transform="translate(0 -30.72)"/><path d="M119.61 107.85a9.18 9.18 0 00-17.52 0z" class="cls-1" transform="translate(0 -30.72)"/><path d="M128.91 107.85a6 6 0 00-9.74 0z" class="cls-1" transform="translate(0 -30.72)"/><path d="M133.57 107.85a10 10 0 00-8.33 0z" class="cls-1" transform="translate(0 -30.72)"/><path d="M135.05 107.85a15.05 15.05 0 00-17 0zM208.69 107.85a15.18 15.18 0 00-4.23-.49 15 15 0 00-3.38.49zM239.54 107.85v-.42a24.35 24.35 0 00-25.07.42zM170.49 107.85a12.33 12.33 0 00-21.72 0z" class="cls-1" transform="translate(0 -30.72)"/><path d="M150.88 107.85a7.43 7.43 0 00-8.29 0z" class="cls-1" transform="translate(0 -30.72)"/><path d="M143.17 107.85a5.16 5.16 0 00-9.14 0z" class="cls-1" transform="translate(0 -30.72)"/><path d="M116.1 107.85h20a10.61 10.61 0 10-20 0z" class="cls-1" transform="translate(0 -30.72)"/><path d="M106.77 107.85h15.54a10.61 10.61 0 10-15.54 0zM173.82 107.85a4.31 4.31 0 10-7.84-2.36 4.27 4.27 0 00.78 2.36z" class="cls-1" transform="translate(0 -30.72)"/><path d="M183.51 107.85a6.32 6.32 0 00-11.85 0z" class="cls-1" transform="translate(0 -30.72)"/><path d="M200.24 107.85a9.58 9.58 0 00-19 0z" class="cls-1" transform="translate(0 -30.72)"/><path d="M191.94 107.85h12.39a6.64 6.64 0 00.12-1.42 6.32 6.32 0 10-12.51 1.42z" class="cls-1" transform="translate(0 -30.72)"/><path d="M199.42 107.85h18.91a11.58 11.58 0 10-18.91 0z" class="cls-1" transform="translate(0 -30.72)"/><path d="M220.22 107.85h2.57a6.32 6.32 0 10-2.57 0z" class="cls-1" transform="translate(0 -30.72)"/><path d="M229.77 99.42a2.88 2.88 0 11-3-2.8 2.88 2.88 0 013 2.8z" class="cls-1" transform="translate(0 -30.72)"/><path d="M236.3 107.85a2.8 2.8 0 000-.29 9.18 9.18 0 00-18.36.29z" class="cls-1" transform="translate(0 -30.72)"/><path d="M234.38 107.85h5.16v-7.25a6 6 0 00-5.29 6.15 5.7 5.7 0 00.13 1.1z" class="cls-1" transform="translate(0 -30.72)"/><path d="M239.54 107.85V104a10 10 0 00-2.55 3.87zM174.71 88.35a6.49 6.49 0 01-6.93-6.07 6.58 6.58 0 016-7 6.48 6.48 0 016.93 6.06 6.6 6.6 0 01-6 7.01z" class="cls-1" transform="translate(0 -30.72)"/><path d="M176.46 91.1a4.27 4.27 0 01-4.57-4 4.35 4.35 0 014-4.66 4.28 4.28 0 014.57 4 4.34 4.34 0 01-4 4.66z" class="cls-1" transform="translate(0 -30.72)"/><path d="M179.67 86.84a4.28 4.28 0 01-4.58-4 4.36 4.36 0 014-4.66 4.27 4.27 0 014.57 4 4.35 4.35 0 01-3.99 4.66z" class="cls-1" transform="translate(0 -30.72)"/><path d="M181.12 88.11a2 2 0 01-2.12-1.83 2 2 0 011.82-2.12 2 2 0 012.11 1.84 2 2 0 01-1.81 2.11z" class="cls-1" transform="translate(0 -30.72)"/><ellipse cx="176.32" cy="87.72" class="cls-1" rx="6.31" ry="6.22" transform="rotate(-78.96 157.66349804 72.36097555)"/><path d="M136.75 107.71h12a7.29 7.29 0 001.43-5.66 7.57 7.57 0 00-8.66-6.2 7.4 7.4 0 00-4.81 11.86z" class="cls-1" transform="translate(0 -30.72)"/><ellipse cx="150.17" cy="96.75" class="cls-1" rx="10.92" ry="11.07" transform="rotate(-83.87 133.06282299 81.38911987)"/><path d="M185.89 107.71a15.85 15.85 0 00-.18-3.62 16.8 16.8 0 00-19.22-13.76 16.53 16.53 0 00-14.07 17.38z" class="cls-1" transform="translate(0 -30.72)"/><path d="M172.89 107.71h17.05a10.77 10.77 0 002.39-8.66A11.1 11.1 0 00179.64 90a10.9 10.9 0 00-9.17 12.49 10.79 10.79 0 002.42 5.22z" class="cls-1" transform="translate(0 -30.72)"/><ellipse cx="169.87" cy="93.53" class="cls-1" rx="10.92" ry="11.07" transform="rotate(-83.86 152.78541673 78.17219344)"/><path d="M183.71 87.86a5 5 0 01-4.18 5.7 5.05 5.05 0 01-5.78-4.14 5 5 0 014.18-5.7 5.06 5.06 0 015.78 4.14z" class="cls-1" transform="translate(0 -30.72)"/><path d="M169.66 107.71h28.27a15.6 15.6 0 001.73-10 16.11 16.11 0 00-18.44-13.2 15.85 15.85 0 00-13.33 18.15 15.6 15.6 0 001.77 5.05zM171.68 78.21s2.93-20.91 2.72-22.38 2.51 0 2.51 0 2.51 21.75 3.55 22.79-8.78-.41-8.78-.41z" class="cls-1" transform="translate(0 -30.72)"/></g><g id="Rocket"><path fill="url(#Áåçûìÿííûé_ãðàäèåíò_30)" d="M173.08 49.62H173c-8.11.47-8 5.08-4.59 11.82a.42.42 0 00.75 0c.31-1.32.32-2.58 1.07-3.5.4-.7 1.06-.6 1.87-.53l2.16.21z" transform="translate(0 -30.72)"/><path fill="url(#Áåçûìÿííûé_ãðàäèåíò_30-2)" d="M178 49.62h.09c8.11.47 8 5.08 4.59 11.82a.42.42 0 01-.75 0c-.31-1.32-.32-2.58-1.07-3.5-.4-.7-1.06-.6-1.86-.53l-2.17.21z" transform="translate(0 -30.72)"/><path fill="#ebeef2" d="M174.27 31.22c-6.78 6.79-6.68 17.22-1.9 30.12h6.33c4.25-13 4-23.33-2-30.06a1.69 1.69 0 00-2.43-.06z" transform="translate(0 -30.72)"/><path fill="url(#Áåçûìÿííûé_ãðàäèåíò_4)" d="M178.24 62.05h-5.41a.5.5 0 01-.51-.31l-.13-.68c0-.05.05-.1.13-.1h6.34c.08 0 .15 0 .13.11l-.14.73a.4.4 0 01-.41.25z" transform="translate(0 -30.72)"/><path fill="url(#Áåçûìÿííûé_ãðàäèåíò_30-3)" d="M178.42 61.68h-5.77c-.27 0-.5-.1-.54-.23l-.15-.52s.06-.08.14-.08h6.78c.08 0 .15 0 .14.08l-.16.56c-.03.11-.22.19-.44.19z" transform="translate(0 -30.72)"/><path fill="url(#Áåçûìÿííûé_ãðàäèåíò_30-4)" d="M178.56 42.59a3.07 3.07 0 11-3.07-3.07 3.06 3.06 0 013.07 3.07z" transform="translate(0 -30.72)"/><path fill="#003654" d="M177.67 42.59a2.18 2.18 0 11-2.18-2.18 2.17 2.17 0 012.18 2.18z" transform="translate(0 -30.72)"/><path fill="#fff" d="M176.55 40.88l-2.09 3.4a2 2 0 112.09-3.4z" opacity=".2" transform="translate(0 -30.72)"/></g></svg>